<svg xmlns="http://www.w3.org/2000/svg" xmlns:xlink="http://www.w3.org/1999/xlink" width="500" zoomAndPan="magnify" viewBox="0 0 375 374.999991" height="500" preserveAspectRatio="xMidYMid meet" version="1.0"><defs><g/><clipPath id="9fcb1f732c"><path d="M 61 68.601562 L 313 68.601562 L 313 247.851562 L 61 247.851562 Z M 61 68.601562 " clip-rule="nonzero"/></clipPath></defs><rect x="-37.5" width="450" fill="#ffffff" y="-37.499999" height="449.999989" fill-opacity="1"/><rect x="-37.5" width="450" fill="#ffffff" y="-37.499999" height="449.999989" fill-opacity="1"/><path fill="#007c84" d="M 193.582031 197.382812 C 193.71875 197.25 193.582031 197.25 193.582031 197.382812 C 193.449219 197.382812 193.175781 197.519531 193.175781 197.519531 C 188.308594 202.519531 187.632812 210.632812 189.796875 216.851562 C 190.472656 218.882812 192.230469 221.992188 194.394531 222.9375 C 194.53125 222.9375 194.53125 222.9375 194.394531 222.9375 C 188.984375 216.042969 188.851562 204.550781 193.582031 197.382812 Z M 193.582031 197.382812 " fill-opacity="1" fill-rule="nonzero"/><g clip-path="url(#9fcb1f732c)"><path fill="#007c84" d="M 297.015625 238.082031 C 296.746094 238.082031 296.746094 237.945312 297.015625 237.808594 C 311.347656 229.15625 315.132812 210.769531 311.210938 195.625 C 307.832031 182.375 297.421875 172.910156 283.359375 172.777344 C 283.226562 172.777344 283.226562 172.640625 283.226562 172.640625 C 284.441406 159.796875 285.792969 146.953125 287.011719 133.972656 C 287.550781 128.023438 286.738281 124.914062 281.0625 122.34375 C 264.023438 114.636719 243.878906 113.691406 225.625 113.824219 C 225.492188 113.824219 225.492188 113.691406 225.492188 113.691406 L 225.492188 80.835938 C 225.492188 80.566406 225.625 80.160156 225.898438 79.890625 C 230.222656 75.96875 227.519531 68.667969 221.433594 68.9375 C 216.164062 69.207031 213.730469 75.15625 216.972656 79.214844 C 217.242188 79.484375 217.378906 79.890625 217.648438 80.160156 C 217.648438 80.292969 217.785156 80.292969 217.785156 80.429688 L 217.921875 113.824219 C 217.921875 113.960938 217.785156 113.960938 217.785156 113.960938 L 204.535156 114.367188 C 204.398438 114.367188 204.398438 114.230469 204.398438 114.230469 L 204.398438 88.949219 C 204.398438 88.8125 204.535156 88.8125 204.535156 88.8125 C 205.617188 88.675781 207.78125 88.40625 208.589844 87.597656 C 209.941406 86.242188 207.914062 85.566406 206.96875 85.433594 C 184.792969 81.78125 162.757812 78.265625 140.582031 74.617188 C 137.878906 74.210938 135.851562 73.804688 134.632812 73.667969 C 123.140625 72.453125 111.78125 75.699219 102.183594 82.1875 C 98.9375 84.351562 105.429688 87.730469 106.914062 88.273438 C 107.050781 88.273438 107.050781 88.40625 107.050781 88.542969 L 107.050781 120.179688 C 107.050781 120.316406 107.050781 120.316406 106.914062 120.316406 C 91.773438 122.34375 78.929688 129.105469 69.871094 141.679688 C 66.757812 146.003906 73.113281 145.464844 75.277344 145.464844 C 75.414062 145.464844 75.414062 145.597656 75.414062 145.597656 C 75.277344 148.4375 75.007812 150.332031 74.871094 151.007812 C 74.195312 153.980469 72.03125 153.980469 69.597656 154.523438 C 69.191406 154.65625 68.921875 154.929688 68.789062 155.46875 C 68.652344 158.039062 69.464844 160.472656 68.921875 162.90625 C 68.515625 164.796875 67.300781 166.285156 65.542969 167.367188 C 64.191406 168.179688 63.378906 168.855469 63.785156 170.34375 C 64.867188 174.667969 66.082031 178.183594 63.785156 182.105469 C 62.296875 184.539062 59.863281 185.214844 61.890625 188.59375 C 64.730469 193.058594 64.867188 196.4375 62.027344 201.035156 C 60.945312 202.65625 61.488281 204.007812 62.839844 205.359375 C 64.460938 206.984375 65.8125 208.335938 66.082031 210.5 C 66.355469 212.933594 64.054688 217.257812 65.40625 219.015625 C 66.355469 220.234375 68.382812 220.234375 69.597656 221.316406 C 71.898438 223.34375 70.949219 227.265625 70.949219 229.699219 C 70.949219 233.347656 75.683594 230.777344 77.441406 232.132812 C 77.980469 232.535156 78.386719 233.078125 78.523438 233.753906 C 78.523438 233.890625 78.386719 234.023438 78.25 234.023438 L 68.113281 234.699219 C 67.976562 234.699219 67.976562 234.699219 68.113281 234.699219 C 89.339844 237.132812 110.429688 238.484375 131.792969 237.132812 C 133.417969 237 137.066406 236.863281 142.746094 236.457031 C 142.878906 236.457031 142.878906 236.457031 142.878906 236.457031 C 143.015625 236.324219 142.878906 236.324219 142.746094 236.324219 C 137.203125 235.917969 131.523438 235.511719 125.980469 234.96875 C 125.84375 234.96875 125.574219 234.835938 125.574219 234.835938 C 125.4375 234.835938 125.4375 234.699219 125.574219 234.699219 C 131.386719 234.699219 131.523438 234.429688 125.84375 234.023438 C 125.4375 234.023438 125.4375 233.890625 125.84375 233.753906 L 127.601562 233.214844 C 127.738281 233.214844 127.738281 233.078125 127.738281 233.078125 C 127.738281 232.808594 125.304688 232.535156 124.898438 232.535156 C 124.222656 232.402344 124.085938 231.726562 124.898438 231.589844 C 126.519531 231.457031 128.007812 231.457031 129.226562 231.320312 C 130.035156 231.320312 130.441406 230.914062 130.441406 230.101562 C 130.710938 226.585938 130.710938 222.53125 131.929688 219.285156 C 132.605469 217.257812 134.09375 216.988281 135.984375 216.851562 C 136.390625 216.851562 136.660156 216.582031 136.660156 216.175781 C 137.066406 212.933594 137.472656 209.6875 137.878906 206.441406 C 138.011719 205.226562 138.148438 204.414062 138.417969 203.875 C 138.960938 202.25 139.90625 202.519531 141.257812 202.386719 C 143.015625 202.25 144.910156 202.25 146.667969 202.25 C 148.828125 202.25 150.046875 203.738281 149.640625 205.765625 C 149.371094 207.386719 148.289062 208.875 148.019531 210.09375 C 147.613281 211.308594 148.695312 211.851562 149.640625 212.390625 C 153.292969 214.554688 152.34375 217.933594 151.9375 221.449219 C 151.398438 224.964844 157.617188 221.449219 158.023438 226.585938 C 158.160156 227.941406 158.160156 229.292969 158.292969 230.777344 C 158.292969 230.777344 158.160156 230.914062 158.160156 230.777344 C 156.671875 230.238281 154.777344 230.101562 152.617188 230.238281 C 148.558594 230.375 144.636719 230.644531 140.582031 231.050781 C 140.445312 231.050781 140.445312 231.050781 140.582031 231.050781 C 144.910156 231.457031 149.777344 231.859375 155.050781 231.996094 C 158.429688 232.132812 162.484375 232.941406 165.324219 233.078125 C 169.515625 233.484375 173.574219 233.617188 177.765625 233.484375 C 177.898438 233.484375 178.035156 233.484375 178.035156 233.617188 C 180.0625 237.269531 182.632812 240.515625 185.742188 243.351562 C 185.875 243.488281 185.875 243.488281 185.742188 243.488281 L 161.675781 244.433594 C 161 244.433594 161 244.570312 161.675781 244.570312 C 164.648438 244.976562 168.433594 245.246094 170.597656 245.382812 C 186.6875 246.597656 202.910156 247.679688 219.136719 246.734375 C 228.195312 246.191406 237.253906 245.652344 246.179688 244.839844 C 246.3125 244.839844 246.3125 244.839844 246.179688 244.707031 C 246.042969 244.570312 246.042969 244.570312 245.90625 244.570312 C 238.605469 244.03125 231.171875 243.757812 223.867188 243.488281 C 223.597656 243.488281 223.597656 243.351562 223.734375 243.21875 C 234.6875 233.214844 238.605469 217.394531 237.121094 203.0625 C 237.121094 202.925781 237.121094 202.925781 237.253906 202.925781 L 247.125 202.925781 C 247.261719 202.925781 247.261719 203.0625 247.261719 203.0625 C 246.449219 216.042969 249.558594 228.75 260.238281 237.132812 C 260.375 237.269531 260.375 237.269531 260.238281 237.269531 C 253.886719 237.539062 245.636719 237.808594 235.632812 238.214844 C 235.632812 238.214844 235.496094 238.214844 235.496094 238.214844 C 235.496094 238.214844 235.496094 238.351562 235.632812 238.351562 C 236.578125 238.484375 237.523438 238.621094 238.472656 238.757812 C 250.097656 239.839844 261.589844 240.378906 273.21875 240.648438 C 286.199219 240.917969 297.691406 239.972656 311.210938 238.890625 C 311.347656 238.890625 311.347656 238.890625 311.210938 238.890625 C 306.75 238.484375 301.882812 238.082031 297.015625 238.082031 Z M 309.726562 204.414062 C 308.914062 202.65625 307.96875 201.035156 307.019531 199.277344 C 307.019531 199.277344 306.886719 199.277344 306.75 199.277344 C 304.453125 201.167969 302.289062 203.46875 300.53125 206.308594 C 299.71875 207.523438 298.503906 208.199219 297.015625 208.335938 C 296.878906 208.335938 296.746094 208.335938 296.746094 208.335938 C 293.363281 206.308594 300.9375 197.382812 302.425781 195.355469 C 302.695312 194.949219 302.828125 194.679688 302.828125 194.136719 L 302.964844 192.109375 C 302.964844 192.109375 302.964844 191.976562 302.964844 191.976562 C 303.101562 191.839844 303.371094 191.703125 303.503906 191.839844 C 307.5625 194.003906 310.128906 199.546875 310.535156 203.875 C 310.671875 204.414062 310.402344 205.902344 309.726562 204.414062 Z M 285.253906 129.644531 C 285.386719 129.644531 285.386719 129.78125 285.386719 129.914062 C 285.523438 131.132812 285.386719 132.347656 284.980469 133.429688 C 284.980469 133.566406 284.847656 133.566406 284.710938 133.566406 L 280.65625 133.835938 C 280.519531 133.835938 280.386719 133.972656 280.386719 134.105469 L 280.113281 140.328125 C 280.113281 140.597656 280.386719 140.867188 280.65625 140.867188 C 281.601562 140.867188 282.546875 141.003906 283.496094 141.273438 C 284.035156 141.40625 284.304688 142.082031 283.496094 142.21875 C 282.414062 142.21875 281.195312 142.355469 280.113281 142.488281 C 279.980469 142.488281 279.980469 142.625 279.980469 142.625 L 279.574219 149.789062 C 279.574219 149.925781 279.574219 149.925781 279.710938 149.925781 L 283.089844 150.195312 C 283.226562 150.195312 283.359375 150.195312 283.359375 150.332031 C 283.628906 150.601562 283.628906 150.738281 283.496094 151.007812 C 283.496094 151.144531 283.359375 151.144531 283.226562 151.144531 L 279.710938 151.414062 C 279.4375 151.414062 279.304688 151.546875 279.304688 151.820312 L 278.898438 158.984375 C 278.898438 159.121094 278.898438 159.121094 279.035156 159.121094 C 280.519531 159.253906 281.46875 159.527344 282.144531 159.660156 C 283.089844 159.929688 282.683594 160.472656 282.007812 160.472656 C 280.925781 160.605469 279.84375 160.605469 278.761719 160.742188 C 278.628906 160.742188 278.628906 160.878906 278.628906 160.878906 L 278.222656 168.042969 C 278.222656 168.179688 278.355469 168.179688 278.355469 168.179688 L 281.195312 168.585938 C 281.332031 168.585938 281.46875 168.585938 281.46875 168.71875 C 281.601562 168.988281 281.738281 169.125 281.46875 169.394531 C 281.46875 169.53125 281.332031 169.53125 281.195312 169.53125 L 278.085938 169.800781 C 277.953125 169.800781 277.953125 169.9375 277.953125 170.070312 L 277.410156 176.832031 C 277.410156 176.96875 277.546875 176.96875 277.546875 177.101562 L 280.789062 177.777344 C 280.925781 177.777344 281.0625 177.914062 281.0625 177.914062 C 281.195312 178.320312 281.332031 178.589844 281.332031 178.996094 C 281.332031 179.128906 281.195312 179.128906 281.195312 179.128906 L 274.164062 179.128906 C 274.03125 179.128906 273.894531 179.128906 273.894531 178.996094 L 273.625 178.183594 C 273.625 178.046875 273.488281 177.914062 273.488281 177.914062 C 272.542969 177.238281 271.460938 177.101562 270.515625 177.507812 C 269.703125 177.777344 269.296875 178.589844 268.894531 179.128906 C 268.621094 179.402344 268.621094 179.402344 268.757812 178.996094 L 269.703125 176.292969 C 269.839844 176.019531 269.972656 175.886719 270.246094 175.886719 C 271.597656 175.75 272.8125 175.75 274.164062 175.886719 C 274.300781 175.886719 274.300781 175.75 274.300781 175.75 C 274.570312 173.722656 274.570312 171.695312 274.4375 169.800781 C 274.4375 169.53125 274.164062 169.394531 273.894531 169.394531 L 268.21875 169.394531 C 267.675781 169.394531 267.539062 169.664062 267.539062 170.070312 C 267.539062 172.777344 267.269531 175.613281 267 178.589844 C 267 178.726562 267.136719 178.859375 267.269531 178.996094 C 267.8125 179.128906 267.945312 179.128906 267.269531 179.265625 C 267 179.265625 266.460938 178.996094 266.324219 178.996094 C 262.132812 178.453125 258.347656 178.859375 253.75 179.265625 C 253.613281 179.265625 253.613281 179.265625 253.613281 179.128906 C 252.667969 163.175781 251.585938 147.355469 250.773438 131.402344 C 250.773438 130.457031 250.640625 129.644531 250.640625 128.96875 C 250.640625 128.292969 250.910156 127.617188 251.453125 127.210938 C 253.75 125.453125 257.671875 125.046875 260.511719 125.046875 C 269.164062 125.046875 277.277344 126.535156 285.253906 129.644531 Z M 167.894531 96.382812 C 167.894531 96.25 167.894531 96.25 168.027344 96.113281 L 200.074219 89.757812 C 200.074219 89.757812 200.207031 89.757812 200.207031 89.894531 C 200.207031 98.007812 200.34375 106.253906 200.207031 114.5 C 200.207031 114.636719 200.074219 114.636719 200.074219 114.636719 C 192.5 115.179688 184.929688 115.855469 177.492188 116.53125 C 177.359375 116.53125 177.085938 116.53125 177.359375 116.257812 C 179.519531 115.3125 186.417969 112.609375 185.066406 109.90625 C 183.578125 106.660156 171.003906 108.148438 168.027344 108.554688 C 167.894531 108.554688 167.894531 108.554688 167.894531 108.417969 Z M 167.894531 110.988281 C 172.492188 110.445312 177.359375 110.039062 181.957031 110.714844 C 182.359375 110.714844 182.496094 110.988281 182.089844 111.257812 C 181.820312 111.390625 181.550781 111.796875 181.277344 111.933594 C 178.574219 113.285156 175.734375 114.636719 172.894531 115.582031 C 172.761719 115.582031 172.625 115.582031 172.625 115.582031 L 168.027344 114.636719 C 167.894531 114.636719 167.894531 114.5 167.894531 114.367188 L 167.894531 110.988281 C 167.757812 111.121094 167.894531 110.988281 167.894531 110.988281 Z M 167.757812 117.476562 C 167.757812 117.339844 167.894531 117.339844 167.894531 117.339844 C 169.246094 117.476562 169.382812 117.613281 168.027344 117.882812 C 167.894531 117.882812 167.757812 117.882812 167.757812 117.746094 C 167.757812 117.746094 167.757812 117.613281 167.757812 117.476562 Z M 184.660156 118.558594 C 205.886719 116.257812 227.519531 115.582031 248.882812 117.746094 C 256.996094 118.558594 264.703125 120.046875 272.136719 122.074219 C 273.085938 122.34375 274.570312 122.882812 276.328125 123.695312 C 276.328125 123.695312 276.597656 123.695312 276.597656 123.832031 C 276.597656 123.832031 276.597656 123.832031 276.464844 123.832031 C 270.515625 122.207031 264.296875 121.804688 258.210938 122.75 C 254.425781 123.289062 250.503906 124.101562 248.882812 127.886719 C 248.882812 127.886719 248.746094 127.886719 248.746094 127.886719 C 246.449219 124.914062 241.3125 123.695312 237.660156 122.882812 C 231.847656 121.667969 225.898438 120.992188 219.949219 120.585938 C 200.207031 119.503906 179.792969 120.585938 160.457031 125.183594 C 159.917969 125.316406 159.105469 125.453125 159.511719 124.507812 C 160.320312 122.613281 163.972656 122.074219 165.59375 121.53125 C 171.816406 120.316406 178.167969 119.234375 184.660156 118.558594 Z M 236.984375 128.96875 C 214.132812 129.914062 191.148438 131.539062 168.300781 134.378906 C 168.164062 134.378906 168.164062 134.378906 168.164062 134.242188 L 168.164062 130.320312 C 168.164062 130.1875 168.300781 130.1875 168.300781 130.1875 C 183.710938 128.832031 199.125 128.023438 214.539062 127.753906 C 221.976562 127.617188 229.546875 127.753906 236.984375 128.832031 C 237.523438 128.832031 237.523438 128.832031 236.984375 128.96875 Z M 132.199219 91.515625 C 132.199219 91.382812 132.335938 91.382812 132.335938 91.382812 L 163.972656 96.113281 C 164.109375 96.113281 164.109375 96.25 164.109375 96.25 L 164.109375 109.09375 C 164.109375 109.230469 164.109375 109.230469 163.972656 109.363281 C 162.351562 109.632812 154.914062 111.390625 156.808594 114.230469 C 157.753906 115.582031 162.351562 116.257812 163.972656 116.394531 C 164.109375 116.394531 164.109375 116.53125 164.109375 116.53125 L 164.242188 118.691406 C 164.242188 118.828125 164.242188 118.828125 164.109375 118.964844 C 162.890625 119.371094 161.808594 119.640625 160.59375 119.773438 C 158.023438 120.316406 157.886719 121.804688 158.566406 127.210938 C 158.699219 128.5625 158.699219 129.914062 158.429688 131.132812 C 158.429688 131.402344 158.160156 131.539062 157.886719 131.539062 L 152.34375 130.320312 C 152.34375 130.320312 143.285156 130.457031 140.582031 128.5625 C 139.5 128.15625 138.285156 127.210938 137.742188 126.804688 C 136.121094 125.453125 134.226562 124.238281 132.335938 123.019531 C 132.335938 123.019531 132.335938 123.019531 132.335938 122.882812 Z M 164.109375 113.824219 C 164.109375 114.097656 163.835938 114.230469 163.703125 114.097656 L 160.1875 113.421875 C 160.050781 113.421875 159.917969 113.285156 159.917969 113.148438 C 159.917969 113.015625 159.917969 112.746094 160.1875 112.746094 L 163.703125 111.796875 C 163.703125 111.796875 163.703125 111.796875 163.835938 111.796875 C 163.972656 111.796875 164.109375 111.933594 164.242188 112.066406 Z M 155.589844 165.070312 C 154.914062 166.554688 151.261719 164.394531 150.183594 163.851562 C 149.910156 163.71875 149.910156 163.582031 150.183594 163.582031 C 152.210938 162.90625 154.375 162.636719 155.589844 164.796875 C 155.589844 164.796875 155.589844 164.933594 155.589844 165.070312 Z M 111.105469 88.675781 C 111.105469 88.542969 111.242188 88.542969 111.242188 88.542969 L 127.195312 90.976562 C 127.332031 90.976562 127.46875 91.109375 127.46875 91.246094 L 127.46875 120.585938 C 127.46875 120.722656 127.332031 120.722656 127.332031 120.722656 C 121.652344 119.371094 117.054688 119.234375 111.242188 119.503906 C 111.105469 119.503906 111.105469 119.371094 111.105469 119.371094 Z M 86.09375 138.433594 C 89.472656 136.8125 93.125 135.730469 96.910156 135.1875 C 97.046875 135.1875 97.046875 135.1875 96.910156 135.324219 C 94.613281 137.351562 92.71875 138.703125 91.367188 139.785156 C 89.609375 141.003906 87.582031 140.191406 85.957031 139.109375 C 85.824219 138.839844 85.824219 138.703125 86.09375 138.433594 Z M 126.25 149.386719 C 124.492188 148.4375 122.464844 147.761719 120.300781 146.953125 C 120.03125 146.816406 119.761719 146.953125 119.625 147.222656 C 116.246094 151.820312 112.054688 155.605469 107.050781 158.578125 C 106.238281 158.984375 105.292969 159.253906 104.480469 159.253906 C 104.078125 159.253906 103.804688 158.984375 103.804688 158.445312 C 103.671875 152.089844 107.1875 147.898438 112.054688 144.113281 C 113.40625 143.03125 114.621094 141.679688 115.433594 140.191406 C 115.433594 140.054688 115.703125 140.054688 115.703125 140.054688 C 119.894531 141.949219 123.679688 145.734375 126.386719 149.25 C 126.65625 149.386719 126.519531 149.519531 126.25 149.386719 Z M 139.636719 173.585938 C 139.636719 173.855469 139.636719 173.855469 139.363281 173.722656 C 135.039062 169.394531 130.304688 165.203125 125.4375 161.285156 C 125.4375 161.285156 125.304688 161.285156 125.304688 161.285156 C 121.652344 167.367188 115.570312 173.046875 108.539062 174.9375 C 108.539062 174.9375 108.402344 174.9375 108.402344 174.804688 C 108.539062 170.070312 110.027344 166.015625 113 162.5 C 115.972656 158.984375 120.84375 156.6875 121.652344 151.683594 C 121.652344 151.546875 121.789062 151.546875 121.921875 151.546875 C 130.441406 156.011719 138.011719 163.582031 139.636719 173.585938 Z M 111.242188 137.757812 C 109.347656 139.515625 107.320312 141.273438 105.292969 142.894531 C 103.265625 144.519531 101.644531 146.410156 99.75 148.03125 C 98.53125 149.113281 97.855469 148.167969 97.453125 147.085938 C 96.773438 145.328125 96.773438 143.570312 97.179688 141.949219 C 97.855469 139.515625 102.589844 136.8125 104.753906 135.863281 C 106.914062 134.917969 109.484375 135.863281 111.242188 137.351562 C 111.378906 137.351562 111.378906 137.621094 111.242188 137.757812 Z M 77.304688 144.789062 C 78.792969 143.300781 80.414062 142.082031 82.039062 140.730469 C 82.171875 140.730469 82.171875 140.730469 82.171875 140.867188 L 82.308594 143.4375 C 82.308594 143.570312 82.171875 143.839844 82.039062 144.113281 C 80.6875 145.328125 79.199219 145.734375 77.441406 145.464844 C 77.035156 145.195312 77.035156 145.058594 77.304688 144.789062 Z M 84.742188 217.257812 C 81.089844 216.042969 78.25 212.257812 76.628906 208.742188 C 72.574219 199.816406 72.167969 189.136719 74.058594 179.671875 C 75.414062 172.777344 81.363281 157.363281 91.367188 161.960938 C 91.636719 162.09375 91.636719 162.230469 91.367188 162.363281 C 79.875 167.910156 78.65625 185.890625 80.820312 196.570312 C 81.632812 200.761719 83.390625 205.089844 86.632812 207.929688 C 86.90625 208.199219 87.039062 208.199219 86.769531 207.792969 C 79.46875 197.519531 81.226562 182.105469 86.5 171.558594 C 88.121094 168.3125 90.285156 165.746094 93.261719 163.71875 C 93.394531 163.582031 93.800781 163.582031 93.9375 163.851562 C 96.910156 167.636719 98.9375 171.828125 99.75 176.5625 C 99.75 176.5625 99.613281 176.695312 99.613281 176.695312 C 89.878906 175.886719 89.203125 197.652344 99.75 198.195312 C 99.886719 198.195312 99.886719 198.328125 99.886719 198.328125 C 99.34375 202.386719 98.261719 206.308594 96.371094 209.957031 C 94.207031 214.417969 90.015625 219.015625 84.742188 217.257812 Z M 115.296875 225.234375 C 110.296875 227.535156 104.886719 228.75 99.207031 228.617188 C 98.53125 228.617188 98.398438 228.34375 98.804688 227.667969 C 100.425781 225.101562 104.617188 223.613281 107.457031 222.800781 C 112.324219 221.316406 117.054688 219.828125 121.789062 218.070312 C 121.789062 218.070312 121.921875 218.070312 121.921875 218.207031 C 121.789062 221.449219 118.003906 224.019531 115.296875 225.234375 Z M 129.359375 220.773438 C 129.359375 221.042969 129.226562 221.042969 129.226562 220.773438 C 128.414062 217.527344 127.332031 214.417969 126.25 211.308594 C 125.710938 209.6875 125.035156 206.308594 126.65625 205.226562 C 127.195312 204.953125 127.601562 204.953125 128.007812 205.359375 C 131.117188 208.335938 130.171875 216.851562 129.359375 220.773438 Z M 136.796875 210.363281 C 136.796875 210.5 136.660156 210.5 136.660156 210.363281 C 134.226562 206.171875 131.253906 202.117188 128.007812 198.464844 C 128.007812 198.464844 127.871094 198.464844 127.871094 198.464844 C 124.628906 205.496094 114.21875 211.984375 106.644531 211.851562 C 106.375 211.851562 106.238281 211.578125 106.238281 211.308594 C 106.78125 208.066406 109.484375 205.632812 112.054688 204.007812 C 117.460938 200.628906 123.277344 198.328125 127.332031 193.867188 C 128.546875 192.515625 128.144531 190.757812 128.414062 189.269531 C 128.546875 188.054688 129.089844 187.917969 129.902344 188.867188 C 135.039062 194.949219 138.011719 202.386719 136.796875 210.363281 Z M 140.582031 193.191406 C 136.660156 188.054688 132.199219 183.1875 128.144531 178.046875 C 128.007812 178.046875 127.871094 178.046875 127.871094 178.046875 C 123.953125 184.675781 116.378906 191.433594 108.671875 193.328125 C 108.539062 193.328125 108.539062 193.328125 108.539062 193.191406 C 111.78125 182.917969 121.246094 176.832031 126.925781 167.910156 C 126.925781 167.773438 127.0625 167.773438 127.195312 167.910156 C 127.738281 168.179688 128.277344 168.449219 128.683594 168.855469 C 135.171875 175.210938 139.230469 184.402344 140.582031 193.191406 C 140.71875 193.328125 140.582031 193.328125 140.582031 193.191406 Z M 143.828125 162.09375 C 142.070312 162.363281 141.121094 161.285156 140.71875 159.796875 C 137.742188 148.980469 131.386719 133.429688 120.4375 128.5625 C 111.378906 124.507812 101.507812 123.832031 91.773438 125.722656 C 91.773438 125.722656 91.636719 125.722656 91.636719 125.722656 C 91.503906 125.722656 91.503906 125.722656 91.636719 125.589844 C 101.507812 122.34375 112.324219 120.855469 122.597656 122.75 C 132.738281 124.640625 140.042969 131.402344 145.042969 140.328125 C 148.289062 146.273438 150.859375 152.222656 152.75 158.171875 C 153.292969 159.796875 152.210938 160.605469 150.722656 160.742188 C 148.558594 161.417969 146.261719 161.6875 143.828125 162.09375 Z M 156.128906 192.921875 C 153.695312 192.921875 150.992188 192.921875 148.695312 192.652344 C 148.558594 192.652344 148.558594 192.515625 148.558594 192.515625 L 148.152344 168.71875 C 148.152344 168.585938 148.289062 168.585938 148.289062 168.585938 L 156.128906 168.71875 C 156.265625 168.71875 156.265625 168.855469 156.265625 168.855469 L 156.265625 192.652344 C 156.402344 192.785156 156.265625 192.921875 156.128906 192.921875 Z M 158.835938 192.109375 C 158.699219 192.109375 158.699219 191.976562 158.699219 191.976562 C 158.96875 185.484375 159.242188 179.128906 159.511719 172.640625 C 159.644531 169.261719 163.160156 169.125 165.460938 168.71875 C 165.867188 168.585938 166.269531 168.449219 166.675781 168.179688 C 167.082031 167.910156 166.949219 167.636719 166.40625 167.367188 C 163.027344 166.015625 159.917969 164.394531 156.808594 162.636719 C 156.535156 162.5 156.535156 162.363281 156.941406 162.363281 C 159.242188 162.5 161.675781 162.5 163.972656 162.363281 C 165.59375 162.363281 166.8125 162.363281 167.351562 162.636719 C 168.976562 163.3125 170.460938 165.476562 169.785156 167.230469 C 169.785156 167.367188 169.652344 167.367188 169.652344 167.503906 C 169.109375 167.910156 168.839844 168.3125 168.839844 168.988281 C 168.703125 175.886719 168.300781 182.78125 167.894531 189.542969 C 167.894531 189.675781 167.894531 189.675781 168.027344 189.675781 L 170.734375 189.945312 C 170.867188 189.945312 171.003906 190.082031 171.003906 190.082031 C 171.273438 190.757812 171.003906 191.027344 170.191406 191.164062 C 167.351562 191.433594 164.511719 191.570312 161.539062 191.839844 C 160.1875 192.246094 159.375 192.246094 158.835938 192.109375 Z M 173.84375 214.691406 C 173.84375 214.824219 173.84375 214.824219 173.707031 214.960938 C 167.757812 216.175781 163.160156 211.578125 161.402344 206.308594 C 161 205.226562 160.59375 204.277344 160.59375 203.0625 C 160.59375 202.519531 160.863281 202.25 161.402344 202.25 L 164.785156 202.25 C 164.917969 202.25 165.054688 202.386719 165.191406 202.519531 C 165.867188 205.765625 167.21875 210.902344 170.867188 212.121094 C 171.003906 212.121094 171.003906 212.121094 170.867188 211.984375 C 169.246094 209.417969 168.570312 206.710938 168.976562 203.875 C 169.246094 201.710938 172.355469 202.117188 173.707031 202.386719 C 173.976562 202.386719 174.113281 202.65625 174.113281 202.925781 C 173.574219 206.984375 173.574219 210.902344 173.84375 214.691406 Z M 171.679688 164.121094 C 171.410156 163.988281 171.003906 163.851562 170.734375 163.71875 C 170.191406 163.445312 170.058594 163.175781 170.328125 162.90625 C 170.597656 162.636719 170.867188 162.636719 171.136719 162.636719 C 174.925781 162.636719 178.710938 162.636719 182.359375 162.769531 C 183.847656 162.769531 186.824219 165.339844 187.5 166.691406 C 187.902344 167.367188 187.632812 167.773438 186.824219 167.910156 C 181.820312 168.042969 176.277344 165.878906 171.679688 164.121094 Z M 198.722656 173.855469 C 203.992188 171.289062 210.484375 171.558594 215.890625 173.453125 C 216.027344 173.453125 216.027344 173.453125 215.890625 173.453125 C 210.753906 173.453125 204.398438 173.992188 199.9375 176.019531 C 198.992188 176.425781 197.910156 176.96875 196.964844 177.371094 C 196.691406 177.507812 196.558594 177.371094 196.285156 177.371094 C 194.800781 176.292969 197.910156 174.128906 198.722656 173.855469 Z M 193.71875 166.015625 C 191.691406 164.933594 189.527344 163.988281 187.5 162.90625 C 187.363281 162.769531 187.363281 162.769531 187.5 162.769531 C 190.339844 162.769531 193.175781 162.769531 195.882812 162.769531 C 197.773438 162.769531 198.992188 163.445312 199.800781 165.070312 C 199.800781 165.203125 199.800781 165.339844 199.667969 165.339844 C 197.910156 166.152344 195.476562 166.828125 193.71875 166.015625 Z M 212.375 165.476562 C 212.242188 165.476562 212.105469 165.339844 212.105469 165.203125 C 212.375 160.203125 207.644531 156.550781 202.914062 156.550781 C 197.367188 156.414062 191.824219 156.28125 186.417969 156.550781 C 186.28125 156.550781 186.28125 156.550781 186.28125 156.414062 L 186.28125 153.847656 C 186.28125 153.710938 186.417969 153.710938 186.417969 153.710938 C 195.207031 152.902344 204.667969 151.820312 213.1875 151.953125 C 219.949219 152.089844 218.597656 163.3125 218.597656 167.367188 C 218.597656 167.367188 218.460938 167.367188 218.460938 167.367188 C 216.566406 166.421875 214.539062 165.746094 212.375 165.476562 Z M 180.0625 183.863281 C 179.925781 180.753906 179.925781 177.644531 179.65625 173.722656 C 179.519531 172.234375 180.0625 171.152344 181.277344 170.476562 C 183.578125 169.261719 187.09375 171.289062 188.984375 172.503906 C 188.984375 172.503906 188.984375 172.640625 188.984375 172.640625 C 185.46875 175.886719 182.496094 179.671875 180.0625 183.863281 C 180.0625 183.996094 180.0625 183.996094 180.0625 183.863281 Z M 195.339844 229.96875 C 188.714844 229.96875 183.441406 221.179688 183.441406 210.363281 C 183.578125 199.546875 188.984375 190.894531 195.609375 191.027344 C 202.234375 191.027344 207.507812 199.816406 207.507812 210.632812 C 207.375 221.316406 201.964844 229.96875 195.339844 229.96875 Z M 211.160156 186.566406 C 208.996094 183.996094 209.265625 180.753906 209.132812 176.832031 C 209.132812 175.210938 209.671875 174.398438 211.429688 174.261719 C 214 174.128906 216.433594 174.535156 218.867188 175.613281 C 220.082031 176.15625 224.140625 177.777344 225.761719 179.535156 C 225.761719 179.671875 225.898438 179.671875 225.898438 179.804688 C 225.898438 181.023438 224.949219 181.023438 224.003906 180.617188 C 221.570312 179.535156 219.136719 178.183594 216.566406 177.507812 C 216.296875 177.507812 216.164062 177.644531 216.027344 177.777344 C 215.488281 178.859375 214.40625 190.351562 211.160156 186.566406 Z M 219.273438 180.886719 C 219.273438 180.753906 219.40625 180.753906 219.40625 180.753906 C 227.65625 183.996094 232.65625 187.511719 234.550781 196.976562 C 234.6875 197.382812 234.414062 197.652344 234.007812 197.789062 C 233.875 197.789062 233.738281 197.652344 233.46875 197.382812 C 230.496094 193.597656 227.113281 190.351562 223.191406 187.648438 C 223.058594 187.648438 222.921875 187.648438 222.921875 187.785156 C 221.570312 191.300781 219.8125 194.542969 217.515625 197.519531 C 216.839844 198.464844 214.675781 200.492188 214.269531 197.789062 C 214 196.03125 216.296875 191.976562 217.648438 189.40625 C 219.136719 186.703125 219.40625 183.863281 219.273438 180.886719 Z M 224.679688 235.648438 C 224.410156 237.269531 223.597656 238.621094 222.789062 238.484375 C 221.976562 238.351562 221.570312 236.863281 221.839844 235.242188 C 222.113281 233.484375 222.921875 232.265625 223.734375 232.402344 C 224.546875 232.402344 224.949219 233.890625 224.679688 235.648438 Z M 230.496094 228.34375 C 230.089844 229.832031 229.007812 229.5625 228.601562 228.34375 C 228.195312 226.859375 227.789062 225.371094 227.382812 223.75 C 227.382812 223.613281 227.382812 223.613281 227.25 223.75 C 223.464844 227.128906 219.542969 229.5625 214.945312 231.996094 C 214.40625 232.265625 213.863281 232.535156 213.324219 232.671875 C 212.648438 232.808594 212.375 232.671875 212.511719 231.996094 C 212.648438 229.96875 214.539062 228.34375 216.296875 227.535156 C 218.867188 226.316406 220.757812 225.101562 221.976562 224.019531 C 224.816406 221.71875 226.03125 219.152344 227.382812 216.042969 C 227.382812 216.042969 227.382812 215.90625 227.519531 215.90625 C 227.65625 215.769531 227.789062 215.769531 227.925781 215.90625 C 230.765625 219.285156 231.441406 224.289062 230.496094 228.34375 Z M 234.6875 212.257812 C 234.6875 212.390625 234.550781 212.390625 234.550781 212.527344 C 234.144531 212.660156 233.875 212.527344 233.605469 212.121094 C 231.847656 209.144531 230.496094 206.984375 229.546875 205.632812 C 229.007812 204.820312 228.332031 204.820312 227.65625 205.632812 C 225.085938 208.335938 219.542969 215.636719 215.488281 215.230469 C 214.945312 215.230469 214.808594 214.960938 215.082031 214.417969 C 218.867188 206.710938 225.492188 202.519531 226.574219 194.136719 C 226.574219 193.597656 226.84375 193.597656 227.25 193.867188 C 227.519531 194.136719 227.789062 194.542969 228.058594 194.8125 C 230.089844 198.195312 232.117188 201.84375 233.738281 205.359375 C 234.6875 207.523438 235.363281 209.957031 234.6875 212.257812 Z M 235.496094 177.507812 C 235.089844 170.746094 234.414062 163.988281 233.738281 157.09375 C 233.199219 151.953125 232.523438 148.03125 231.710938 145.195312 C 230.222656 140.054688 227.789062 138.570312 222.382812 138.433594 C 220.488281 138.433594 218.597656 138.433594 216.839844 138.433594 C 200.074219 139.246094 184.390625 140.328125 170.058594 141.542969 C 169.382812 141.542969 168.839844 141.542969 168.433594 141.542969 C 168.300781 141.542969 168.164062 141.40625 168.164062 141.40625 C 167.894531 140.730469 167.894531 140.191406 168.300781 139.515625 C 168.300781 139.378906 168.433594 139.378906 168.570312 139.378906 C 169.652344 139.246094 170.191406 139.109375 170.460938 139.109375 C 182.089844 138.027344 193.851562 137.214844 205.480469 136.675781 C 212.242188 136.40625 218.867188 136.136719 225.625 136.136719 C 233.332031 136.269531 234.957031 140.867188 235.765625 147.355469 C 236.171875 150.195312 236.441406 153.035156 236.578125 156.011719 C 237.121094 163.175781 237.523438 170.34375 237.929688 177.507812 C 237.929688 177.644531 237.796875 177.644531 237.796875 177.644531 L 235.632812 177.644531 C 235.496094 177.644531 235.496094 177.644531 235.496094 177.507812 Z M 247.664062 191.976562 C 244.554688 191.976562 241.039062 192.109375 238.472656 190.082031 C 236.578125 188.59375 235.765625 186.027344 236.847656 183.726562 C 238.472656 180.484375 242.664062 180.886719 245.773438 180.886719 C 257.941406 181.160156 270.109375 181.5625 282.414062 181.835938 C 282.546875 181.835938 282.546875 181.96875 282.546875 181.96875 C 282.546875 183.863281 282.546875 185.753906 282.277344 187.511719 C 282.007812 189.8125 279.84375 192.109375 277.410156 192.109375 C 267.539062 192.109375 257.671875 192.109375 247.664062 191.976562 Z M 279.710938 198.328125 C 279.710938 198.464844 279.710938 198.464844 279.710938 198.328125 C 278.085938 197.25 276.464844 196.570312 274.570312 196.167969 C 273.355469 195.894531 272.542969 195.625 271.597656 194.949219 C 270.921875 194.410156 271.054688 194.136719 271.867188 194.003906 C 273.085938 193.867188 274.164062 193.867188 275.246094 194.542969 C 276.871094 195.355469 278.898438 196.707031 279.710938 198.328125 Z M 284.304688 216.3125 C 282.277344 221.71875 277.140625 226.722656 270.921875 225.640625 C 263.621094 224.425781 259.699219 216.042969 259.699219 209.28125 C 259.699219 209.144531 259.699219 209.144531 259.835938 209.144531 C 261.050781 209.957031 262.132812 210.902344 263.078125 211.984375 C 265.78125 214.960938 266.054688 218.609375 270.378906 220.097656 C 270.515625 220.097656 270.515625 220.097656 270.378906 220.097656 C 269.433594 219.152344 268.894531 218.070312 268.757812 216.851562 C 268.757812 216.71875 268.757812 216.71875 268.894531 216.71875 C 275.789062 219.558594 282.277344 216.3125 282.683594 208.605469 C 282.953125 203.46875 282.414062 198.328125 279.167969 194.273438 C 279.167969 194.136719 279.167969 194.136719 279.167969 194.003906 C 281.871094 191.433594 284.578125 198.734375 284.980469 200.359375 C 286.738281 205.632812 286.46875 211.039062 284.304688 216.3125 Z M 289.714844 179.402344 C 289.714844 179.804688 289.851562 181.023438 289.714844 182.917969 C 289.714844 184.675781 288.226562 184.945312 287.550781 183.457031 C 286.605469 181.292969 286.199219 178.996094 286.199219 176.425781 C 286.199219 176.292969 286.335938 176.15625 286.46875 176.15625 C 287.144531 175.886719 287.820312 175.75 288.632812 175.75 C 292.824219 175.886719 297.828125 177.371094 300.667969 180.753906 C 300.800781 180.886719 300.800781 180.886719 300.800781 181.023438 C 300.800781 181.160156 300.667969 181.160156 300.667969 181.160156 C 297.285156 179.941406 294.445312 178.726562 290.796875 178.453125 C 289.984375 178.183594 289.714844 178.589844 289.714844 179.402344 Z M 293.230469 187.917969 C 293.90625 185.621094 294.042969 183.1875 293.90625 180.886719 C 293.90625 180.347656 294.042969 180.078125 294.582031 180.078125 C 294.851562 180.078125 295.257812 180.078125 295.800781 180.347656 C 301.476562 181.96875 306.074219 184.539062 307.96875 190.488281 C 308.101562 190.894531 308.238281 191.300781 308.238281 191.703125 C 308.238281 192.109375 308.101562 192.246094 307.832031 191.839844 C 305.804688 189.542969 303.371094 187.511719 300.667969 186.027344 C 300.53125 185.890625 300.261719 186.027344 300.125 186.027344 C 298.097656 187.917969 296.746094 190.082031 295.800781 192.785156 C 295.527344 193.734375 295.121094 194.542969 294.042969 194.410156 C 293.90625 194.410156 293.769531 194.273438 293.769531 194.273438 C 292.824219 192.109375 292.554688 190.082031 293.230469 187.917969 Z M 293.5 223.476562 C 293.230469 222.53125 295.121094 220.773438 295.664062 220.367188 C 299.042969 217.933594 302.964844 215.230469 305.128906 211.578125 C 305.804688 210.5 306.34375 209.011719 306.886719 207.792969 C 306.886719 207.660156 307.019531 207.660156 307.15625 207.660156 C 307.5625 207.792969 307.695312 207.929688 307.832031 208.066406 C 309.320312 212.933594 309.589844 218.203125 307.019531 222.9375 C 306.617188 223.613281 306.34375 223.613281 306.34375 222.800781 C 306.210938 221.042969 306.210938 219.152344 306.34375 217.125 C 306.34375 216.851562 306.34375 216.851562 306.074219 216.988281 C 304.992188 217.800781 294.042969 225.910156 293.5 223.476562 Z M 293.5 223.476562 " fill-opacity="1" fill-rule="nonzero"/></g><path fill="#007c84" d="M 255.371094 132.214844 C 255.101562 132.214844 254.964844 132.347656 254.964844 132.621094 L 254.964844 138.570312 C 254.964844 138.703125 255.101562 138.839844 255.238281 138.839844 L 264.703125 139.515625 C 265.105469 139.515625 265.378906 139.246094 265.378906 138.972656 L 265.648438 132.753906 C 265.648438 132.484375 265.511719 132.347656 265.242188 132.347656 C 261.996094 132.078125 258.753906 132.078125 255.371094 132.214844 Z M 255.371094 132.214844 " fill-opacity="1" fill-rule="nonzero"/><path fill="#007c84" d="M 269.570312 140.054688 L 276.328125 140.328125 C 276.597656 140.328125 276.734375 140.191406 276.734375 139.921875 L 277.003906 133.972656 C 277.003906 133.699219 276.871094 133.566406 276.597656 133.566406 L 269.839844 133.296875 C 269.570312 133.296875 269.433594 133.429688 269.433594 133.699219 L 269.164062 139.648438 C 269.164062 139.921875 269.296875 140.054688 269.570312 140.054688 Z M 269.570312 140.054688 " fill-opacity="1" fill-rule="nonzero"/><path fill="#007c84" d="M 264.835938 141.003906 C 262.269531 140.597656 259.699219 140.460938 257.128906 140.460938 C 256.589844 140.460938 256.046875 140.597656 255.644531 140.730469 C 255.507812 140.730469 255.507812 140.867188 255.507812 141.003906 L 255.644531 148.4375 C 255.644531 148.574219 255.777344 148.710938 255.914062 148.710938 L 264.703125 149.113281 C 264.835938 149.113281 264.835938 148.980469 264.835938 148.980469 L 265.105469 141.40625 C 264.972656 141.136719 264.972656 141.003906 264.835938 141.003906 Z M 264.835938 141.003906 " fill-opacity="1" fill-rule="nonzero"/><path fill="#007c84" d="M 269.164062 149.386719 L 275.652344 149.65625 C 275.921875 149.65625 276.058594 149.519531 276.058594 149.25 L 276.328125 142.355469 C 276.328125 142.082031 276.195312 141.949219 275.921875 141.949219 L 269.433594 141.679688 C 269.164062 141.679688 269.027344 141.8125 269.027344 142.082031 L 268.757812 148.980469 C 268.757812 149.25 268.894531 149.386719 269.164062 149.386719 Z M 269.164062 149.386719 " fill-opacity="1" fill-rule="nonzero"/><path fill="#007c84" d="M 264.160156 150.464844 C 261.457031 150.0625 258.753906 149.925781 255.914062 150.195312 C 255.777344 150.195312 255.777344 150.332031 255.777344 150.332031 L 255.914062 157.902344 C 255.914062 158.039062 256.046875 158.171875 256.183594 158.308594 C 258.753906 158.714844 261.320312 158.714844 264.027344 158.578125 C 264.160156 158.578125 264.296875 158.445312 264.296875 158.308594 L 264.429688 151.007812 C 264.566406 150.738281 264.429688 150.601562 264.160156 150.464844 Z M 264.160156 150.464844 " fill-opacity="1" fill-rule="nonzero"/><path fill="#007c84" d="M 268.351562 158.847656 C 270.378906 159.121094 272.679688 159.121094 274.84375 159.121094 C 275.113281 159.121094 275.519531 158.847656 275.519531 158.578125 L 275.789062 151.546875 C 275.789062 151.414062 275.652344 151.144531 275.382812 151.144531 C 273.21875 151.007812 271.054688 150.871094 269.027344 151.007812 C 268.757812 151.007812 268.488281 151.277344 268.488281 151.546875 L 268.082031 158.578125 C 268.21875 158.714844 268.21875 158.714844 268.351562 158.847656 Z M 268.351562 158.847656 " fill-opacity="1" fill-rule="nonzero"/><path fill="#007c84" d="M 263.753906 160.066406 C 261.320312 159.796875 258.753906 159.796875 256.183594 159.929688 C 256.046875 159.929688 256.046875 160.066406 256.046875 160.066406 C 256.046875 162.636719 256.183594 165.203125 256.453125 167.636719 C 256.453125 167.773438 256.589844 167.773438 256.589844 167.773438 C 258.886719 167.910156 261.050781 167.910156 263.214844 167.636719 C 263.484375 167.636719 263.753906 167.367188 263.753906 167.097656 L 264.023438 160.203125 C 264.027344 160.203125 263.890625 160.066406 263.753906 160.066406 Z M 263.753906 160.066406 " fill-opacity="1" fill-rule="nonzero"/><path fill="#007c84" d="M 267.945312 168.179688 C 270.246094 168.3125 272.542969 168.3125 274.570312 168.179688 C 274.84375 168.179688 274.976562 167.910156 274.976562 167.773438 C 275.113281 165.339844 275.246094 163.039062 275.113281 160.742188 C 275.113281 160.605469 274.976562 160.605469 274.976562 160.605469 C 272.8125 160.335938 270.515625 160.335938 268.351562 160.472656 C 268.214844 160.472656 268.082031 160.605469 268.082031 160.742188 L 267.675781 168.042969 C 267.675781 168.042969 267.8125 168.179688 267.945312 168.179688 Z M 267.945312 168.179688 " fill-opacity="1" fill-rule="nonzero"/><path fill="#007c84" d="M 263.078125 169.394531 C 261.050781 169.125 259.023438 169.125 256.859375 169.394531 C 256.722656 169.394531 256.722656 169.53125 256.722656 169.53125 L 257.128906 177.238281 C 257.128906 177.371094 257.265625 177.371094 257.265625 177.371094 L 262.945312 177.101562 C 263.078125 177.101562 263.347656 176.96875 263.347656 176.695312 L 263.621094 169.800781 C 263.484375 169.664062 263.347656 169.394531 263.078125 169.394531 Z M 263.078125 169.394531 " fill-opacity="1" fill-rule="nonzero"/><path fill="#007c84" d="M 198.449219 203.601562 C 195.746094 203.601562 193.71875 206.847656 193.71875 210.632812 C 193.71875 214.554688 195.882812 217.664062 198.585938 217.527344 C 201.289062 217.394531 203.316406 214.285156 203.316406 210.5 C 203.183594 206.710938 201.019531 203.601562 198.449219 203.601562 Z M 198.449219 203.601562 " fill-opacity="1" fill-rule="nonzero"/><g fill="#0a474b" fill-opacity="1"><g transform="translate(37.518799, 313.560611)"><g><path d="M 2.847656 -1.5625 L 2.003906 0 L 9.0625 0 L 9.34375 -0.519531 L 15.074219 -10.90625 L 11.546875 -17.242188 Z M 31.796875 -1.5625 L 20.570312 -21.8125 L 18.242188 -25.980469 L 18.003906 -26.542969 L 16.640625 -26.542969 L 16.359375 -25.980469 L 14.074219 -21.8125 L 13.792969 -21.289062 L 17.320312 -14.914062 L 17.402344 -14.753906 L 20.007812 -10.0625 L 25.300781 -0.519531 L 25.582031 0 L 32.636719 0 Z M 31.796875 -1.5625 "/></g></g></g><g fill="#0a474b" fill-opacity="1"><g transform="translate(72.279493, 313.560611)"><g><path d="M 12.308594 -16.878906 L 12.992188 -15.355469 L 14.59375 -11.867188 L 14.914062 -11.226562 L 21.449219 -11.226562 L 21.449219 -5.613281 L 14.355469 -5.613281 C 10.464844 -6.175781 7.539062 -9.421875 7.539062 -13.191406 C 7.539062 -17 10.464844 -20.25 14.355469 -20.808594 L 27.023438 -20.808594 L 27.023438 -26.421875 L 15.515625 -26.421875 C 11.910156 -26.421875 8.539062 -25.058594 6.015625 -22.613281 C 3.40625 -20.085938 2.003906 -16.761719 2.003906 -13.191406 C 2.003906 -9.621094 3.40625 -6.296875 6.015625 -3.808594 C 8.539062 -1.324219 11.910156 0 15.515625 0 L 27.105469 0 L 27.105469 -16.878906 Z M 12.308594 -16.878906 "/></g></g></g><g fill="#0a474b" fill-opacity="1"><g transform="translate(101.387065, 313.560611)"><g><path d="M 26.625 -1.605469 L 19.046875 -14.035156 C 19.085938 -14.035156 19.125 -14.074219 19.164062 -14.113281 L 19.207031 -14.152344 C 19.246094 -14.152344 19.285156 -14.195312 19.285156 -14.234375 C 19.367188 -14.273438 19.40625 -14.3125 19.484375 -14.355469 C 19.527344 -14.394531 19.605469 -14.472656 19.6875 -14.515625 C 19.6875 -14.554688 19.726562 -14.554688 19.726562 -14.554688 C 19.765625 -14.59375 19.847656 -14.675781 19.886719 -14.714844 C 20.046875 -14.875 20.207031 -14.996094 20.410156 -15.195312 C 22.210938 -17 23.496094 -19.246094 24.015625 -21.730469 C 24.257812 -22.695312 24.335938 -23.65625 24.335938 -24.617188 C 24.335938 -24.9375 24.335938 -25.261719 24.296875 -25.539062 L 24.257812 -26.542969 L 2.003906 -26.542969 L 2.003906 -20.929688 L 17.761719 -20.929688 C 17.402344 -20.289062 16.960938 -19.6875 16.4375 -19.207031 C 15.757812 -18.523438 14.996094 -18.003906 14.113281 -17.601562 C 14.074219 -17.601562 14.074219 -17.601562 14.035156 -17.5625 C 13.109375 -17.199219 12.109375 -17 11.105469 -17 L 2.003906 -17 L 2.003906 0 L 7.617188 0 L 7.617188 -11.347656 L 11.105469 -11.347656 C 11.1875 -11.347656 11.265625 -11.386719 11.347656 -11.386719 L 11.507812 -11.386719 C 11.585938 -11.386719 11.628906 -11.386719 11.707031 -11.386719 C 11.746094 -11.386719 11.789062 -11.386719 11.789062 -11.386719 C 11.867188 -11.386719 11.949219 -11.386719 12.027344 -11.386719 L 12.109375 -11.386719 L 12.148438 -11.425781 C 12.230469 -11.425781 12.308594 -11.425781 12.429688 -11.425781 C 12.507812 -11.425781 12.589844 -11.46875 12.710938 -11.46875 C 12.75 -11.46875 12.789062 -11.46875 12.832031 -11.46875 C 12.910156 -11.507812 12.992188 -11.507812 13.070312 -11.507812 C 13.109375 -11.507812 13.152344 -11.507812 13.191406 -11.546875 C 13.230469 -11.546875 13.3125 -11.546875 13.390625 -11.546875 C 13.550781 -11.585938 13.710938 -11.628906 13.871094 -11.667969 L 20.6875 -0.480469 L 21.011719 0 L 27.585938 0 Z M 26.625 -1.605469 "/></g></g></g><g fill="#0a474b" fill-opacity="1"><g transform="translate(131.015846, 313.560611)"><g><path d="M 2.003906 -26.503906 L 2.003906 0 L 7.617188 0 L 7.617188 -26.503906 Z M 2.003906 -26.503906 "/></g></g></g><g fill="#0a474b" fill-opacity="1"><g transform="translate(140.638185, 313.560611)"><g><path d="M 22.453125 -10.546875 L 22.171875 -9.945312 C 20.890625 -7.296875 18.203125 -5.613281 15.277344 -5.613281 C 11.667969 -5.613281 8.5 -8.179688 7.777344 -11.707031 C 7.65625 -12.1875 7.617188 -12.75 7.617188 -13.273438 C 7.617188 -13.792969 7.65625 -14.273438 7.777344 -14.796875 C 8.460938 -18.363281 11.628906 -20.929688 15.277344 -20.929688 C 18.363281 -20.929688 21.128906 -19.085938 22.332031 -16.277344 L 22.613281 -15.636719 L 28.425781 -15.636719 L 28.027344 -16.960938 C 27.265625 -19.6875 25.582031 -22.132812 23.335938 -23.855469 C 21.011719 -25.621094 18.203125 -26.542969 15.277344 -26.542969 C 12.070312 -26.542969 8.941406 -25.378906 6.535156 -23.253906 C 4.128906 -21.171875 2.566406 -18.285156 2.125 -15.15625 C 2.042969 -14.515625 2.003906 -13.914062 2.003906 -13.273438 C 2.003906 -12.628906 2.042969 -11.949219 2.125 -11.308594 C 2.566406 -8.179688 4.167969 -5.332031 6.535156 -3.246094 C 8.980469 -1.121094 12.070312 0 15.277344 0 C 18.125 0 20.847656 -0.882812 23.175781 -2.566406 C 25.421875 -4.25 27.0625 -6.496094 27.90625 -9.140625 L 28.347656 -10.546875 Z M 22.453125 -10.546875 "/></g></g></g><g fill="#0a474b" fill-opacity="1"><g transform="translate(171.108919, 313.560611)"><g><path d="M 20.207031 -26.460938 L 20.207031 -11.949219 C 20.207031 -8.539062 17.480469 -5.695312 14.152344 -5.613281 C 14.074219 -5.613281 13.992188 -5.613281 13.914062 -5.613281 C 13.832031 -5.613281 13.753906 -5.613281 13.671875 -5.613281 C 10.34375 -5.695312 7.617188 -8.582031 7.617188 -11.949219 L 7.617188 -26.460938 L 2.003906 -26.460938 L 2.003906 -9.945312 C 2.003906 -7.777344 2.765625 -5.773438 4.167969 -4.25 C 4.730469 -3.648438 5.292969 -3.128906 5.933594 -2.644531 C 8.21875 -0.921875 10.984375 0 13.914062 0 C 16.839844 0 19.566406 -0.921875 21.890625 -2.644531 C 22.535156 -3.128906 23.09375 -3.648438 23.617188 -4.210938 C 25.058594 -5.734375 25.820312 -7.777344 25.820312 -9.902344 L 25.820312 -26.460938 Z M 20.207031 -26.460938 "/></g></g></g><g fill="#0a474b" fill-opacity="1"><g transform="translate(198.973598, 313.560611)"><g><path d="M 7.617188 -5.613281 L 7.617188 -26.664062 L 2.003906 -26.664062 L 2.003906 0 L 23.054688 0 L 23.054688 -5.613281 Z M 7.617188 -5.613281 "/></g></g></g><g fill="#0a474b" fill-opacity="1"><g transform="translate(224.071873, 313.560611)"><g><path d="M 16.519531 0 L 16.519531 -16.921875 L 10.90625 -16.921875 L 10.90625 0 Z M 2.003906 -26.460938 L 2.003906 -20.847656 L 25.863281 -20.847656 L 25.863281 -26.460938 Z M 2.003906 -26.460938 "/></g></g></g><g fill="#0a474b" fill-opacity="1"><g transform="translate(251.936561, 313.560611)"><g><path d="M 20.207031 -26.460938 L 20.207031 -11.949219 C 20.207031 -8.539062 17.480469 -5.695312 14.152344 -5.613281 C 14.074219 -5.613281 13.992188 -5.613281 13.914062 -5.613281 C 13.832031 -5.613281 13.753906 -5.613281 13.671875 -5.613281 C 10.34375 -5.695312 7.617188 -8.582031 7.617188 -11.949219 L 7.617188 -26.460938 L 2.003906 -26.460938 L 2.003906 -9.945312 C 2.003906 -7.777344 2.765625 -5.773438 4.167969 -4.25 C 4.730469 -3.648438 5.292969 -3.128906 5.933594 -2.644531 C 8.21875 -0.921875 10.984375 0 13.914062 0 C 16.839844 0 19.566406 -0.921875 21.890625 -2.644531 C 22.535156 -3.128906 23.09375 -3.648438 23.617188 -4.210938 C 25.058594 -5.734375 25.820312 -7.777344 25.820312 -9.902344 L 25.820312 -26.460938 Z M 20.207031 -26.460938 "/></g></g></g><g fill="#0a474b" fill-opacity="1"><g transform="translate(279.801249, 313.560611)"><g><path d="M 26.625 -1.605469 L 19.046875 -14.035156 C 19.085938 -14.035156 19.125 -14.074219 19.164062 -14.113281 L 19.207031 -14.152344 C 19.246094 -14.152344 19.285156 -14.195312 19.285156 -14.234375 C 19.367188 -14.273438 19.40625 -14.3125 19.484375 -14.355469 C 19.527344 -14.394531 19.605469 -14.472656 19.6875 -14.515625 C 19.6875 -14.554688 19.726562 -14.554688 19.726562 -14.554688 C 19.765625 -14.59375 19.847656 -14.675781 19.886719 -14.714844 C 20.046875 -14.875 20.207031 -14.996094 20.410156 -15.195312 C 22.210938 -17 23.496094 -19.246094 24.015625 -21.730469 C 24.257812 -22.695312 24.335938 -23.65625 24.335938 -24.617188 C 24.335938 -24.9375 24.335938 -25.261719 24.296875 -25.539062 L 24.257812 -26.542969 L 2.003906 -26.542969 L 2.003906 -20.929688 L 17.761719 -20.929688 C 17.402344 -20.289062 16.960938 -19.6875 16.4375 -19.207031 C 15.757812 -18.523438 14.996094 -18.003906 14.113281 -17.601562 C 14.074219 -17.601562 14.074219 -17.601562 14.035156 -17.5625 C 13.109375 -17.199219 12.109375 -17 11.105469 -17 L 2.003906 -17 L 2.003906 0 L 7.617188 0 L 7.617188 -11.347656 L 11.105469 -11.347656 C 11.1875 -11.347656 11.265625 -11.386719 11.347656 -11.386719 L 11.507812 -11.386719 C 11.585938 -11.386719 11.628906 -11.386719 11.707031 -11.386719 C 11.746094 -11.386719 11.789062 -11.386719 11.789062 -11.386719 C 11.867188 -11.386719 11.949219 -11.386719 12.027344 -11.386719 L 12.109375 -11.386719 L 12.148438 -11.425781 C 12.230469 -11.425781 12.308594 -11.425781 12.429688 -11.425781 C 12.507812 -11.425781 12.589844 -11.46875 12.710938 -11.46875 C 12.75 -11.46875 12.789062 -11.46875 12.832031 -11.46875 C 12.910156 -11.507812 12.992188 -11.507812 13.070312 -11.507812 C 13.109375 -11.507812 13.152344 -11.507812 13.191406 -11.546875 C 13.230469 -11.546875 13.3125 -11.546875 13.390625 -11.546875 C 13.550781 -11.585938 13.710938 -11.628906 13.871094 -11.667969 L 20.6875 -0.480469 L 21.011719 0 L 27.585938 0 Z M 26.625 -1.605469 "/></g></g></g><g fill="#0a474b" fill-opacity="1"><g transform="translate(309.430021, 313.560611)"><g><path d="M 2.003906 -26.460938 L 2.003906 -20.847656 L 25.660156 -20.847656 L 25.660156 -26.460938 Z M 7.617188 -11.308594 L 23.296875 -11.308594 L 23.296875 -16.921875 L 7.617188 -16.921875 L 2.003906 -16.960938 L 2.003906 0 L 25.660156 0 L 25.660156 -5.613281 L 7.617188 -5.613281 Z M 7.617188 -11.308594 "/></g></g></g></svg>