<svg xmlns="http://www.w3.org/2000/svg" xmlns:xlink="http://www.w3.org/1999/xlink" width="500" zoomAndPan="magnify" viewBox="0 0 375 374.999991" height="500" preserveAspectRatio="xMidYMid meet" version="1.0"><defs><g/><clipPath id="dde79afc5c"><path d="M 54.292969 72.226562 L 320.542969 72.226562 L 320.542969 247.726562 L 54.292969 247.726562 Z M 54.292969 72.226562 " clip-rule="nonzero"/></clipPath></defs><rect x="-37.5" width="450" fill="#ffffff" y="-37.499999" height="449.999989" fill-opacity="1"/><rect x="-37.5" width="450" fill="#ffffff" y="-37.499999" height="449.999989" fill-opacity="1"/><g clip-path="url(#dde79afc5c)"><path fill="#007c84" d="M 305.574219 232.367188 L 305.574219 101.777344 L 252.265625 117.171875 L 252.265625 101.777344 L 198.960938 117.171875 L 198.960938 135.152344 L 171.550781 135.152344 L 169.242188 72.269531 L 147.167969 72.269531 L 144.855469 135.148438 L 123.523438 135.148438 L 121.210938 72.269531 L 99.136719 72.269531 L 96.832031 135.148438 L 69.425781 135.148438 L 69.425781 232.367188 L 54.292969 232.367188 L 54.292969 248.015625 L 320.695312 248.015625 L 320.695312 232.367188 Z M 269.097656 141.648438 L 286.320312 141.648438 L 286.320312 168.570312 L 269.097656 168.570312 Z M 269.097656 177.425781 L 286.320312 177.425781 L 286.320312 204.351562 L 269.097656 204.351562 Z M 243.65625 141.648438 L 260.886719 141.648438 L 260.886719 168.570312 L 243.664062 168.570312 Z M 243.65625 177.425781 L 260.886719 177.425781 L 260.886719 204.351562 L 243.664062 204.351562 Z M 218.210938 141.648438 L 235.433594 141.648438 L 235.433594 168.570312 L 218.210938 168.570312 Z M 218.210938 177.425781 L 235.433594 177.425781 L 235.433594 204.351562 L 218.210938 204.351562 Z M 172.183594 152.320312 L 182.886719 152.320312 L 182.886719 173.058594 L 162.144531 173.058594 L 162.144531 152.320312 Z M 144.230469 152.320312 L 144.5625 152.320312 L 144.5625 173.058594 L 123.824219 173.058594 L 123.824219 152.320312 Z M 85.5 152.320312 L 106.238281 152.320312 L 106.238281 173.058594 L 85.5 173.058594 Z M 85.5 152.320312 " fill-opacity="1" fill-rule="nonzero"/></g><g fill="#0a474b" fill-opacity="1"><g transform="translate(30.967968, 322.999959)"><g><path d="M 2.5 -33.046875 L 2.5 0 L 9.5 0 L 9.5 -33.046875 Z M 2.5 -33.046875 "/></g></g></g><g fill="#0a474b" fill-opacity="1"><g transform="translate(42.966113, 322.999959)"><g><path d="M 2.5 0 L 9.5 0 L 9.5 -11.148438 L 2.5 -18.148438 Z M 22.246094 -33.046875 L 22.246094 -15.25 L 4.199219 -33.246094 L 2.5 -33.246094 L 2.5 -25.046875 L 27.546875 0 L 29.246094 0 L 29.246094 -33.046875 Z M 22.246094 -33.046875 "/></g></g></g><g fill="#0a474b" fill-opacity="1"><g transform="translate(74.711197, 322.999959)"><g><path d="M 32.296875 -18.75 C 31.746094 -22.648438 29.847656 -26.246094 26.898438 -28.847656 C 24.199219 -31.246094 20.746094 -32.695312 17.199219 -32.945312 L 2.5 -32.996094 L 2.5 -25.996094 L 16.347656 -25.996094 C 16.847656 -25.949219 17.347656 -25.898438 17.796875 -25.796875 C 19.199219 -25.496094 20.496094 -24.898438 21.648438 -24.046875 C 23.546875 -22.648438 24.796875 -20.597656 25.296875 -18.296875 C 25.398438 -17.699219 25.449219 -17.046875 25.449219 -16.449219 C 25.449219 -15.75 25.398438 -15.097656 25.246094 -14.449219 C 24.449219 -10.597656 21.296875 -7.597656 17.398438 -7 L 9.5 -7 L 9.5 -21.097656 L 2.5 -21.097656 L 2.5 0 L 17.949219 0 C 25.296875 -0.898438 31.246094 -6.648438 32.296875 -14 C 32.398438 -14.796875 32.496094 -15.597656 32.496094 -16.449219 C 32.496094 -17.199219 32.445312 -18 32.296875 -18.75 Z M 32.296875 -18.75 "/></g></g></g><g fill="#0a474b" fill-opacity="1"><g transform="translate(109.705774, 322.999959)"><g><path d="M 25.199219 -32.996094 L 25.199219 -14.898438 C 25.199219 -10.648438 21.796875 -7.097656 17.648438 -7 C 17.546875 -7 17.449219 -7 17.347656 -7 C 17.25 -7 17.148438 -7 17.046875 -7 C 12.898438 -7.097656 9.5 -10.699219 9.5 -14.898438 L 9.5 -32.996094 L 2.5 -32.996094 L 2.5 -12.398438 C 2.5 -9.699219 3.449219 -7.199219 5.199219 -5.300781 C 5.898438 -4.550781 6.597656 -3.898438 7.398438 -3.300781 C 10.25 -1.148438 13.699219 0 17.347656 0 C 20.996094 0 24.398438 -1.148438 27.296875 -3.300781 C 28.097656 -3.898438 28.796875 -4.550781 29.445312 -5.25 C 31.246094 -7.148438 32.195312 -9.699219 32.195312 -12.347656 L 32.195312 -32.996094 Z M 25.199219 -32.996094 "/></g></g></g><g fill="#0a474b" fill-opacity="1"><g transform="translate(144.45039, 322.999959)"><g><path d="M 21.996094 -19.996094 L 12.5 -19.996094 C 10.847656 -19.996094 9.5 -21.347656 9.5 -22.996094 C 9.5 -24.648438 10.847656 -25.996094 12.5 -25.996094 L 23.449219 -25.996094 C 24.546875 -25.648438 25.296875 -24.648438 25.296875 -23.449219 L 32.148438 -23.449219 C 32.148438 -24.347656 32.046875 -25.199219 31.796875 -25.996094 C 30.695312 -30.046875 26.996094 -32.996094 22.597656 -32.996094 L 12.5 -32.996094 C 8.898438 -32.996094 5.550781 -31.097656 3.800781 -27.945312 C 2.949219 -26.449219 2.5 -24.746094 2.5 -22.996094 C 2.5 -21.246094 2.949219 -19.546875 3.800781 -18.046875 C 4.199219 -17.347656 4.648438 -16.75 5.148438 -16.199219 C 7.050781 -14.199219 9.699219 -13 12.5 -13 L 21.996094 -13 C 23.648438 -13 24.949219 -11.648438 24.949219 -10 C 24.949219 -8.347656 23.648438 -7 21.996094 -7 L 11.148438 -7 C 10.097656 -7.347656 9.347656 -8.347656 9.347656 -9.550781 L 2.5 -9.550781 C 2.5 -8.648438 2.601562 -7.800781 2.800781 -7 C 3.949219 -2.949219 7.648438 0 12.046875 0 L 21.996094 0 C 25.546875 0 28.898438 -1.898438 30.648438 -5 C 31.546875 -6.550781 31.996094 -8.25 31.996094 -10 C 31.996094 -11.75 31.546875 -13.449219 30.648438 -14.949219 C 28.898438 -18.046875 25.546875 -19.996094 21.996094 -19.996094 Z M 21.996094 -19.996094 "/></g></g></g><g fill="#0a474b" fill-opacity="1"><g transform="translate(179.145017, 322.999959)"><g><path d="M 20.597656 0 L 20.597656 -21.097656 L 13.597656 -21.097656 L 13.597656 0 Z M 2.5 -32.996094 L 2.5 -25.996094 L 32.246094 -25.996094 L 32.246094 -32.996094 Z M 2.5 -32.996094 "/></g></g></g><g fill="#0a474b" fill-opacity="1"><g transform="translate(213.889632, 322.999959)"><g><path d="M 33.195312 -2 L 23.746094 -17.5 C 23.796875 -17.5 23.847656 -17.546875 23.898438 -17.597656 L 23.949219 -17.648438 C 23.996094 -17.648438 24.046875 -17.699219 24.046875 -17.75 C 24.148438 -17.796875 24.199219 -17.847656 24.296875 -17.898438 C 24.347656 -17.949219 24.449219 -18.046875 24.546875 -18.097656 C 24.546875 -18.148438 24.597656 -18.148438 24.597656 -18.148438 C 24.648438 -18.199219 24.746094 -18.296875 24.796875 -18.347656 C 24.996094 -18.546875 25.199219 -18.699219 25.449219 -18.949219 C 27.695312 -21.199219 29.296875 -23.996094 29.945312 -27.097656 C 30.246094 -28.296875 30.347656 -29.496094 30.347656 -30.695312 C 30.347656 -31.097656 30.347656 -31.496094 30.296875 -31.847656 L 30.246094 -33.097656 L 2.5 -33.097656 L 2.5 -26.097656 L 22.148438 -26.097656 C 21.699219 -25.296875 21.148438 -24.546875 20.496094 -23.949219 C 19.648438 -23.097656 18.699219 -22.449219 17.597656 -21.949219 C 17.546875 -21.949219 17.546875 -21.949219 17.5 -21.898438 C 16.347656 -21.449219 15.097656 -21.199219 13.847656 -21.199219 L 2.5 -21.199219 L 2.5 0 L 9.5 0 L 9.5 -14.148438 L 13.847656 -14.148438 C 13.949219 -14.148438 14.046875 -14.199219 14.148438 -14.199219 L 14.347656 -14.199219 C 14.449219 -14.199219 14.5 -14.199219 14.597656 -14.199219 C 14.648438 -14.199219 14.699219 -14.199219 14.699219 -14.199219 C 14.796875 -14.199219 14.898438 -14.199219 15 -14.199219 L 15.097656 -14.199219 L 15.148438 -14.25 C 15.25 -14.25 15.347656 -14.25 15.5 -14.25 C 15.597656 -14.25 15.699219 -14.296875 15.847656 -14.296875 C 15.898438 -14.296875 15.949219 -14.296875 16 -14.296875 C 16.097656 -14.347656 16.199219 -14.347656 16.296875 -14.347656 C 16.347656 -14.347656 16.398438 -14.347656 16.449219 -14.398438 C 16.5 -14.398438 16.597656 -14.398438 16.699219 -14.398438 C 16.898438 -14.449219 17.097656 -14.5 17.296875 -14.546875 L 25.796875 -0.601562 L 26.199219 0 L 34.398438 0 Z M 33.195312 -2 "/></g></g></g><g fill="#0a474b" fill-opacity="1"><g transform="translate(250.833905, 322.999959)"><g><path d="M 2.5 -33.046875 L 2.5 0 L 9.5 0 L 9.5 -33.046875 Z M 2.5 -33.046875 "/></g></g></g><g fill="#0a474b" fill-opacity="1"><g transform="translate(262.83205, 322.999959)"><g><path d="M 3.550781 -1.949219 L 2.5 0 L 11.300781 0 L 11.648438 -0.648438 L 18.796875 -13.597656 L 14.398438 -21.496094 Z M 39.644531 -1.949219 L 25.648438 -27.199219 L 22.746094 -32.398438 L 22.449219 -33.097656 L 20.746094 -33.097656 L 20.398438 -32.398438 L 17.546875 -27.199219 L 17.199219 -26.546875 L 21.597656 -18.597656 L 21.699219 -18.398438 L 24.949219 -12.546875 L 31.546875 -0.648438 L 31.898438 0 L 40.695312 0 Z M 39.644531 -1.949219 "/></g></g></g><g fill="#0a474b" fill-opacity="1"><g transform="translate(306.175332, 322.999959)"><g><path d="M 9.5 -7 L 9.5 -33.246094 L 2.5 -33.246094 L 2.5 0 L 28.746094 0 L 28.746094 -7 Z M 9.5 -7 "/></g></g></g></svg>