<svg xmlns="http://www.w3.org/2000/svg" xmlns:xlink="http://www.w3.org/1999/xlink" width="500" zoomAndPan="magnify" viewBox="0 0 375 374.999991" height="500" preserveAspectRatio="xMidYMid meet" version="1.0"><defs><g/><clipPath id="38f1145026"><path d="M 71.113281 240 L 303.613281 240 L 303.613281 258 L 71.113281 258 Z M 71.113281 240 " clip-rule="nonzero"/></clipPath></defs><rect x="-37.5" width="450" fill="#ffffff" y="-37.499999" height="449.999989" fill-opacity="1"/><rect x="-37.5" width="450" fill="#ffffff" y="-37.499999" height="449.999989" fill-opacity="1"/><g clip-path="url(#38f1145026)"><path fill="#007c84" d="M 300.6875 253.917969 L 74.152344 253.917969 L 74.152344 249.914062 C 74.152344 246.1875 77.183594 243.160156 80.902344 243.160156 L 293.9375 243.160156 C 297.660156 243.160156 300.6875 246.1875 300.6875 249.914062 Z M 293.9375 240.082031 L 80.902344 240.082031 C 75.484375 240.082031 71.070312 244.488281 71.070312 249.914062 L 71.070312 257.003906 L 303.773438 257.003906 L 303.773438 249.914062 C 303.773438 244.488281 299.359375 240.082031 293.9375 240.082031 " fill-opacity="1" fill-rule="nonzero"/></g><path fill="#007c84" d="M 234.097656 88.941406 L 225.660156 90.527344 L 225.660156 73.367188 L 234.097656 71.394531 Z M 237.183594 67.503906 L 222.582031 70.921875 L 222.582031 94.242188 L 237.183594 91.503906 L 237.183594 67.503906 " fill-opacity="1" fill-rule="nonzero"/><path fill="#007c84" d="M 228.070312 117.648438 L 225.558594 117.972656 L 225.5625 108.988281 C 225.574219 106.296875 225.582031 103.605469 225.53125 100.921875 C 225.53125 100.859375 225.53125 100.808594 225.53125 100.765625 C 225.558594 100.761719 225.585938 100.753906 225.617188 100.753906 C 227.734375 100.460938 229.859375 100.082031 231.921875 99.707031 C 232.6875 99.566406 233.453125 99.429688 234.226562 99.296875 L 234.226562 104.140625 C 234.21875 108.394531 234.21875 112.644531 234.246094 116.890625 C 232.183594 117.113281 230.125 117.375 228.070312 117.648438 Z M 237.304688 104.140625 L 237.304688 98.746094 C 237.304688 98.457031 237.285156 98.167969 237.261719 97.878906 L 237.132812 96.113281 L 235.375 96.101562 C 235.078125 96.089844 234.746094 96.078125 234.378906 96.136719 C 233.375 96.308594 232.375 96.492188 231.371094 96.671875 C 229.347656 97.039062 227.25 97.417969 225.195312 97.703125 C 222.398438 98.089844 222.4375 100.265625 222.449219 100.976562 C 222.496094 103.644531 222.492188 106.308594 222.484375 108.976562 L 222.472656 121.289062 L 224.644531 121.148438 C 225 121.128906 225.300781 121.109375 225.59375 121.074219 L 228.46875 120.707031 C 230.558594 120.429688 232.652344 120.160156 234.746094 119.941406 C 236.46875 119.761719 237.339844 118.773438 237.328125 117.015625 C 237.304688 112.722656 237.304688 108.429688 237.304688 104.140625 " fill-opacity="1" fill-rule="nonzero"/><path fill="#007c84" d="M 234.128906 144.839844 L 225.644531 145.367188 L 225.644531 128.199219 L 234.128906 127.273438 Z M 237.210938 123.839844 L 222.558594 125.425781 L 222.558594 148.640625 L 237.210938 147.738281 L 237.210938 123.839844 " fill-opacity="1" fill-rule="nonzero"/><path fill="#007c84" d="M 234.109375 172.679688 L 225.648438 172.679688 L 225.648438 155.566406 L 234.109375 155.1875 Z M 237.195312 151.964844 L 222.570312 152.625 L 222.570312 175.765625 L 237.195312 175.765625 L 237.195312 151.964844 " fill-opacity="1" fill-rule="nonzero"/><path fill="#007c84" d="M 208.542969 93.714844 L 208.542969 77.351562 L 216.261719 75.539062 L 216.261719 80.238281 C 216.261719 84.257812 216.261719 88.265625 216.28125 92.28125 C 214.023438 92.660156 211.78125 93.097656 209.476562 93.539062 Z M 216.984375 95.285156 C 218.574219 95.023438 219.375 94.046875 219.363281 92.390625 C 219.339844 88.34375 219.347656 84.292969 219.347656 80.238281 L 219.347656 74.851562 C 219.347656 74.550781 219.316406 74.242188 219.285156 73.90625 L 219.101562 71.707031 L 205.464844 74.914062 L 205.464844 97.4375 L 210.050781 96.566406 C 212.398438 96.113281 214.6875 95.671875 216.984375 95.285156 " fill-opacity="1" fill-rule="nonzero"/><path fill="#007c84" d="M 209.511719 119.957031 L 208.574219 120.082031 L 208.574219 103.699219 L 216.261719 102.375 L 216.261719 107.101562 C 216.257812 111.109375 216.257812 115.121094 216.285156 119.128906 C 214.023438 119.363281 211.730469 119.664062 209.511719 119.957031 Z M 219.347656 107.101562 L 219.347656 101.804688 C 219.347656 101.496094 219.316406 101.191406 219.285156 100.859375 L 219.113281 98.757812 L 205.496094 101.097656 L 205.496094 123.582031 L 209.917969 123.011719 C 212.246094 122.703125 214.449219 122.417969 216.691406 122.191406 C 218.480469 122.011719 219.382812 121.011719 219.371094 119.214844 C 219.339844 115.183594 219.339844 111.140625 219.347656 107.101562 " fill-opacity="1" fill-rule="nonzero"/><path fill="#007c84" d="M 216.242188 145.921875 C 213.835938 146.113281 211.425781 146.261719 208.976562 146.40625 L 208.5 146.4375 C 208.5 140.964844 208.492188 135.480469 208.5 130.007812 C 210.394531 129.816406 212.289062 129.621094 214.175781 129.417969 L 216.269531 129.203125 L 216.269531 138.804688 C 216.273438 141.179688 216.273438 143.550781 216.242188 145.921875 Z M 219.351562 138.804688 L 219.347656 126.292969 L 217.851562 126.058594 C 217.667969 126.027344 217.421875 125.980469 217.125 126.007812 L 213.851562 126.351562 C 211.753906 126.578125 209.660156 126.792969 207.554688 127.003906 C 206.722656 127.082031 205.335938 127.53125 205.417969 129.632812 L 205.417969 129.792969 C 205.417969 135.519531 205.417969 141.246094 205.417969 146.976562 C 205.421875 147.21875 205.433594 147.457031 205.453125 147.738281 L 205.5625 149.710938 L 209.167969 149.484375 C 211.902344 149.320312 214.601562 149.15625 217.285156 148.933594 C 218.617188 148.824219 219.304688 147.234375 219.320312 146.378906 C 219.359375 143.851562 219.351562 141.324219 219.351562 138.804688 " fill-opacity="1" fill-rule="nonzero"/><path fill="#007c84" d="M 216.175781 172.699219 L 208.597656 172.699219 L 208.597656 156.363281 L 216.175781 156.007812 Z M 219.253906 152.777344 L 205.519531 153.429688 L 205.519531 175.777344 L 219.253906 175.777344 L 219.253906 152.777344 " fill-opacity="1" fill-rule="nonzero"/><path fill="#007c84" d="M 225.539062 184.949219 L 234 184.570312 L 234 202.0625 L 225.539062 202.0625 Z M 222.453125 205.140625 L 237.078125 205.140625 L 237.078125 181.34375 L 222.453125 182 L 222.453125 205.140625 " fill-opacity="1" fill-rule="nonzero"/><path fill="#007c84" d="M 208.488281 185.746094 L 216.066406 185.382812 L 216.066406 202.074219 L 208.488281 202.074219 Z M 205.410156 205.15625 L 219.144531 205.15625 L 219.144531 182.152344 L 205.410156 182.808594 L 205.410156 205.15625 " fill-opacity="1" fill-rule="nonzero"/><path fill="#007c84" d="M 130.804688 108.230469 C 133.300781 107.683594 135.785156 107.089844 138.324219 106.480469 L 139.371094 106.238281 L 139.371094 123.789062 L 130.789062 125.390625 L 130.789062 121 C 130.792969 116.746094 130.792969 112.492188 130.761719 108.242188 C 130.773438 108.234375 130.789062 108.234375 130.804688 108.230469 Z M 127.738281 126.835938 L 127.851562 129.074219 L 142.449219 126.347656 L 142.449219 102.332031 L 137.605469 103.484375 C 135.089844 104.089844 132.625 104.679688 130.148438 105.21875 C 128.476562 105.585938 127.667969 106.578125 127.679688 108.265625 C 127.714844 112.507812 127.710938 116.757812 127.710938 121 L 127.703125 125.917969 C 127.710938 126.210938 127.722656 126.507812 127.738281 126.835938 " fill-opacity="1" fill-rule="nonzero"/><path fill="#007c84" d="M 137.390625 162.355469 L 139.339844 162.132812 L 139.339844 179.71875 L 130.789062 180.277344 L 130.789062 175.078125 C 130.789062 171.074219 130.792969 167.0625 130.769531 163.058594 C 132.980469 162.863281 135.183594 162.613281 137.390625 162.355469 Z M 127.757812 181.632812 L 127.898438 183.550781 L 142.425781 182.605469 L 142.425781 158.957031 L 140.628906 158.953125 C 140.371094 158.941406 140.148438 158.945312 139.929688 158.964844 L 137.042969 159.296875 C 134.785156 159.554688 132.535156 159.8125 130.277344 160.007812 C 128.550781 160.152344 127.679688 161.136719 127.691406 162.925781 C 127.710938 166.976562 127.710938 171.03125 127.710938 175.078125 L 127.710938 180.695312 C 127.710938 181 127.734375 181.3125 127.757812 181.632812 " fill-opacity="1" fill-rule="nonzero"/><path fill="#007c84" d="M 133.386719 152.515625 C 132.515625 152.632812 131.652344 152.746094 130.789062 152.859375 L 130.792969 140.953125 C 130.800781 139.183594 130.804688 137.417969 130.769531 135.660156 C 132.859375 135.328125 134.949219 134.960938 137.027344 134.585938 C 137.824219 134.445312 138.621094 134.304688 139.421875 134.171875 L 139.421875 138.332031 C 139.414062 142.808594 139.40625 147.289062 139.4375 151.773438 C 137.414062 151.976562 135.398438 152.246094 133.386719 152.515625 Z M 142.496094 138.332031 L 142.503906 130.792969 L 140.417969 130.933594 C 140.089844 130.953125 139.820312 130.96875 139.5625 131.019531 C 138.535156 131.191406 137.511719 131.375 136.488281 131.558594 C 134.363281 131.933594 132.234375 132.3125 130.101562 132.644531 C 128.46875 132.894531 127.652344 133.875 127.683594 135.5625 C 127.722656 137.359375 127.714844 139.148438 127.710938 140.9375 L 127.703125 156.132812 L 129.863281 156.015625 C 130.261719 156.003906 130.597656 155.984375 130.933594 155.949219 C 131.882812 155.824219 132.835938 155.695312 133.792969 155.566406 C 135.800781 155.296875 137.8125 155.035156 139.835938 154.832031 C 141.632812 154.648438 142.535156 153.65625 142.523438 151.878906 C 142.492188 147.363281 142.496094 142.847656 142.496094 138.332031 " fill-opacity="1" fill-rule="nonzero"/><path fill="#007c84" d="M 138.011719 190.167969 L 139.359375 190.109375 L 139.359375 207.546875 L 130.789062 207.546875 L 130.789062 202.851562 C 130.792969 198.714844 130.792969 194.570312 130.769531 190.425781 C 133.160156 190.363281 135.558594 190.265625 138.011719 190.167969 Z M 127.746094 208.824219 L 127.855469 210.632812 L 142.441406 210.632812 L 142.441406 186.898438 L 137.882812 187.082031 C 135.378906 187.191406 132.9375 187.289062 130.492188 187.347656 C 129.199219 187.375 127.667969 187.910156 127.683594 190.277344 C 127.714844 194.46875 127.710938 198.65625 127.710938 202.851562 L 127.710938 207.917969 C 127.710938 208.222656 127.726562 208.523438 127.746094 208.824219 " fill-opacity="1" fill-rule="nonzero"/><path fill="#007c84" d="M 114.679688 128.429688 L 113.839844 128.589844 L 113.839844 112.214844 L 121.457031 110.425781 L 121.457031 115.027344 C 121.457031 119.082031 121.449219 123.132812 121.472656 127.1875 C 119.21875 127.574219 116.960938 128.003906 114.679688 128.429688 Z M 124.558594 127.253906 C 124.535156 123.183594 124.535156 119.105469 124.539062 115.027344 L 124.535156 109.730469 C 124.535156 109.457031 124.515625 109.179688 124.492188 108.84375 L 124.324219 106.574219 L 110.757812 109.78125 L 110.757812 132.304688 L 115.257812 131.460938 C 117.59375 131.019531 119.90625 130.578125 122.214844 130.183594 C 123.773438 129.921875 124.5625 128.933594 124.558594 127.253906 " fill-opacity="1" fill-rule="nonzero"/><path fill="#007c84" d="M 114.90625 181.246094 L 113.839844 181.3125 L 113.839844 164.917969 L 121.457031 164.078125 L 121.457031 168.742188 C 121.449219 172.789062 121.449219 176.835938 121.480469 180.878906 C 119.296875 180.96875 117.113281 181.109375 114.90625 181.246094 Z M 124.535156 168.742188 L 124.535156 163.605469 C 124.535156 163.324219 124.515625 163.042969 124.484375 162.710938 L 124.332031 160.664062 L 110.761719 162.160156 L 110.761719 184.59375 L 115.105469 184.324219 C 117.347656 184.183594 119.5625 184.042969 121.773438 183.949219 C 123.054688 183.898438 124.578125 183.347656 124.558594 181.011719 C 124.535156 176.921875 124.535156 172.832031 124.535156 168.742188 " fill-opacity="1" fill-rule="nonzero"/><path fill="#007c84" d="M 113.828125 138.566406 L 121.457031 137.261719 L 121.457031 142.449219 C 121.449219 146.296875 121.449219 150.152344 121.472656 154.003906 C 119.230469 154.226562 116.957031 154.53125 114.761719 154.828125 L 113.828125 154.949219 Z M 110.75 158.457031 L 115.164062 157.878906 C 117.484375 157.574219 119.671875 157.277344 121.902344 157.058594 C 123.675781 156.886719 124.570312 155.878906 124.558594 154.070312 C 124.535156 150.195312 124.535156 146.320312 124.535156 142.449219 L 124.535156 136.789062 C 124.535156 136.449219 124.503906 136.121094 124.464844 135.757812 L 124.289062 133.648438 L 110.75 135.964844 L 110.75 158.457031 " fill-opacity="1" fill-rule="nonzero"/><path fill="#007c84" d="M 113.847656 191.269531 L 121.359375 190.914062 L 121.359375 207.578125 L 113.847656 207.578125 Z M 110.761719 210.664062 L 124.441406 210.664062 L 124.441406 187.675781 L 110.761719 188.332031 L 110.761719 210.664062 " fill-opacity="1" fill-rule="nonzero"/><path fill="#007c84" d="M 104.105469 103.875 C 104.140625 138.363281 104.136719 172.839844 104.136719 207.328125 L 104.136719 233.453125 L 83.601562 233.453125 L 83.601562 232.234375 C 83.601562 229.117188 86.140625 226.578125 89.261719 226.578125 L 97.140625 226.578125 L 97.144531 202.3125 C 97.144531 168.589844 97.144531 134.882812 97.113281 101.183594 C 97.128906 99.566406 97.121094 97.953125 97.113281 96.347656 C 97.113281 96.046875 97.132812 95.898438 97.121094 95.867188 C 97.167969 95.84375 97.285156 95.796875 97.496094 95.738281 C 99.335938 95.25 101.15625 94.753906 102.988281 94.25 L 104.90625 93.730469 L 104.875 87.933594 L 104.871094 87.933594 C 104.871094 87.207031 104.871094 86.339844 104.863281 85.652344 L 110.46875 84.3125 L 112.511719 85.070312 C 112.523438 86.609375 112.527344 88.136719 112.535156 89.675781 L 112.539062 91.6875 L 117 90.484375 C 118.566406 90.054688 120.136719 89.640625 121.707031 89.203125 L 122.835938 88.890625 L 122.816406 80.640625 L 128.421875 79.300781 L 130.449219 80.050781 C 130.449219 81.523438 130.460938 83.011719 130.472656 84.582031 L 130.5 86.808594 L 132.410156 86.304688 C 134.820312 85.660156 137.226562 85.011719 139.632812 84.34375 L 140.769531 84.03125 L 140.746094 75.574219 L 145.902344 74.335938 C 146.035156 74.316406 146.183594 74.285156 146.347656 74.25 L 148.378906 75.003906 C 148.382812 76.476562 148.390625 77.933594 148.402344 79.386719 L 148.410156 79.386719 C 148.402344 79.554688 148.402344 79.730469 148.410156 79.945312 L 148.414062 81.945312 L 150.347656 81.421875 C 152.773438 80.773438 155.21875 80.105469 157.648438 79.441406 C 158.09375 79.3125 158.316406 79.3125 159.039062 79.796875 C 160.039062 80.453125 161.039062 81.109375 162.039062 81.761719 L 164.570312 83.402344 C 165.34375 83.90625 166.109375 84.421875 166.875 84.9375 L 183.300781 95.824219 C 183.808594 96.164062 183.851562 96.292969 183.851562 96.808594 C 183.820312 130.46875 183.820312 164.128906 183.828125 197.792969 L 183.828125 226.421875 L 191.394531 226.421875 L 191.394531 188.402344 C 191.398438 153.558594 191.398438 118.714844 191.382812 83.863281 L 191.371094 63.410156 C 191.371094 63.109375 191.386719 62.960938 191.375 62.9375 C 191.425781 62.90625 191.535156 62.863281 191.75 62.804688 C 193.59375 62.320312 195.429688 61.828125 197.269531 61.324219 L 199.164062 60.816406 L 199.148438 52.742188 L 204.761719 51.417969 L 206.796875 52.179688 C 206.808594 53.714844 206.808594 55.25 206.808594 56.789062 L 206.808594 58.792969 L 211.253906 57.609375 C 212.828125 57.191406 214.40625 56.769531 215.980469 56.339844 L 217.113281 56.027344 L 217.113281 47.78125 L 222.722656 46.457031 L 224.746094 47.21875 C 224.746094 48.683594 224.753906 50.148438 224.761719 51.601562 L 224.773438 53.972656 L 226.691406 53.472656 C 229.101562 52.839844 231.511719 52.191406 233.921875 51.535156 L 235.054688 51.222656 L 235.054688 42.765625 L 238.535156 41.945312 L 238.535156 41.964844 L 240.671875 41.460938 L 242.695312 42.21875 C 242.695312 43.6875 242.699219 45.152344 242.707031 46.605469 L 242.710938 49.15625 L 244.644531 48.644531 C 247.070312 48.003906 249.519531 47.339844 251.953125 46.683594 C 252.578125 46.519531 252.910156 46.566406 253.441406 46.921875 C 254.710938 47.769531 255.992188 48.601562 257.269531 49.4375 L 260.847656 51.785156 C 266.46875 55.488281 272.09375 59.191406 277.738281 62.863281 C 278.050781 63.066406 278.089844 63.109375 278.089844 63.558594 C 278.066406 117.4375 278.066406 171.320312 278.066406 225.1875 L 278.066406 226.726562 L 285.574219 226.726562 C 288.691406 226.726562 291.226562 229.265625 291.226562 232.378906 L 291.226562 233.488281 L 244.527344 233.570312 L 244.527344 55.960938 L 240.027344 57.132812 C 238.449219 57.542969 236.925781 57.933594 235.398438 58.351562 L 227.457031 60.480469 C 218.550781 62.875 209.640625 65.269531 200.714844 67.628906 C 199.714844 67.890625 198.382812 68.488281 198.382812 70.566406 C 198.414062 121.964844 198.414062 173.347656 198.414062 224.726562 C 198.414062 225.003906 198.425781 225.28125 198.449219 225.640625 L 198.550781 227.414062 L 201.113281 227.414062 C 204.226562 227.414062 206.765625 229.945312 206.765625 233.066406 L 206.765625 234.296875 L 150.246094 234.296875 L 150.246094 88.8125 L 140.71875 91.355469 C 129.40625 94.390625 118.09375 97.425781 106.765625 100.410156 C 104.925781 100.902344 104.105469 101.976562 104.105469 103.875 Z M 107.21875 207.328125 C 107.21875 172.839844 107.21875 138.359375 107.1875 103.875 C 107.1875 103.667969 107.199219 103.550781 107.195312 103.515625 C 107.25 103.488281 107.359375 103.441406 107.554688 103.386719 C 118.886719 100.40625 130.203125 97.371094 141.523438 94.335938 L 147.164062 92.828125 L 147.164062 237.375 L 209.847656 237.375 L 209.847656 233.066406 C 209.847656 228.375 206.132812 224.539062 201.492188 224.335938 C 201.492188 173.101562 201.492188 121.863281 201.46875 70.613281 C 201.480469 70.613281 201.492188 70.609375 201.503906 70.609375 C 210.429688 68.246094 219.347656 65.851562 228.261719 63.460938 L 236.199219 61.324219 C 237.714844 60.914062 239.234375 60.523438 240.800781 60.117188 L 241.441406 59.945312 L 241.441406 236.652344 L 279.605469 236.652344 L 294.304688 236.550781 L 294.304688 232.378906 C 294.304688 227.566406 290.386719 223.644531 285.574219 223.644531 L 281.148438 223.644531 C 281.148438 170.289062 281.148438 116.921875 281.171875 63.558594 C 281.171875 62.074219 280.628906 61.0625 279.414062 60.277344 C 273.777344 56.609375 268.164062 52.914062 262.546875 49.214844 L 258.953125 46.863281 C 257.683594 46.027344 256.410156 45.195312 255.144531 44.359375 C 253.882812 43.507812 252.644531 43.304688 251.148438 43.710938 C 249.363281 44.195312 247.566406 44.679688 245.785156 45.15625 C 245.777344 43.820312 245.777344 42.492188 245.777344 41.152344 L 245.773438 40.199219 L 244.746094 39.695312 C 244.632812 39.644531 244.460938 39.585938 244.324219 39.542969 L 241.4375 38.457031 L 241.4375 38.09375 L 231.976562 40.324219 L 231.976562 48.867188 C 230.597656 49.242188 229.21875 49.613281 227.832031 49.984375 C 227.832031 48.707031 227.832031 47.433594 227.832031 46.152344 C 227.832031 44.984375 226.796875 44.667969 226.378906 44.539062 L 222.925781 43.238281 L 214.03125 45.355469 L 214.03125 53.671875 C 212.839844 54 211.652344 54.3125 210.460938 54.628906 L 209.886719 54.785156 C 209.886719 53.570312 209.886719 52.363281 209.875 51.148438 L 209.859375 49.621094 L 208.765625 49.621094 C 208.628906 49.566406 208.511719 49.527344 208.421875 49.5 L 204.960938 48.199219 L 196.066406 50.3125 L 196.078125 58.457031 C 194.375 58.914062 192.675781 59.375 190.964844 59.824219 C 188.605469 60.453125 188.285156 61.988281 188.285156 63.410156 L 188.296875 83.863281 C 188.316406 118.714844 188.316406 153.558594 188.308594 188.402344 L 188.308594 223.335938 L 186.90625 223.335938 L 186.90625 197.792969 C 186.90625 164.132812 186.898438 130.472656 186.9375 96.808594 C 186.9375 95.230469 186.335938 94.132812 184.992188 93.25 L 168.597656 82.378906 C 167.820312 81.859375 167.039062 81.332031 166.257812 80.816406 L 163.71875 79.171875 C 162.71875 78.523438 161.726562 77.875 160.738281 77.230469 C 159.734375 76.554688 158.5625 75.996094 156.839844 76.46875 C 155.054688 76.953125 153.265625 77.445312 151.472656 77.929688 C 151.46875 76.832031 151.460938 75.722656 151.457031 74.613281 L 151.363281 72.863281 L 150.425781 72.472656 C 150.308594 72.421875 150.132812 72.355469 150.003906 72.320312 L 146.542969 71.03125 L 146.085938 71.140625 C 146.085938 71.140625 146.03125 71.152344 145.949219 71.179688 L 145.929688 71.160156 L 137.652344 73.140625 L 137.679688 81.679688 C 136.300781 82.0625 134.917969 82.441406 133.539062 82.808594 C 133.535156 81.535156 133.527344 80.257812 133.527344 78.984375 C 133.527344 77.8125 132.484375 77.492188 132.074219 77.371094 L 128.609375 76.082031 L 119.726562 78.222656 L 119.75 86.542969 C 118.566406 86.867188 117.378906 87.1875 116.195312 87.503906 L 115.605469 87.664062 C 115.605469 86.445312 115.59375 85.230469 115.574219 84 C 115.574219 82.828125 114.535156 82.507812 114.121094 82.386719 L 110.664062 81.097656 L 101.773438 83.230469 L 101.785156 86.964844 C 101.792969 88.070312 101.800781 88.878906 101.855469 89.480469 L 101.804688 89.480469 L 101.8125 91.378906 C 100.105469 91.847656 98.410156 92.304688 96.699219 92.761719 C 94.34375 93.390625 94.03125 94.9375 94.03125 96.359375 C 94.042969 97.960938 94.050781 99.554688 94.035156 101.171875 C 94.0625 134.882812 94.0625 168.589844 94.0625 202.3125 L 94.0625 223.496094 L 89.261719 223.496094 C 84.441406 223.496094 80.523438 227.417969 80.523438 232.234375 L 80.523438 236.53125 L 107.210938 236.53125 L 107.21875 207.328125 " fill-opacity="1" fill-rule="nonzero"/><g fill="#0a474b" fill-opacity="1"><g transform="translate(16.689849, 322.999901)"><g><path d="M 27.996094 -13.148438 L 27.648438 -12.398438 C 26.046875 -9.097656 22.699219 -7 19.046875 -7 C 14.546875 -7 10.597656 -10.199219 9.699219 -14.597656 C 9.550781 -15.199219 9.5 -15.898438 9.5 -16.546875 C 9.5 -17.199219 9.550781 -17.796875 9.699219 -18.449219 C 10.550781 -22.898438 14.5 -26.097656 19.046875 -26.097656 C 22.898438 -26.097656 26.347656 -23.796875 27.847656 -20.296875 L 28.195312 -19.5 L 35.445312 -19.5 L 34.945312 -21.148438 C 33.996094 -24.546875 31.898438 -27.597656 29.097656 -29.746094 C 26.199219 -31.945312 22.699219 -33.097656 19.046875 -33.097656 C 15.046875 -33.097656 11.148438 -31.648438 8.148438 -28.996094 C 5.148438 -26.398438 3.199219 -22.796875 2.648438 -18.898438 C 2.550781 -18.097656 2.5 -17.347656 2.5 -16.546875 C 2.5 -15.75 2.550781 -14.898438 2.648438 -14.097656 C 3.199219 -10.199219 5.199219 -6.648438 8.148438 -4.050781 C 11.199219 -1.398438 15.046875 0 19.046875 0 C 22.597656 0 25.996094 -1.101562 28.898438 -3.199219 C 31.695312 -5.300781 33.746094 -8.097656 34.796875 -11.398438 L 35.347656 -13.148438 Z M 27.996094 -13.148438 "/></g></g></g><g fill="#0a474b" fill-opacity="1"><g transform="translate(54.683968, 322.999901)"><g><path d="M 18.949219 -32.898438 C 9.847656 -32.898438 2.5 -25.496094 2.5 -16.449219 C 2.5 -7.347656 9.847656 0 18.949219 0 C 27.996094 0 35.394531 -7.347656 35.394531 -16.449219 C 35.394531 -25.496094 27.996094 -32.898438 18.949219 -32.898438 Z M 28.496094 -16.449219 C 28.496094 -11.148438 24.199219 -6.847656 18.949219 -6.847656 C 13.648438 -6.847656 9.347656 -11.148438 9.347656 -16.449219 C 9.347656 -21.699219 13.648438 -25.996094 18.949219 -25.996094 C 24.199219 -25.996094 28.496094 -21.699219 28.496094 -16.449219 Z M 28.496094 -16.449219 "/></g></g></g><g fill="#0a474b" fill-opacity="1"><g transform="translate(92.628088, 322.999901)"><g><path d="M 2.5 0 L 9.5 0 L 9.5 -11.148438 L 2.5 -18.148438 Z M 30.695312 -33.246094 L 17.449219 -19.996094 L 4.199219 -33.246094 L 2.5 -33.246094 L 2.5 -25.046875 L 17.449219 -10.097656 L 18.398438 -11 L 19.648438 -12.296875 L 20.046875 -12.699219 L 21.496094 -14.097656 L 25.199219 -17.847656 L 25.199219 0 L 32.195312 0 L 32.195312 -33.246094 Z M 30.695312 -33.246094 "/></g></g></g><g fill="#0a474b" fill-opacity="1"><g transform="translate(127.422702, 322.999901)"><g><path d="M 2.5 0 L 9.5 0 L 9.5 -11.148438 L 2.5 -18.148438 Z M 30.695312 -33.246094 L 17.449219 -19.996094 L 4.199219 -33.246094 L 2.5 -33.246094 L 2.5 -25.046875 L 17.449219 -10.097656 L 18.398438 -11 L 19.648438 -12.296875 L 20.046875 -12.699219 L 21.496094 -14.097656 L 25.199219 -17.847656 L 25.199219 0 L 32.195312 0 L 32.195312 -33.246094 Z M 30.695312 -33.246094 "/></g></g></g><g fill="#0a474b" fill-opacity="1"><g transform="translate(162.217316, 322.999901)"><g><path d="M 2.5 -32.996094 L 2.5 -25.996094 L 31.996094 -25.996094 L 31.996094 -32.996094 Z M 9.5 -14.097656 L 29.046875 -14.097656 L 29.046875 -21.097656 L 9.5 -21.097656 L 2.5 -21.148438 L 2.5 0 L 31.996094 0 L 31.996094 -7 L 9.5 -7 Z M 9.5 -14.097656 "/></g></g></g><g fill="#0a474b" fill-opacity="1"><g transform="translate(196.711981, 322.999901)"><g><path d="M 33.195312 -2 L 23.746094 -17.5 C 23.796875 -17.5 23.847656 -17.546875 23.898438 -17.597656 L 23.949219 -17.648438 C 23.996094 -17.648438 24.046875 -17.699219 24.046875 -17.75 C 24.148438 -17.796875 24.199219 -17.847656 24.296875 -17.898438 C 24.347656 -17.949219 24.449219 -18.046875 24.546875 -18.097656 C 24.546875 -18.148438 24.597656 -18.148438 24.597656 -18.148438 C 24.648438 -18.199219 24.746094 -18.296875 24.796875 -18.347656 C 24.996094 -18.546875 25.199219 -18.699219 25.449219 -18.949219 C 27.695312 -21.199219 29.296875 -23.996094 29.945312 -27.097656 C 30.246094 -28.296875 30.347656 -29.496094 30.347656 -30.695312 C 30.347656 -31.097656 30.347656 -31.496094 30.296875 -31.847656 L 30.246094 -33.097656 L 2.5 -33.097656 L 2.5 -26.097656 L 22.148438 -26.097656 C 21.699219 -25.296875 21.148438 -24.546875 20.496094 -23.949219 C 19.648438 -23.097656 18.699219 -22.449219 17.597656 -21.949219 C 17.546875 -21.949219 17.546875 -21.949219 17.5 -21.898438 C 16.347656 -21.449219 15.097656 -21.199219 13.847656 -21.199219 L 2.5 -21.199219 L 2.5 0 L 9.5 0 L 9.5 -14.148438 L 13.847656 -14.148438 C 13.949219 -14.148438 14.046875 -14.199219 14.148438 -14.199219 L 14.347656 -14.199219 C 14.449219 -14.199219 14.5 -14.199219 14.597656 -14.199219 C 14.648438 -14.199219 14.699219 -14.199219 14.699219 -14.199219 C 14.796875 -14.199219 14.898438 -14.199219 15 -14.199219 L 15.097656 -14.199219 L 15.148438 -14.25 C 15.25 -14.25 15.347656 -14.25 15.5 -14.25 C 15.597656 -14.25 15.699219 -14.296875 15.847656 -14.296875 C 15.898438 -14.296875 15.949219 -14.296875 16 -14.296875 C 16.097656 -14.347656 16.199219 -14.347656 16.296875 -14.347656 C 16.347656 -14.347656 16.398438 -14.347656 16.449219 -14.398438 C 16.5 -14.398438 16.597656 -14.398438 16.699219 -14.398438 C 16.898438 -14.449219 17.097656 -14.5 17.296875 -14.546875 L 25.796875 -0.601562 L 26.199219 0 L 34.398438 0 Z M 33.195312 -2 "/></g></g></g><g fill="#0a474b" fill-opacity="1"><g transform="translate(233.656264, 322.999901)"><g><path d="M 27.996094 -13.148438 L 27.648438 -12.398438 C 26.046875 -9.097656 22.699219 -7 19.046875 -7 C 14.546875 -7 10.597656 -10.199219 9.699219 -14.597656 C 9.550781 -15.199219 9.5 -15.898438 9.5 -16.546875 C 9.5 -17.199219 9.550781 -17.796875 9.699219 -18.449219 C 10.550781 -22.898438 14.5 -26.097656 19.046875 -26.097656 C 22.898438 -26.097656 26.347656 -23.796875 27.847656 -20.296875 L 28.195312 -19.5 L 35.445312 -19.5 L 34.945312 -21.148438 C 33.996094 -24.546875 31.898438 -27.597656 29.097656 -29.746094 C 26.199219 -31.945312 22.699219 -33.097656 19.046875 -33.097656 C 15.046875 -33.097656 11.148438 -31.648438 8.148438 -28.996094 C 5.148438 -26.398438 3.199219 -22.796875 2.648438 -18.898438 C 2.550781 -18.097656 2.5 -17.347656 2.5 -16.546875 C 2.5 -15.75 2.550781 -14.898438 2.648438 -14.097656 C 3.199219 -10.199219 5.199219 -6.648438 8.148438 -4.050781 C 11.199219 -1.398438 15.046875 0 19.046875 0 C 22.597656 0 25.996094 -1.101562 28.898438 -3.199219 C 31.695312 -5.300781 33.746094 -8.097656 34.796875 -11.398438 L 35.347656 -13.148438 Z M 27.996094 -13.148438 "/></g></g></g><g fill="#0a474b" fill-opacity="1"><g transform="translate(271.650372, 322.999901)"><g><path d="M 2.5 -33.046875 L 2.5 0 L 9.5 0 L 9.5 -33.046875 Z M 2.5 -33.046875 "/></g></g></g><g fill="#0a474b" fill-opacity="1"><g transform="translate(283.648517, 322.999901)"><g><path d="M 3.550781 -1.949219 L 2.5 0 L 11.300781 0 L 11.648438 -0.648438 L 18.796875 -13.597656 L 14.398438 -21.496094 Z M 39.644531 -1.949219 L 25.648438 -27.199219 L 22.746094 -32.398438 L 22.449219 -33.097656 L 20.746094 -33.097656 L 20.398438 -32.398438 L 17.546875 -27.199219 L 17.199219 -26.546875 L 21.597656 -18.597656 L 21.699219 -18.398438 L 24.949219 -12.546875 L 31.546875 -0.648438 L 31.898438 0 L 40.695312 0 Z M 39.644531 -1.949219 "/></g></g></g><g fill="#0a474b" fill-opacity="1"><g transform="translate(326.991799, 322.999901)"><g><path d="M 9.5 -7 L 9.5 -33.246094 L 2.5 -33.246094 L 2.5 0 L 28.746094 0 L 28.746094 -7 Z M 9.5 -7 "/></g></g></g></svg>