<svg xmlns="http://www.w3.org/2000/svg" xmlns:xlink="http://www.w3.org/1999/xlink" width="500" zoomAndPan="magnify" viewBox="0 0 375 374.999991" height="500" preserveAspectRatio="xMidYMid meet" version="1.0"><defs><g/><clipPath id="7b520b2632"><path d="M 74.304688 38.421875 L 288.804688 38.421875 L 288.804688 246.5 L 74.304688 246.5 Z M 74.304688 38.421875 " clip-rule="nonzero"/></clipPath></defs><rect x="-37.5" width="450" fill="#ffffff" y="-37.499999" height="449.999989" fill-opacity="1"/><rect x="-37.5" width="450" fill="#ffffff" y="-37.499999" height="449.999989" fill-opacity="1"/><path fill="#007c84" d="M 134.003906 93.921875 L 136.058594 79.539062 L 152.246094 79.539062 L 151.230469 93.921875 Z M 138.523438 62.207031 L 153.5 62.207031 L 152.460938 76.570312 L 136.488281 76.570312 Z M 155.230469 79.539062 L 171.4375 79.539062 L 171.4375 93.921875 L 154.195312 93.921875 Z M 156.464844 62.207031 L 171.4375 62.207031 L 171.4375 76.570312 L 155.445312 76.570312 Z M 174.421875 79.539062 L 192.253906 79.539062 L 192.253906 93.921875 L 174.421875 93.921875 Z M 174.421875 62.207031 L 192.253906 62.207031 L 192.253906 76.570312 L 174.421875 76.570312 Z M 195.222656 79.539062 L 211.445312 79.539062 L 212.464844 93.921875 L 195.222656 93.921875 Z M 195.222656 62.207031 L 210.210938 62.207031 L 211.230469 76.570312 L 195.222656 76.570312 Z M 228.132812 62.207031 L 230.1875 76.570312 L 214.214844 76.570312 L 213.179688 62.207031 Z M 232.671875 93.921875 L 215.449219 93.921875 L 214.410156 79.539062 L 230.617188 79.539062 Z M 150.640625 102.25 C 150.566406 103.050781 151.191406 103.765625 151.996094 103.820312 C 152.03125 103.820312 152.085938 103.839844 152.121094 103.839844 C 152.890625 103.839844 153.535156 103.230469 153.585938 102.445312 L 153.980469 96.886719 L 171.4375 96.886719 L 171.4375 102.339844 C 171.4375 103.160156 172.117188 103.839844 172.921875 103.839844 C 173.742188 103.839844 174.421875 103.160156 174.421875 102.339844 L 174.421875 96.886719 L 192.253906 96.886719 L 192.253906 102.339844 C 192.253906 103.160156 192.914062 103.839844 193.738281 103.839844 C 194.558594 103.839844 195.222656 103.160156 195.222656 102.339844 L 195.222656 96.886719 L 212.679688 96.886719 L 213.070312 102.445312 C 213.125 103.230469 213.785156 103.839844 214.554688 103.839844 C 214.589844 103.839844 214.625 103.820312 214.660156 103.820312 C 215.484375 103.765625 216.089844 103.050781 216.039062 102.25 L 215.664062 96.886719 L 233.101562 96.886719 L 233.90625 102.550781 C 234.011719 103.304688 234.636719 103.839844 235.371094 103.839844 C 235.441406 103.839844 235.515625 103.820312 235.585938 103.820312 C 236.390625 103.695312 236.960938 102.945312 236.835938 102.140625 L 236.105469 96.886719 L 238.835938 96.886719 C 239.660156 96.886719 240.320312 96.226562 240.320312 95.40625 C 240.320312 94.582031 239.660156 93.921875 238.835938 93.921875 L 235.675781 93.921875 L 233.621094 79.539062 L 235.371094 79.539062 C 236.191406 79.539062 236.855469 78.875 236.855469 78.054688 C 236.855469 77.234375 236.191406 76.570312 235.371094 76.570312 L 233.191406 76.570312 L 231.136719 62.207031 L 233.636719 62.207031 C 234.460938 62.207031 235.121094 61.542969 235.121094 60.722656 C 235.121094 59.902344 234.460938 59.238281 233.636719 59.238281 L 230.726562 59.238281 L 229.902344 53.574219 C 229.796875 52.753906 229.046875 52.179688 228.222656 52.304688 C 227.417969 52.429688 226.847656 53.183594 226.972656 53.984375 L 227.707031 59.238281 L 212.964844 59.238281 L 212.570312 53.664062 C 212.515625 52.859375 211.820312 52.253906 210.980469 52.289062 C 210.160156 52.359375 209.550781 53.058594 209.605469 53.878906 L 209.996094 59.238281 L 195.222656 59.238281 L 195.222656 53.773438 C 195.222656 52.949219 194.558594 52.289062 193.738281 52.289062 C 192.914062 52.289062 192.253906 52.949219 192.253906 53.773438 L 192.253906 59.238281 L 174.421875 59.238281 L 174.421875 53.773438 C 174.421875 52.949219 173.742188 52.289062 172.921875 52.289062 C 172.117188 52.289062 171.4375 52.949219 171.4375 53.773438 L 171.4375 59.238281 L 156.679688 59.238281 L 157.070312 53.878906 C 157.125 53.058594 156.5 52.359375 155.679688 52.289062 C 154.820312 52.253906 154.160156 52.859375 154.105469 53.664062 L 153.695312 59.238281 L 138.953125 59.238281 L 139.703125 53.984375 C 139.828125 53.183594 139.257812 52.429688 138.453125 52.304688 C 137.632812 52.199219 136.878906 52.753906 136.773438 53.574219 L 135.953125 59.238281 L 133.039062 59.238281 C 132.21875 59.238281 131.554688 59.902344 131.554688 60.722656 C 131.554688 61.542969 132.21875 62.207031 133.039062 62.207031 L 135.539062 62.207031 L 133.484375 76.570312 L 131.304688 76.570312 C 130.484375 76.570312 129.824219 77.234375 129.824219 78.054688 C 129.824219 78.875 130.484375 79.539062 131.304688 79.539062 L 133.054688 79.539062 L 131 93.921875 L 127.820312 93.921875 C 127.015625 93.921875 126.339844 94.582031 126.339844 95.40625 C 126.339844 96.226562 127.015625 96.886719 127.820312 96.886719 L 130.574219 96.886719 L 129.824219 102.140625 C 129.714844 102.945312 130.269531 103.695312 131.089844 103.820312 C 131.164062 103.820312 131.234375 103.839844 131.304688 103.839844 C 132.019531 103.839844 132.664062 103.304688 132.769531 102.550781 L 133.574219 96.886719 L 151.015625 96.886719 L 150.640625 102.25 " fill-opacity="1" fill-rule="nonzero"/><path fill="#007c84" d="M 106.648438 173.542969 C 106.378906 173.078125 105.898438 172.773438 105.359375 172.773438 L 94.191406 172.648438 L 103.574219 157.855469 C 104.003906 157.160156 103.804688 156.246094 103.109375 155.800781 C 102.414062 155.371094 101.5 155.566406 101.054688 156.265625 L 90.261719 173.3125 C 89.976562 173.757812 89.957031 174.328125 90.207031 174.8125 C 90.476562 175.277344 90.957031 175.582031 91.496094 175.582031 L 102.664062 175.707031 L 93.28125 190.5 C 92.851562 191.199219 93.050781 192.109375 93.746094 192.554688 C 93.996094 192.699219 94.265625 192.789062 94.550781 192.789062 C 95.03125 192.789062 95.515625 192.539062 95.800781 192.089844 L 106.59375 175.0625 C 106.878906 174.597656 106.898438 174.027344 106.648438 173.542969 " fill-opacity="1" fill-rule="nonzero"/><g clip-path="url(#7b520b2632)"><path fill="#007c84" d="M 280.472656 181.085938 L 267.710938 181.085938 C 267.945312 180.511719 268.089844 179.867188 268.089844 179.207031 L 268.089844 165.234375 C 268.089844 164.753906 267.855469 164.289062 267.445312 164.019531 C 249.058594 151.066406 238.121094 143.453125 231.582031 138.96875 L 265.65625 138.96875 L 285.097656 181.085938 Z M 278.988281 243.535156 L 264.605469 243.535156 L 264.605469 184.066406 L 278.988281 184.066406 Z M 264.03125 180.976562 C 263.90625 181.03125 263.800781 181.066406 263.675781 181.085938 C 263.496094 181.136719 263.316406 181.171875 263.121094 181.171875 C 262.941406 181.171875 262.761719 181.136719 262.585938 181.085938 C 262.351562 181.03125 262.121094 180.921875 261.921875 180.78125 L 261.636719 180.582031 L 222.34375 153.601562 C 221.828125 153.246094 221.164062 153.246094 220.648438 153.601562 L 181.355469 180.582031 L 181.050781 180.796875 C 180.855469 180.941406 180.640625 181.03125 180.445312 181.085938 C 180.246094 181.15625 180.070312 181.171875 179.871094 181.171875 C 179.675781 181.171875 179.496094 181.136719 179.316406 181.085938 C 179.210938 181.066406 179.085938 181.03125 178.976562 180.976562 C 178.726562 180.851562 178.550781 180.691406 178.390625 180.496094 C 178.066406 180.15625 177.886719 179.707031 177.886719 179.207031 L 177.886719 166.003906 C 190.609375 157.050781 207.941406 144.9375 216.664062 138.96875 C 217.46875 138.414062 218.199219 137.914062 218.84375 137.484375 C 219.503906 137.039062 220.074219 136.644531 220.558594 136.324219 C 220.59375 136.304688 220.613281 136.289062 220.648438 136.269531 C 220.789062 136.179688 220.933594 136.074219 221.078125 135.984375 C 221.21875 135.894531 221.378906 135.789062 221.503906 135.714844 C 221.628906 135.789062 221.773438 135.894531 221.933594 135.984375 C 222.058594 136.074219 222.203125 136.179688 222.34375 136.269531 C 222.378906 136.289062 222.417969 136.304688 222.453125 136.324219 C 222.917969 136.644531 223.488281 137.039062 224.148438 137.484375 C 224.792969 137.914062 225.527344 138.414062 226.328125 138.96875 C 235.066406 144.9375 252.398438 157.050781 265.121094 166.003906 L 265.121094 179.207031 C 265.121094 179.707031 264.925781 180.136719 264.605469 180.496094 C 264.441406 180.691406 264.265625 180.851562 264.03125 180.976562 Z M 261.636719 184.066406 L 261.636719 243.535156 L 233.386719 243.535156 L 233.386719 213.800781 C 233.386719 212.980469 232.726562 212.316406 231.90625 212.316406 L 211.089844 212.316406 C 210.265625 212.316406 209.605469 212.980469 209.605469 213.800781 L 209.605469 243.535156 L 181.355469 243.535156 L 181.355469 183.925781 C 181.855469 183.78125 182.320312 183.53125 182.765625 183.226562 L 183.695312 182.585938 L 185.859375 181.085938 L 221.503906 156.621094 L 257.136719 181.085938 L 259.296875 182.585938 L 260.207031 183.191406 C 260.636719 183.515625 261.136719 183.765625 261.636719 183.925781 Z M 230.421875 243.535156 L 212.570312 243.535156 L 212.570312 215.285156 L 230.421875 215.285156 Z M 178.390625 243.535156 L 164.003906 243.535156 L 164.003906 184.066406 L 178.390625 184.066406 Z M 154.589844 181.085938 L 177.28125 138.96875 L 211.410156 138.96875 C 204.871094 143.453125 193.953125 151.066406 175.546875 164.019531 C 175.15625 164.289062 174.90625 164.753906 174.90625 165.234375 L 174.90625 179.207031 C 174.90625 179.867188 175.046875 180.511719 175.296875 181.085938 Z M 161.039062 243.535156 L 111.972656 243.535156 L 111.972656 232.332031 L 161.039062 232.332031 Z M 108.988281 229.4375 L 108.988281 229.667969 L 103.539062 229.667969 C 102.714844 229.667969 102.054688 230.328125 102.054688 231.152344 C 102.054688 231.972656 102.714844 232.632812 103.539062 232.632812 L 108.988281 232.632812 L 108.988281 243.535156 L 84.203125 243.535156 L 84.203125 232.632812 L 89.671875 232.632812 C 90.492188 232.632812 91.15625 231.972656 91.15625 231.152344 C 91.15625 230.328125 90.492188 229.667969 89.671875 229.667969 L 84.203125 229.667969 L 84.203125 220.234375 C 84.203125 219.410156 84.882812 218.75 85.6875 218.75 L 107.503906 218.75 C 108.328125 218.75 108.988281 219.410156 108.988281 220.234375 Z M 77.273438 201.902344 L 77.273438 145.902344 L 119.40625 145.902344 L 119.40625 201.902344 Z M 112.1875 114.738281 L 122.191406 41.390625 L 244.484375 41.390625 L 254.492188 114.738281 Z M 288.761719 181.960938 L 267.945312 136.859375 C 267.710938 136.324219 267.175781 135.984375 266.605469 135.984375 L 227.222656 135.984375 C 222.09375 132.535156 221.792969 132.519531 221.503906 132.519531 C 221.203125 132.519531 220.898438 132.535156 215.769531 135.984375 L 176.40625 135.984375 C 175.851562 135.984375 175.351562 136.289062 175.082031 136.769531 L 150.800781 181.871094 C 150.550781 182.335938 150.566406 182.890625 150.835938 183.335938 C 151.105469 183.78125 151.585938 184.066406 152.121094 184.066406 L 161.039062 184.066406 L 161.039062 229.363281 L 111.972656 229.363281 L 111.972656 220.234375 C 111.972656 217.785156 109.96875 215.785156 107.503906 215.785156 L 98.089844 215.785156 L 98.089844 204.882812 L 120.886719 204.882812 C 121.710938 204.882812 122.371094 204.207031 122.371094 203.382812 L 122.371094 144.417969 C 122.371094 143.597656 121.710938 142.933594 120.886719 142.933594 L 99.820312 142.933594 L 99.820312 137.484375 C 99.820312 134.464844 102.269531 132.015625 105.269531 132.015625 L 141.703125 132.015625 C 146.351562 132.015625 150.140625 128.246094 150.140625 123.601562 L 150.140625 117.703125 L 256.1875 117.703125 C 256.617188 117.703125 257.027344 117.527344 257.3125 117.203125 C 257.597656 116.882812 257.722656 116.453125 257.671875 116.023438 L 247.253906 39.691406 C 247.144531 38.957031 246.519531 38.421875 245.789062 38.421875 L 120.886719 38.421875 C 120.15625 38.421875 119.511719 38.957031 119.421875 39.691406 L 109.003906 116.023438 C 108.953125 116.453125 109.078125 116.882812 109.363281 117.203125 C 109.648438 117.527344 110.058594 117.703125 110.488281 117.703125 L 147.15625 117.703125 L 147.15625 123.601562 C 147.15625 126.601562 144.707031 129.050781 141.703125 129.050781 L 105.269531 129.050781 C 100.644531 129.050781 96.855469 132.839844 96.855469 137.484375 L 96.855469 142.933594 L 75.789062 142.933594 C 74.964844 142.933594 74.304688 143.597656 74.304688 144.417969 L 74.304688 203.382812 C 74.304688 204.207031 74.964844 204.882812 75.789062 204.882812 L 95.121094 204.882812 L 95.121094 215.785156 L 85.6875 215.785156 C 83.238281 215.785156 81.238281 217.785156 81.238281 220.234375 L 81.238281 243.535156 L 75.789062 243.535156 C 74.964844 243.535156 74.304688 244.195312 74.304688 245.015625 C 74.304688 245.839844 74.964844 246.5 75.789062 246.5 L 167.847656 246.5 C 168.667969 246.5 169.328125 245.839844 169.328125 245.015625 L 281.953125 245.015625 L 281.953125 184.066406 L 287.421875 184.066406 C 287.921875 184.066406 288.386719 183.800781 288.65625 183.371094 C 288.941406 182.960938 288.976562 182.40625 288.761719 181.960938 " fill-opacity="1" fill-rule="nonzero"/></g><path fill="#007c84" d="M 228.6875 181.085938 L 228.6875 198.433594 L 214.304688 198.433594 L 214.304688 179.351562 C 214.304688 178.117188 215.304688 177.117188 216.539062 177.117188 L 226.453125 177.117188 C 227.6875 177.117188 228.6875 178.117188 228.6875 179.351562 Z M 226.453125 174.152344 L 216.539062 174.152344 C 213.679688 174.152344 211.339844 176.492188 211.339844 179.351562 L 211.339844 199.917969 C 211.339844 200.738281 212 201.398438 212.820312 201.398438 L 230.171875 201.398438 C 230.992188 201.398438 231.65625 200.738281 231.65625 199.917969 L 231.65625 179.351562 C 231.65625 176.492188 229.332031 174.152344 226.453125 174.152344 " fill-opacity="1" fill-rule="nonzero"/><g fill="#0a474b" fill-opacity="1"><g transform="translate(53.341405, 322.999901)"><g><path d="M 21.996094 -19.996094 L 12.5 -19.996094 C 10.847656 -19.996094 9.5 -21.347656 9.5 -22.996094 C 9.5 -24.648438 10.847656 -25.996094 12.5 -25.996094 L 23.449219 -25.996094 C 24.546875 -25.648438 25.296875 -24.648438 25.296875 -23.449219 L 32.148438 -23.449219 C 32.148438 -24.347656 32.046875 -25.199219 31.796875 -25.996094 C 30.695312 -30.046875 26.996094 -32.996094 22.597656 -32.996094 L 12.5 -32.996094 C 8.898438 -32.996094 5.550781 -31.097656 3.800781 -27.945312 C 2.949219 -26.449219 2.5 -24.746094 2.5 -22.996094 C 2.5 -21.246094 2.949219 -19.546875 3.800781 -18.046875 C 4.199219 -17.347656 4.648438 -16.75 5.148438 -16.199219 C 7.050781 -14.199219 9.699219 -13 12.5 -13 L 21.996094 -13 C 23.648438 -13 24.949219 -11.648438 24.949219 -10 C 24.949219 -8.347656 23.648438 -7 21.996094 -7 L 11.148438 -7 C 10.097656 -7.347656 9.347656 -8.347656 9.347656 -9.550781 L 2.5 -9.550781 C 2.5 -8.648438 2.601562 -7.800781 2.800781 -7 C 3.949219 -2.949219 7.648438 0 12.046875 0 L 21.996094 0 C 25.546875 0 28.898438 -1.898438 30.648438 -5 C 31.546875 -6.550781 31.996094 -8.25 31.996094 -10 C 31.996094 -11.75 31.546875 -13.449219 30.648438 -14.949219 C 28.898438 -18.046875 25.546875 -19.996094 21.996094 -19.996094 Z M 21.996094 -19.996094 "/></g></g></g><g fill="#0a474b" fill-opacity="1"><g transform="translate(88.036032, 322.999901)"><g><path d="M 2.5 -32.996094 L 2.5 -25.996094 L 31.996094 -25.996094 L 31.996094 -32.996094 Z M 9.5 -14.097656 L 29.046875 -14.097656 L 29.046875 -21.097656 L 9.5 -21.097656 L 2.5 -21.148438 L 2.5 0 L 31.996094 0 L 31.996094 -7 L 9.5 -7 Z M 9.5 -14.097656 "/></g></g></g><g fill="#0a474b" fill-opacity="1"><g transform="translate(122.530696, 322.999901)"><g><path d="M 33.195312 -2 L 23.746094 -17.5 C 23.796875 -17.5 23.847656 -17.546875 23.898438 -17.597656 L 23.949219 -17.648438 C 23.996094 -17.648438 24.046875 -17.699219 24.046875 -17.75 C 24.148438 -17.796875 24.199219 -17.847656 24.296875 -17.898438 C 24.347656 -17.949219 24.449219 -18.046875 24.546875 -18.097656 C 24.546875 -18.148438 24.597656 -18.148438 24.597656 -18.148438 C 24.648438 -18.199219 24.746094 -18.296875 24.796875 -18.347656 C 24.996094 -18.546875 25.199219 -18.699219 25.449219 -18.949219 C 27.695312 -21.199219 29.296875 -23.996094 29.945312 -27.097656 C 30.246094 -28.296875 30.347656 -29.496094 30.347656 -30.695312 C 30.347656 -31.097656 30.347656 -31.496094 30.296875 -31.847656 L 30.246094 -33.097656 L 2.5 -33.097656 L 2.5 -26.097656 L 22.148438 -26.097656 C 21.699219 -25.296875 21.148438 -24.546875 20.496094 -23.949219 C 19.648438 -23.097656 18.699219 -22.449219 17.597656 -21.949219 C 17.546875 -21.949219 17.546875 -21.949219 17.5 -21.898438 C 16.347656 -21.449219 15.097656 -21.199219 13.847656 -21.199219 L 2.5 -21.199219 L 2.5 0 L 9.5 0 L 9.5 -14.148438 L 13.847656 -14.148438 C 13.949219 -14.148438 14.046875 -14.199219 14.148438 -14.199219 L 14.347656 -14.199219 C 14.449219 -14.199219 14.5 -14.199219 14.597656 -14.199219 C 14.648438 -14.199219 14.699219 -14.199219 14.699219 -14.199219 C 14.796875 -14.199219 14.898438 -14.199219 15 -14.199219 L 15.097656 -14.199219 L 15.148438 -14.25 C 15.25 -14.25 15.347656 -14.25 15.5 -14.25 C 15.597656 -14.25 15.699219 -14.296875 15.847656 -14.296875 C 15.898438 -14.296875 15.949219 -14.296875 16 -14.296875 C 16.097656 -14.347656 16.199219 -14.347656 16.296875 -14.347656 C 16.347656 -14.347656 16.398438 -14.347656 16.449219 -14.398438 C 16.5 -14.398438 16.597656 -14.398438 16.699219 -14.398438 C 16.898438 -14.449219 17.097656 -14.5 17.296875 -14.546875 L 25.796875 -0.601562 L 26.199219 0 L 34.398438 0 Z M 33.195312 -2 "/></g></g></g><g fill="#0a474b" fill-opacity="1"><g transform="translate(159.47498, 322.999901)"><g><path d="M 11.5 -32.546875 L 11.25 -32.996094 L 2.5 -32.996094 L 3.449219 -31.296875 L 14.25 -11.75 L 18.648438 -19.648438 Z M 31.648438 -32.996094 L 31.398438 -32.546875 L 23.746094 -18.699219 L 22.296875 -16.097656 L 21.449219 -14.597656 L 17.046875 -6.699219 L 20.597656 0 L 22.449219 0 L 39.496094 -31.296875 L 40.445312 -32.996094 Z M 31.648438 -32.996094 "/></g></g></g><g fill="#0a474b" fill-opacity="1"><g transform="translate(202.468324, 322.999901)"><g><path d="M 2.5 -33.046875 L 2.5 0 L 9.5 0 L 9.5 -33.046875 Z M 2.5 -33.046875 "/></g></g></g><g fill="#0a474b" fill-opacity="1"><g transform="translate(214.46647, 322.999901)"><g><path d="M 27.996094 -13.148438 L 27.648438 -12.398438 C 26.046875 -9.097656 22.699219 -7 19.046875 -7 C 14.546875 -7 10.597656 -10.199219 9.699219 -14.597656 C 9.550781 -15.199219 9.5 -15.898438 9.5 -16.546875 C 9.5 -17.199219 9.550781 -17.796875 9.699219 -18.449219 C 10.550781 -22.898438 14.5 -26.097656 19.046875 -26.097656 C 22.898438 -26.097656 26.347656 -23.796875 27.847656 -20.296875 L 28.195312 -19.5 L 35.445312 -19.5 L 34.945312 -21.148438 C 33.996094 -24.546875 31.898438 -27.597656 29.097656 -29.746094 C 26.199219 -31.945312 22.699219 -33.097656 19.046875 -33.097656 C 15.046875 -33.097656 11.148438 -31.648438 8.148438 -28.996094 C 5.148438 -26.398438 3.199219 -22.796875 2.648438 -18.898438 C 2.550781 -18.097656 2.5 -17.347656 2.5 -16.546875 C 2.5 -15.75 2.550781 -14.898438 2.648438 -14.097656 C 3.199219 -10.199219 5.199219 -6.648438 8.148438 -4.050781 C 11.199219 -1.398438 15.046875 0 19.046875 0 C 22.597656 0 25.996094 -1.101562 28.898438 -3.199219 C 31.695312 -5.300781 33.746094 -8.097656 34.796875 -11.398438 L 35.347656 -13.148438 Z M 27.996094 -13.148438 "/></g></g></g><g fill="#0a474b" fill-opacity="1"><g transform="translate(252.460577, 322.999901)"><g><path d="M 2.5 -32.996094 L 2.5 -25.996094 L 31.996094 -25.996094 L 31.996094 -32.996094 Z M 9.5 -14.097656 L 29.046875 -14.097656 L 29.046875 -21.097656 L 9.5 -21.097656 L 2.5 -21.148438 L 2.5 0 L 31.996094 0 L 31.996094 -7 L 9.5 -7 Z M 9.5 -14.097656 "/></g></g></g><g fill="#0a474b" fill-opacity="1"><g transform="translate(286.955241, 322.999901)"><g><path d="M 21.996094 -19.996094 L 12.5 -19.996094 C 10.847656 -19.996094 9.5 -21.347656 9.5 -22.996094 C 9.5 -24.648438 10.847656 -25.996094 12.5 -25.996094 L 23.449219 -25.996094 C 24.546875 -25.648438 25.296875 -24.648438 25.296875 -23.449219 L 32.148438 -23.449219 C 32.148438 -24.347656 32.046875 -25.199219 31.796875 -25.996094 C 30.695312 -30.046875 26.996094 -32.996094 22.597656 -32.996094 L 12.5 -32.996094 C 8.898438 -32.996094 5.550781 -31.097656 3.800781 -27.945312 C 2.949219 -26.449219 2.5 -24.746094 2.5 -22.996094 C 2.5 -21.246094 2.949219 -19.546875 3.800781 -18.046875 C 4.199219 -17.347656 4.648438 -16.75 5.148438 -16.199219 C 7.050781 -14.199219 9.699219 -13 12.5 -13 L 21.996094 -13 C 23.648438 -13 24.949219 -11.648438 24.949219 -10 C 24.949219 -8.347656 23.648438 -7 21.996094 -7 L 11.148438 -7 C 10.097656 -7.347656 9.347656 -8.347656 9.347656 -9.550781 L 2.5 -9.550781 C 2.5 -8.648438 2.601562 -7.800781 2.800781 -7 C 3.949219 -2.949219 7.648438 0 12.046875 0 L 21.996094 0 C 25.546875 0 28.898438 -1.898438 30.648438 -5 C 31.546875 -6.550781 31.996094 -8.25 31.996094 -10 C 31.996094 -11.75 31.546875 -13.449219 30.648438 -14.949219 C 28.898438 -18.046875 25.546875 -19.996094 21.996094 -19.996094 Z M 21.996094 -19.996094 "/></g></g></g></svg>