<svg xmlns="http://www.w3.org/2000/svg" xmlns:xlink="http://www.w3.org/1999/xlink" width="500" zoomAndPan="magnify" viewBox="0 0 375 374.999991" height="500" preserveAspectRatio="xMidYMid meet" version="1.0"><defs><g/><clipPath id="da6e94e794"><path d="M 106 83 L 268 83 L 268 249 L 106 249 Z M 106 83 " clip-rule="nonzero"/></clipPath><clipPath id="9eea2e71be"><path d="M 87 37.5 L 288 37.5 L 288 153 L 87 153 Z M 87 37.5 " clip-rule="nonzero"/></clipPath></defs><rect x="-37.5" width="450" fill="#ffffff" y="-37.499999" height="449.999989" fill-opacity="1"/><rect x="-37.5" width="450" fill="#ffffff" y="-37.499999" height="449.999989" fill-opacity="1"/><g clip-path="url(#da6e94e794)"><path fill="#007c84" d="M 106.847656 163.628906 L 106.847656 245.359375 C 106.847656 247.410156 108.511719 249.082031 110.566406 249.082031 L 198.285156 249.082031 L 198.285156 175.074219 L 239.492188 175.074219 L 239.492188 249.082031 L 264.003906 249.082031 C 266.0625 249.082031 267.726562 247.410156 267.726562 245.359375 L 267.726562 163.628906 L 187.332031 83.578125 Z M 172.261719 209.554688 L 135.078125 209.554688 L 135.078125 175.078125 L 172.261719 175.078125 Z M 172.261719 209.554688 " fill-opacity="1" fill-rule="nonzero"/></g><g clip-path="url(#9eea2e71be)"><path fill="#007c84" d="M 284.019531 134.238281 L 187.289062 37.511719 L 141.65625 83.140625 L 141.65625 63.0625 C 141.65625 58.371094 137.851562 54.5625 133.160156 54.5625 C 128.46875 54.5625 124.660156 58.371094 124.660156 63.0625 L 124.660156 100.136719 L 90.554688 134.238281 C 86.40625 138.390625 86.40625 145.117188 90.554688 149.261719 C 92.628906 151.335938 95.347656 152.371094 98.066406 152.371094 C 100.789062 152.371094 103.503906 151.335938 105.578125 149.265625 L 187.292969 67.5625 L 269 149.261719 C 273.152344 153.414062 279.871094 153.414062 284.019531 149.261719 C 288.167969 145.109375 288.167969 138.386719 284.019531 134.238281 Z M 284.019531 134.238281 " fill-opacity="1" fill-rule="nonzero"/></g><g fill="#0a474b" fill-opacity="1"><g transform="translate(56.664838, 322.999959)"><g><path d="M 32.296875 -18.75 C 31.746094 -22.648438 29.847656 -26.246094 26.898438 -28.847656 C 24.199219 -31.246094 20.746094 -32.695312 17.199219 -32.945312 L 2.5 -32.996094 L 2.5 -25.996094 L 16.347656 -25.996094 C 16.847656 -25.949219 17.347656 -25.898438 17.796875 -25.796875 C 19.199219 -25.496094 20.496094 -24.898438 21.648438 -24.046875 C 23.546875 -22.648438 24.796875 -20.597656 25.296875 -18.296875 C 25.398438 -17.699219 25.449219 -17.046875 25.449219 -16.449219 C 25.449219 -15.75 25.398438 -15.097656 25.246094 -14.449219 C 24.449219 -10.597656 21.296875 -7.597656 17.398438 -7 L 9.5 -7 L 9.5 -21.097656 L 2.5 -21.097656 L 2.5 0 L 17.949219 0 C 25.296875 -0.898438 31.246094 -6.648438 32.296875 -14 C 32.398438 -14.796875 32.496094 -15.597656 32.496094 -16.449219 C 32.496094 -17.199219 32.445312 -18 32.296875 -18.75 Z M 32.296875 -18.75 "/></g></g></g><g fill="#0a474b" fill-opacity="1"><g transform="translate(91.659415, 322.999959)"><g><path d="M 18.949219 -32.898438 C 9.847656 -32.898438 2.5 -25.496094 2.5 -16.449219 C 2.5 -7.347656 9.847656 0 18.949219 0 C 27.996094 0 35.394531 -7.347656 35.394531 -16.449219 C 35.394531 -25.496094 27.996094 -32.898438 18.949219 -32.898438 Z M 28.496094 -16.449219 C 28.496094 -11.148438 24.199219 -6.847656 18.949219 -6.847656 C 13.648438 -6.847656 9.347656 -11.148438 9.347656 -16.449219 C 9.347656 -21.699219 13.648438 -25.996094 18.949219 -25.996094 C 24.199219 -25.996094 28.496094 -21.699219 28.496094 -16.449219 Z M 28.496094 -16.449219 "/></g></g></g><g fill="#0a474b" fill-opacity="1"><g transform="translate(129.603535, 322.999959)"><g><path d="M 2.5 0 L 9.5 0 L 9.5 -11.148438 L 2.5 -18.148438 Z M 30.695312 -33.246094 L 17.449219 -19.996094 L 4.199219 -33.246094 L 2.5 -33.246094 L 2.5 -25.046875 L 17.449219 -10.097656 L 18.398438 -11 L 19.648438 -12.296875 L 20.046875 -12.699219 L 21.496094 -14.097656 L 25.199219 -17.847656 L 25.199219 0 L 32.195312 0 L 32.195312 -33.246094 Z M 30.695312 -33.246094 "/></g></g></g><g fill="#0a474b" fill-opacity="1"><g transform="translate(164.398149, 322.999959)"><g><path d="M 2.5 -32.996094 L 2.5 -25.996094 L 31.996094 -25.996094 L 31.996094 -32.996094 Z M 9.5 -14.097656 L 29.046875 -14.097656 L 29.046875 -21.097656 L 9.5 -21.097656 L 2.5 -21.148438 L 2.5 0 L 31.996094 0 L 31.996094 -7 L 9.5 -7 Z M 9.5 -14.097656 "/></g></g></g><g fill="#0a474b" fill-opacity="1"><g transform="translate(198.892813, 322.999959)"><g><path d="M 21.996094 -19.996094 L 12.5 -19.996094 C 10.847656 -19.996094 9.5 -21.347656 9.5 -22.996094 C 9.5 -24.648438 10.847656 -25.996094 12.5 -25.996094 L 23.449219 -25.996094 C 24.546875 -25.648438 25.296875 -24.648438 25.296875 -23.449219 L 32.148438 -23.449219 C 32.148438 -24.347656 32.046875 -25.199219 31.796875 -25.996094 C 30.695312 -30.046875 26.996094 -32.996094 22.597656 -32.996094 L 12.5 -32.996094 C 8.898438 -32.996094 5.550781 -31.097656 3.800781 -27.945312 C 2.949219 -26.449219 2.5 -24.746094 2.5 -22.996094 C 2.5 -21.246094 2.949219 -19.546875 3.800781 -18.046875 C 4.199219 -17.347656 4.648438 -16.75 5.148438 -16.199219 C 7.050781 -14.199219 9.699219 -13 12.5 -13 L 21.996094 -13 C 23.648438 -13 24.949219 -11.648438 24.949219 -10 C 24.949219 -8.347656 23.648438 -7 21.996094 -7 L 11.148438 -7 C 10.097656 -7.347656 9.347656 -8.347656 9.347656 -9.550781 L 2.5 -9.550781 C 2.5 -8.648438 2.601562 -7.800781 2.800781 -7 C 3.949219 -2.949219 7.648438 0 12.046875 0 L 21.996094 0 C 25.546875 0 28.898438 -1.898438 30.648438 -5 C 31.546875 -6.550781 31.996094 -8.25 31.996094 -10 C 31.996094 -11.75 31.546875 -13.449219 30.648438 -14.949219 C 28.898438 -18.046875 25.546875 -19.996094 21.996094 -19.996094 Z M 21.996094 -19.996094 "/></g></g></g><g fill="#0a474b" fill-opacity="1"><g transform="translate(233.587441, 322.999959)"><g><path d="M 20.597656 0 L 20.597656 -21.097656 L 13.597656 -21.097656 L 13.597656 0 Z M 2.5 -32.996094 L 2.5 -25.996094 L 32.246094 -25.996094 L 32.246094 -32.996094 Z M 2.5 -32.996094 "/></g></g></g><g fill="#0a474b" fill-opacity="1"><g transform="translate(268.332044, 322.999959)"><g><path d="M 2.5 -33.046875 L 2.5 0 L 9.5 0 L 9.5 -33.046875 Z M 2.5 -33.046875 "/></g></g></g><g fill="#0a474b" fill-opacity="1"><g transform="translate(280.330189, 322.999959)"><g><path d="M 27.996094 -13.148438 L 27.648438 -12.398438 C 26.046875 -9.097656 22.699219 -7 19.046875 -7 C 14.546875 -7 10.597656 -10.199219 9.699219 -14.597656 C 9.550781 -15.199219 9.5 -15.898438 9.5 -16.546875 C 9.5 -17.199219 9.550781 -17.796875 9.699219 -18.449219 C 10.550781 -22.898438 14.5 -26.097656 19.046875 -26.097656 C 22.898438 -26.097656 26.347656 -23.796875 27.847656 -20.296875 L 28.195312 -19.5 L 35.445312 -19.5 L 34.945312 -21.148438 C 33.996094 -24.546875 31.898438 -27.597656 29.097656 -29.746094 C 26.199219 -31.945312 22.699219 -33.097656 19.046875 -33.097656 C 15.046875 -33.097656 11.148438 -31.648438 8.148438 -28.996094 C 5.148438 -26.398438 3.199219 -22.796875 2.648438 -18.898438 C 2.550781 -18.097656 2.5 -17.347656 2.5 -16.546875 C 2.5 -15.75 2.550781 -14.898438 2.648438 -14.097656 C 3.199219 -10.199219 5.199219 -6.648438 8.148438 -4.050781 C 11.199219 -1.398438 15.046875 0 19.046875 0 C 22.597656 0 25.996094 -1.101562 28.898438 -3.199219 C 31.695312 -5.300781 33.746094 -8.097656 34.796875 -11.398438 L 35.347656 -13.148438 Z M 27.996094 -13.148438 "/></g></g></g></svg>