<svg xmlns="http://www.w3.org/2000/svg" xmlns:xlink="http://www.w3.org/1999/xlink" width="250" zoomAndPan="magnify" viewBox="0 0 187.5 187.499992" height="250" preserveAspectRatio="xMidYMid meet" version="1.0"><defs><clipPath id="411515dc39"><path d="M 0 105 L 163 105 L 163 150.910156 L 0 150.910156 Z M 0 105 " clip-rule="nonzero"/></clipPath><clipPath id="f212c3d9b2"><path d="M 148 36.464844 L 150 36.464844 L 150 65 L 148 65 Z M 148 36.464844 " clip-rule="nonzero"/></clipPath></defs><g clip-path="url(#411515dc39)"><path fill="#000000" d="M 140.441406 106.449219 C 140.433594 106.4375 140.425781 106.425781 140.417969 106.414062 C 140.410156 106.398438 140.40625 106.382812 140.398438 106.367188 C 140.386719 106.351562 140.375 106.339844 140.367188 106.324219 C 140.351562 106.300781 140.335938 106.277344 140.316406 106.253906 C 140.296875 106.226562 140.277344 106.203125 140.253906 106.175781 C 140.234375 106.15625 140.21875 106.136719 140.199219 106.113281 C 140.175781 106.089844 140.148438 106.070312 140.125 106.046875 C 140.105469 106.027344 140.082031 106.011719 140.0625 105.992188 C 140.035156 105.972656 140.007812 105.953125 139.980469 105.9375 C 139.957031 105.921875 139.933594 105.90625 139.914062 105.890625 C 139.882812 105.875 139.851562 105.859375 139.820312 105.84375 C 139.796875 105.832031 139.773438 105.820312 139.75 105.808594 C 139.71875 105.796875 139.683594 105.785156 139.648438 105.773438 C 139.625 105.765625 139.601562 105.757812 139.578125 105.75 C 139.539062 105.738281 139.5 105.734375 139.460938 105.726562 C 139.441406 105.722656 139.417969 105.714844 139.398438 105.714844 C 139.339844 105.703125 139.277344 105.699219 139.214844 105.699219 L 91.667969 105.699219 L 91.839844 106.257812 L 91.359375 106.40625 L 91.699219 107.511719 L 91.3125 107.628906 L 92.289062 110.773438 L 89.925781 111.503906 L 88.945312 108.359375 L 88.550781 108.480469 L 88.214844 107.375 L 87.734375 107.523438 L 87.175781 105.699219 L 75.910156 105.699219 C 76.082031 106.78125 75.890625 107.882812 75.34375 108.847656 C 74.707031 109.980469 73.671875 110.792969 72.425781 111.140625 C 72 111.257812 71.566406 111.316406 71.128906 111.316406 L 71.125 111.316406 C 68.960938 111.316406 67.042969 109.851562 66.460938 107.757812 L 65.894531 105.699219 L 63.386719 105.699219 C 63.273438 105.753906 63.15625 105.800781 63.035156 105.84375 L 48.183594 111.214844 C 47.652344 111.40625 47.101562 111.503906 46.539062 111.503906 C 44.503906 111.503906 42.671875 110.210938 41.984375 108.289062 C 41.679688 107.445312 41.621094 106.558594 41.792969 105.699219 L 20.863281 105.699219 L 0 150.859375 L 117.28125 150.859375 C 117.320312 150.859375 117.355469 150.855469 117.394531 150.851562 C 117.414062 150.847656 117.433594 150.847656 117.453125 150.847656 C 117.53125 150.835938 117.605469 150.820312 117.679688 150.796875 C 117.699219 150.792969 117.714844 150.785156 117.734375 150.777344 C 117.792969 150.757812 117.847656 150.734375 117.90625 150.707031 C 117.925781 150.695312 117.945312 150.6875 117.964844 150.675781 C 118.03125 150.636719 118.097656 150.59375 118.15625 150.542969 C 118.164062 150.535156 118.175781 150.527344 118.183594 150.519531 C 118.234375 150.472656 118.285156 150.421875 118.328125 150.371094 C 118.34375 150.355469 118.359375 150.335938 118.371094 150.316406 C 118.421875 150.253906 118.46875 150.183594 118.507812 150.109375 L 118.839844 149.46875 L 139.214844 110.101562 L 159.589844 149.46875 L 159.917969 150.109375 C 160.164062 150.585938 160.648438 150.859375 161.148438 150.859375 C 161.363281 150.859375 161.582031 150.808594 161.785156 150.703125 C 162.464844 150.347656 162.726562 149.511719 162.375 148.832031 Z M 105.960938 119.65625 L 92.097656 119.65625 L 95.304688 112.757812 L 109.167969 112.757812 Z M 102.417969 127.277344 L 88.554688 127.277344 L 91.941406 119.988281 L 105.804688 119.988281 Z M 98.875 134.898438 L 85.015625 134.898438 L 88.402344 127.609375 L 102.261719 127.609375 Z M 66.996094 142.128906 L 70.203125 135.230469 L 84.492188 135.230469 L 81.285156 142.128906 Z M 52.339844 142.128906 L 55.546875 135.230469 L 69.835938 135.230469 L 66.628906 142.128906 Z M 38.109375 142.128906 L 41.316406 135.230469 L 55.179688 135.230469 L 51.972656 142.128906 Z M 44.859375 127.609375 L 58.722656 127.609375 L 55.335938 134.898438 L 41.472656 134.898438 Z M 73.898438 127.277344 L 77.285156 119.988281 L 91.578125 119.988281 L 88.1875 127.277344 Z M 88.035156 127.609375 L 84.648438 134.898438 L 70.359375 134.898438 L 73.746094 127.609375 Z M 77.441406 119.65625 L 80.648438 112.757812 L 94.9375 112.757812 L 91.730469 119.65625 Z M 80.28125 112.757812 L 77.074219 119.65625 L 62.785156 119.65625 L 65.992188 112.757812 Z M 76.921875 119.988281 L 73.53125 127.277344 L 59.242188 127.277344 L 62.628906 119.988281 Z M 73.378906 127.609375 L 69.992188 134.898438 L 55.703125 134.898438 L 59.089844 127.609375 Z M 84.859375 135.230469 L 98.722656 135.230469 L 95.515625 142.128906 L 81.652344 142.128906 Z M 65.625 112.757812 L 62.417969 119.65625 L 48.554688 119.65625 L 51.761719 112.757812 Z M 62.261719 119.988281 L 58.875 127.277344 L 45.015625 127.277344 L 48.402344 119.988281 Z M 37.800781 143.238281 L 96.21875 143.238281 L 110.441406 112.644531 L 111.777344 112.644531 L 97 144.441406 L 37.242188 144.441406 Z M 37.800781 143.238281 " fill-opacity="1" fill-rule="nonzero"/></g><g clip-path="url(#f212c3d9b2)"><path fill="#000000" d="M 149.539062 64.828125 L 149.539062 36.507812 L 148.988281 36.507812 L 148.988281 64.828125 C 149.078125 64.824219 149.171875 64.820312 149.261719 64.820312 C 149.355469 64.820312 149.449219 64.824219 149.539062 64.828125 Z M 149.539062 64.828125 " fill-opacity="1" fill-rule="nonzero"/></g><path fill="#000000" d="M 148.988281 84.480469 L 148.988281 112.207031 L 149.539062 112.207031 L 149.539062 84.480469 C 149.449219 84.484375 149.355469 84.488281 149.261719 84.488281 C 149.171875 84.488281 149.078125 84.484375 148.988281 84.480469 Z M 148.988281 84.480469 " fill-opacity="1" fill-rule="nonzero"/><path fill="#000000" d="M 156.386719 67.902344 L 171.484375 52.753906 L 171.09375 52.359375 L 155.992188 67.507812 C 156.128906 67.636719 156.257812 67.765625 156.386719 67.902344 Z M 156.386719 67.902344 " fill-opacity="1" fill-rule="nonzero"/><path fill="#000000" d="M 142.140625 81.40625 L 127.042969 96.554688 L 127.433594 96.949219 L 142.53125 81.800781 C 142.398438 81.671875 142.269531 81.539062 142.140625 81.40625 Z M 142.140625 81.40625 " fill-opacity="1" fill-rule="nonzero"/><path fill="#000000" d="M 159.066406 74.652344 C 159.066406 74.746094 159.058594 74.839844 159.058594 74.933594 L 186.988281 74.933594 L 186.988281 74.375 L 159.058594 74.375 C 159.058594 74.46875 159.066406 74.5625 159.066406 74.652344 Z M 159.066406 74.652344 " fill-opacity="1" fill-rule="nonzero"/><path fill="#000000" d="M 139.46875 74.375 L 111.539062 74.375 L 111.539062 74.933594 L 139.46875 74.933594 C 139.464844 74.839844 139.460938 74.746094 139.460938 74.652344 C 139.460938 74.5625 139.464844 74.46875 139.46875 74.375 Z M 139.46875 74.375 " fill-opacity="1" fill-rule="nonzero"/><path fill="#000000" d="M 155.992188 81.800781 L 171.09375 96.949219 L 171.484375 96.554688 L 156.386719 81.40625 C 156.257812 81.539062 156.128906 81.671875 155.992188 81.800781 Z M 155.992188 81.800781 " fill-opacity="1" fill-rule="nonzero"/><path fill="#000000" d="M 142.53125 67.507812 L 127.433594 52.359375 L 127.042969 52.753906 L 142.140625 67.902344 C 142.269531 67.765625 142.398438 67.636719 142.53125 67.507812 Z M 142.53125 67.507812 " fill-opacity="1" fill-rule="nonzero"/><path fill="#000000" d="M 155.898438 91.453125 L 156.410156 91.238281 L 153.269531 83.628906 C 153.101562 83.703125 152.929688 83.777344 152.757812 83.84375 Z M 155.898438 91.453125 " fill-opacity="1" fill-rule="nonzero"/><path fill="#000000" d="M 142.628906 57.855469 L 142.117188 58.070312 L 145.257812 65.679688 C 145.425781 65.605469 145.597656 65.53125 145.769531 65.464844 Z M 142.628906 57.855469 " fill-opacity="1" fill-rule="nonzero"/><path fill="#000000" d="M 132.734375 67.484375 L 132.519531 67.996094 L 140.105469 71.148438 C 140.171875 70.976562 140.242188 70.804688 140.316406 70.636719 Z M 132.734375 67.484375 " fill-opacity="1" fill-rule="nonzero"/><path fill="#000000" d="M 165.792969 81.824219 L 166.007812 81.3125 L 158.421875 78.160156 C 158.355469 78.332031 158.285156 78.503906 158.207031 78.671875 Z M 165.792969 81.824219 " fill-opacity="1" fill-rule="nonzero"/><path fill="#000000" d="M 166.007812 67.996094 L 165.792969 67.484375 L 158.207031 70.636719 C 158.285156 70.804688 158.355469 70.976562 158.421875 71.148438 Z M 166.007812 67.996094 " fill-opacity="1" fill-rule="nonzero"/><path fill="#000000" d="M 132.519531 81.3125 L 132.730469 81.824219 L 140.316406 78.671875 C 140.242188 78.503906 140.171875 78.332031 140.105469 78.160156 Z M 132.519531 81.3125 " fill-opacity="1" fill-rule="nonzero"/><path fill="#000000" d="M 156.410156 58.070312 L 155.898438 57.855469 L 152.757812 65.464844 C 152.929688 65.53125 153.101562 65.605469 153.269531 65.679688 Z M 156.410156 58.070312 " fill-opacity="1" fill-rule="nonzero"/><path fill="#000000" d="M 142.117188 91.238281 L 142.628906 91.453125 L 145.769531 83.84375 C 145.597656 83.777344 145.425781 83.703125 145.257812 83.628906 Z M 142.117188 91.238281 " fill-opacity="1" fill-rule="nonzero"/><path fill="#000000" d="M 151.507812 87.40625 L 152.050781 87.296875 L 151.445312 84.238281 C 151.265625 84.28125 151.085938 84.316406 150.902344 84.347656 Z M 151.507812 87.40625 " fill-opacity="1" fill-rule="nonzero"/><path fill="#000000" d="M 147.019531 61.902344 L 146.476562 62.011719 L 147.082031 65.066406 C 147.261719 65.027344 147.441406 64.992188 147.625 64.960938 Z M 147.019531 61.902344 " fill-opacity="1" fill-rule="nonzero"/><path fill="#000000" d="M 156.203125 85.574219 L 156.664062 85.265625 L 154.9375 82.671875 C 154.785156 82.777344 154.632812 82.882812 154.476562 82.980469 Z M 156.203125 85.574219 " fill-opacity="1" fill-rule="nonzero"/><path fill="#000000" d="M 142.324219 63.734375 L 141.863281 64.042969 L 143.589844 66.636719 C 143.742188 66.53125 143.894531 66.425781 144.050781 66.328125 Z M 142.324219 63.734375 " fill-opacity="1" fill-rule="nonzero"/><path fill="#000000" d="M 138.6875 67.230469 L 138.382812 67.691406 L 140.964844 69.425781 C 141.0625 69.269531 141.164062 69.113281 141.273438 68.964844 Z M 138.6875 67.230469 " fill-opacity="1" fill-rule="nonzero"/><path fill="#000000" d="M 159.839844 82.078125 L 160.144531 81.617188 L 157.5625 79.882812 C 157.464844 80.039062 157.359375 80.195312 157.253906 80.34375 Z M 159.839844 82.078125 " fill-opacity="1" fill-rule="nonzero"/><path fill="#000000" d="M 136.660156 71.855469 L 136.554688 72.402344 L 139.601562 73.007812 C 139.632812 72.824219 139.667969 72.644531 139.710938 72.464844 Z M 136.660156 71.855469 " fill-opacity="1" fill-rule="nonzero"/><path fill="#000000" d="M 161.863281 77.453125 L 161.972656 76.90625 L 158.925781 76.300781 C 158.894531 76.484375 158.859375 76.664062 158.816406 76.84375 Z M 161.863281 77.453125 " fill-opacity="1" fill-rule="nonzero"/><path fill="#000000" d="M 161.972656 72.402344 L 161.863281 71.855469 L 158.816406 72.464844 C 158.859375 72.644531 158.894531 72.824219 158.925781 73.007812 Z M 161.972656 72.402344 " fill-opacity="1" fill-rule="nonzero"/><path fill="#000000" d="M 136.554688 76.90625 L 136.660156 77.453125 L 139.707031 76.84375 C 139.667969 76.664062 139.632812 76.484375 139.601562 76.300781 Z M 136.554688 76.90625 " fill-opacity="1" fill-rule="nonzero"/><path fill="#000000" d="M 160.144531 67.691406 L 159.839844 67.230469 L 157.253906 68.964844 C 157.359375 69.113281 157.464844 69.269531 157.5625 69.425781 Z M 160.144531 67.691406 " fill-opacity="1" fill-rule="nonzero"/><path fill="#000000" d="M 138.382812 81.617188 L 138.6875 82.078125 L 141.273438 80.34375 C 141.164062 80.195312 141.0625 80.039062 140.964844 79.882812 Z M 138.382812 81.617188 " fill-opacity="1" fill-rule="nonzero"/><path fill="#000000" d="M 141.863281 85.265625 L 142.324219 85.574219 L 144.050781 82.980469 C 143.894531 82.882812 143.742188 82.777344 143.589844 82.671875 Z M 141.863281 85.265625 " fill-opacity="1" fill-rule="nonzero"/><path fill="#000000" d="M 156.664062 64.042969 L 156.203125 63.734375 L 154.476562 66.328125 C 154.632812 66.425781 154.785156 66.53125 154.9375 66.636719 Z M 156.664062 64.042969 " fill-opacity="1" fill-rule="nonzero"/><path fill="#000000" d="M 152.050781 62.011719 L 151.507812 61.902344 L 150.902344 64.960938 C 151.085938 64.992188 151.265625 65.027344 151.445312 65.066406 Z M 152.050781 62.011719 " fill-opacity="1" fill-rule="nonzero"/><path fill="#000000" d="M 146.476562 87.296875 L 147.019531 87.40625 L 147.625 84.347656 C 147.441406 84.316406 147.261719 84.28125 147.082031 84.238281 Z M 146.476562 87.296875 " fill-opacity="1" fill-rule="nonzero"/><path fill="#000000" d="M 157.238281 74.652344 C 157.238281 70.242188 153.660156 66.652344 149.261719 66.652344 C 144.867188 66.652344 141.289062 70.242188 141.289062 74.652344 C 141.289062 79.066406 144.867188 82.65625 149.261719 82.65625 C 153.660156 82.65625 157.238281 79.066406 157.238281 74.652344 Z M 149.261719 81.820312 C 145.324219 81.820312 142.121094 78.605469 142.121094 74.652344 C 142.121094 70.703125 145.324219 67.488281 149.261719 67.488281 C 153.203125 67.488281 156.40625 70.703125 156.40625 74.652344 C 156.40625 78.605469 153.203125 81.820312 149.261719 81.820312 Z M 149.261719 81.820312 " fill-opacity="1" fill-rule="nonzero"/><path fill="#000000" d="M 43.285156 107.820312 C 43.792969 109.234375 45.121094 110.113281 46.539062 110.113281 C 46.929688 110.113281 47.324219 110.046875 47.714844 109.90625 L 62.566406 104.539062 C 63.601562 104.164062 64.398438 103.320312 64.710938 102.261719 C 65.023438 101.207031 64.820312 100.0625 64.15625 99.183594 L 61.355469 95.453125 L 54.84375 96.398438 C 54.644531 96.425781 54.441406 96.441406 54.242188 96.441406 C 53.9375 96.441406 53.640625 96.402344 53.351562 96.339844 L 55.804688 99.601562 L 45.367188 103.375 C 43.570312 104.027344 42.636719 106.015625 43.285156 107.820312 Z M 43.285156 107.820312 " fill-opacity="1" fill-rule="nonzero"/><path fill="#000000" d="M 50.570312 92.953125 C 50.792969 93.3125 51.003906 93.632812 51.210938 93.910156 C 51.882812 95.144531 53.269531 95.894531 54.738281 95.683594 L 64.179688 94.316406 L 67.796875 107.382812 C 68.21875 108.921875 69.609375 109.929688 71.128906 109.929688 C 71.433594 109.929688 71.746094 109.886719 72.054688 109.800781 C 73.894531 109.289062 74.972656 107.375 74.460938 105.527344 L 71.976562 96.53125 L 71.503906 96.390625 C 70.664062 96.144531 69.984375 95.539062 69.640625 94.730469 L 66.324219 86.996094 C 66.285156 87 66.246094 87 66.207031 87.007812 L 56.234375 88.453125 L 56.152344 87.734375 L 66.03125 86.304688 L 65.449219 84.949219 C 64.808594 83.457031 65.5 81.722656 66.988281 81.082031 C 67.355469 80.921875 67.746094 80.839844 68.144531 80.839844 C 69.316406 80.839844 70.375 81.542969 70.839844 82.625 L 72.085938 85.527344 C 73.03125 84.449219 73.5 83.121094 73.113281 81.875 C 72.386719 79.542969 69.507812 77.277344 65.320312 78.199219 C 59.574219 79.5 56.257812 81.050781 51.378906 84.871094 C 50.609375 85.574219 50.082031 86.265625 49.738281 86.9375 C 48.582031 89.210938 49.53125 91.289062 50.570312 92.953125 Z M 50.570312 92.953125 " fill-opacity="1" fill-rule="nonzero"/><path fill="#000000" d="M 77.953125 74.890625 C 74.804688 76.277344 73.371094 79.960938 74.75 83.121094 C 76.128906 86.28125 79.804688 87.722656 82.953125 86.335938 C 86.105469 84.953125 87.539062 81.265625 86.160156 78.105469 C 84.777344 74.945312 81.105469 73.507812 77.953125 74.890625 Z M 77.953125 74.890625 " fill-opacity="1" fill-rule="nonzero"/><path fill="#000000" d="M 86.355469 99.640625 L 86.65625 100.503906 L 85.601562 101.128906 L 85.570312 101.035156 C 85.410156 101.195312 85.230469 101.34375 85.03125 101.460938 L 85.089844 101.644531 L 87.507812 104.292969 L 87.867188 104.183594 L 88.46875 106.136719 L 88.945312 105.988281 L 89.285156 107.089844 L 89.675781 106.972656 L 90.652344 110.117188 L 90.902344 110.042969 L 89.921875 106.894531 L 90.3125 106.773438 L 89.976562 105.671875 L 90.453125 105.523438 L 89.855469 103.570312 L 90.195312 103.464844 L 90.132812 102.441406 L 87.273438 96.546875 L 86.941406 96.78125 C 86.941406 96.78125 86.507812 96.769531 85.828125 96.773438 L 86.257812 97.933594 C 86.460938 98.488281 86.492188 99.078125 86.355469 99.640625 Z M 86.355469 99.640625 " fill-opacity="1" fill-rule="nonzero"/><path fill="#000000" d="M 80.40625 99.03125 L 78.363281 98.425781 L 78.488281 100.664062 L 80.59375 100.484375 L 80.722656 99.894531 Z M 80.40625 99.03125 " fill-opacity="1" fill-rule="nonzero"/><path fill="#000000" d="M 80.957031 98.441406 L 81.425781 99.71875 C 81.753906 100.617188 82.601562 101.171875 83.503906 101.171875 C 83.757812 101.171875 84.015625 101.128906 84.269531 101.035156 C 85.417969 100.609375 86.003906 99.332031 85.582031 98.183594 L 84.726562 95.859375 C 84.484375 95.199219 83.949219 94.695312 83.277344 94.496094 L 73.957031 91.734375 L 70.179688 82.910156 C 69.695312 81.78125 68.394531 81.261719 67.269531 81.746094 C 66.148438 82.230469 65.628906 83.535156 66.109375 84.664062 L 70.300781 94.445312 C 70.558594 95.054688 71.074219 95.511719 71.707031 95.699219 Z M 80.957031 98.441406 " fill-opacity="1" fill-rule="nonzero"/></svg>