<svg xmlns="http://www.w3.org/2000/svg" xmlns:xlink="http://www.w3.org/1999/xlink" width="250" zoomAndPan="magnify" viewBox="0 0 187.5 187.499992" height="250" preserveAspectRatio="xMidYMid meet" version="1.0"><defs><clipPath id="9f82bede67"><path d="M 91 145 L 96 145 L 96 164.15625 L 91 164.15625 Z M 91 145 " clip-rule="nonzero"/></clipPath><clipPath id="fb94c7b869"><path d="M 91 22.785156 L 96 22.785156 L 96 42 L 91 42 Z M 91 22.785156 " clip-rule="nonzero"/></clipPath><clipPath id="268ca3a476"><path d="M 22.785156 91 L 42 91 L 42 96 L 22.785156 96 Z M 22.785156 91 " clip-rule="nonzero"/></clipPath><clipPath id="60c90ce9ab"><path d="M 145 91 L 164.15625 91 L 164.15625 96 L 145 96 Z M 145 91 " clip-rule="nonzero"/></clipPath></defs><path fill="#000000" d="M 93.472656 140.597656 C 67.488281 140.597656 46.347656 119.457031 46.347656 93.472656 C 46.347656 67.488281 67.488281 46.347656 93.472656 46.347656 C 119.457031 46.347656 140.597656 67.488281 140.597656 93.472656 C 140.597656 119.457031 119.457031 140.597656 93.472656 140.597656 Z M 93.472656 51.058594 C 70.085938 51.058594 51.058594 70.085938 51.058594 93.472656 C 51.058594 116.855469 70.085938 135.882812 93.472656 135.882812 C 116.855469 135.882812 135.882812 116.855469 135.882812 93.472656 C 135.882812 70.085938 116.855469 51.058594 93.472656 51.058594 Z M 93.472656 51.058594 " fill-opacity="1" fill-rule="nonzero"/><g clip-path="url(#9f82bede67)"><path fill="#000000" d="M 93.472656 164.15625 C 92.171875 164.15625 91.113281 163.101562 91.113281 161.800781 L 91.113281 147.664062 C 91.113281 146.363281 92.171875 145.308594 93.472656 145.308594 C 94.773438 145.308594 95.828125 146.363281 95.828125 147.664062 L 95.828125 161.800781 C 95.828125 163.101562 94.773438 164.15625 93.472656 164.15625 Z M 93.472656 164.15625 " fill-opacity="1" fill-rule="nonzero"/></g><g clip-path="url(#fb94c7b869)"><path fill="#000000" d="M 93.472656 41.632812 C 92.171875 41.632812 91.113281 40.578125 91.113281 39.277344 L 91.113281 25.140625 C 91.113281 23.839844 92.171875 22.785156 93.472656 22.785156 C 94.773438 22.785156 95.828125 23.839844 95.828125 25.140625 L 95.828125 39.277344 C 95.828125 40.578125 94.773438 41.632812 93.472656 41.632812 Z M 93.472656 41.632812 " fill-opacity="1" fill-rule="nonzero"/></g><g clip-path="url(#268ca3a476)"><path fill="#000000" d="M 39.277344 95.828125 L 25.140625 95.828125 C 23.839844 95.828125 22.785156 94.773438 22.785156 93.472656 C 22.785156 92.171875 23.839844 91.113281 25.140625 91.113281 L 39.277344 91.113281 C 40.578125 91.113281 41.632812 92.171875 41.632812 93.472656 C 41.632812 94.773438 40.578125 95.828125 39.277344 95.828125 Z M 39.277344 95.828125 " fill-opacity="1" fill-rule="nonzero"/></g><g clip-path="url(#60c90ce9ab)"><path fill="#000000" d="M 161.800781 95.828125 L 147.664062 95.828125 C 146.363281 95.828125 145.308594 94.773438 145.308594 93.472656 C 145.308594 92.171875 146.363281 91.113281 147.664062 91.113281 L 161.800781 91.113281 C 163.101562 91.113281 164.15625 92.171875 164.15625 93.472656 C 164.15625 94.773438 163.101562 95.828125 161.800781 95.828125 Z M 161.800781 95.828125 " fill-opacity="1" fill-rule="nonzero"/></g><path fill="#000000" d="M 81.691406 128.816406 C 81.328125 128.816406 80.960938 128.730469 80.621094 128.558594 C 79.660156 128.070312 79.152344 126.984375 79.394531 125.929688 L 85.796875 98.183594 L 74.621094 98.183594 C 73.699219 98.183594 72.863281 97.644531 72.476562 96.808594 C 72.09375 95.96875 72.234375 94.984375 72.839844 94.285156 L 103.472656 58.945312 C 104.179688 58.125 105.355469 57.894531 106.320312 58.386719 C 107.285156 58.875 107.792969 59.960938 107.546875 61.015625 L 101.144531 88.757812 L 112.320312 88.757812 C 113.246094 88.757812 114.082031 89.296875 114.464844 90.136719 C 114.847656 90.972656 114.707031 91.957031 114.101562 92.65625 L 83.472656 128 C 83.011719 128.53125 82.355469 128.816406 81.691406 128.816406 Z M 79.78125 93.472656 L 88.757812 93.472656 C 89.476562 93.472656 90.15625 93.800781 90.601562 94.359375 C 91.050781 94.921875 91.214844 95.65625 91.054688 96.359375 L 86.117188 117.753906 L 107.160156 93.472656 L 98.183594 93.472656 C 97.464844 93.472656 96.785156 93.144531 96.339844 92.582031 C 95.894531 92.023438 95.726562 91.289062 95.886719 90.585938 L 100.824219 69.191406 Z M 79.78125 93.472656 " fill-opacity="1" fill-rule="nonzero"/><path fill="#000000" d="M 141.789062 144.144531 C 141.183594 144.144531 140.582031 143.914062 140.121094 143.453125 L 130.128906 133.457031 C 129.207031 132.539062 129.207031 131.046875 130.128906 130.128906 C 131.046875 129.207031 132.539062 129.207031 133.457031 130.128906 L 143.453125 140.121094 C 144.375 141.042969 144.375 142.53125 143.453125 143.453125 C 142.996094 143.914062 142.390625 144.144531 141.789062 144.144531 Z M 141.789062 144.144531 " fill-opacity="1" fill-rule="nonzero"/><path fill="#000000" d="M 55.152344 57.507812 C 54.550781 57.507812 53.945312 57.273438 53.488281 56.816406 L 43.488281 46.820312 C 42.566406 45.898438 42.566406 44.410156 43.488281 43.488281 C 44.40625 42.566406 45.898438 42.566406 46.820312 43.488281 L 56.816406 53.484375 C 57.738281 54.40625 57.738281 55.894531 56.816406 56.816406 C 56.359375 57.277344 55.753906 57.507812 55.152344 57.507812 Z M 55.152344 57.507812 " fill-opacity="1" fill-rule="nonzero"/><path fill="#000000" d="M 45.15625 144.144531 C 44.550781 144.144531 43.949219 143.914062 43.488281 143.453125 C 42.566406 142.53125 42.566406 141.042969 43.488281 140.121094 L 53.488281 130.128906 C 54.40625 129.207031 55.898438 129.207031 56.816406 130.128906 C 57.738281 131.046875 57.738281 132.539062 56.816406 133.457031 L 46.820312 143.453125 C 46.359375 143.914062 45.757812 144.144531 45.15625 144.144531 Z M 45.15625 144.144531 " fill-opacity="1" fill-rule="nonzero"/><path fill="#000000" d="M 131.792969 57.507812 C 131.191406 57.507812 130.585938 57.273438 130.128906 56.816406 C 129.207031 55.894531 129.207031 54.40625 130.128906 53.484375 L 140.121094 43.488281 C 141.042969 42.566406 142.53125 42.566406 143.453125 43.488281 C 144.375 44.410156 144.375 45.898438 143.453125 46.820312 L 133.457031 56.816406 C 132.996094 57.277344 132.394531 57.507812 131.792969 57.507812 Z M 131.792969 57.507812 " fill-opacity="1" fill-rule="nonzero"/></svg>