<svg xmlns="http://www.w3.org/2000/svg" xmlns:xlink="http://www.w3.org/1999/xlink" width="250" zoomAndPan="magnify" viewBox="0 0 187.5 187.499992" height="250" preserveAspectRatio="xMidYMid meet" version="1.0"><defs><clipPath id="8b3a1e14fa"><path d="M 113.3125 30.945312 L 164.324219 30.945312 L 164.324219 165.648438 L 113.3125 165.648438 Z M 113.3125 30.945312 " clip-rule="nonzero"/></clipPath><clipPath id="fd1051c4d6"><path d="M 27 22.785156 L 90 22.785156 L 90 164 L 27 164 Z M 27 22.785156 " clip-rule="nonzero"/></clipPath></defs><g clip-path="url(#8b3a1e14fa)"><path fill="#000000" d="M 164.324219 96.316406 C 164.324219 78.152344 157.230469 61.074219 144.351562 48.230469 C 136.234375 40.132812 126.152344 34.179688 115.195312 31.007812 C 114.429688 30.789062 113.632812 31.226562 113.414062 31.984375 C 113.191406 32.746094 113.632812 33.539062 114.394531 33.761719 C 124.886719 36.796875 134.542969 42.5 142.316406 50.253906 C 154.65625 62.558594 161.453125 78.917969 161.453125 96.316406 C 161.453125 113.71875 154.65625 130.074219 142.316406 142.378906 C 135.574219 149.105469 127.683594 154.152344 118.847656 157.40625 L 123.160156 149.0625 L 121.117188 148.011719 L 114.792969 160.246094 L 127.492188 165.648438 L 128.394531 163.539062 L 120.085938 160.007812 C 129.214844 156.605469 137.371094 151.367188 144.351562 144.40625 C 157.230469 131.5625 164.324219 114.484375 164.324219 96.316406 " fill-opacity="1" fill-rule="nonzero"/></g><g clip-path="url(#fd1051c4d6)"><path fill="#000000" d="M 88.464844 161.011719 C 73.757812 159.289062 60.433594 152.847656 49.9375 142.378906 C 24.464844 116.980469 24.464844 75.652344 49.933594 50.253906 C 59.273438 40.941406 70.957031 34.777344 83.832031 32.335938 L 78.191406 39.855469 L 80.039062 41.226562 L 88.300781 30.203125 L 76.671875 22.785156 L 75.429688 24.714844 L 83.039062 29.566406 C 69.695312 32.148438 57.59375 38.566406 47.902344 48.230469 C 35.023438 61.074219 27.929688 78.152344 27.929688 96.316406 C 27.929688 114.484375 35.023438 131.5625 47.902344 144.40625 C 53.421875 149.90625 59.757812 154.382812 66.734375 157.703125 C 73.476562 160.914062 80.675781 162.984375 88.132812 163.859375 C 88.1875 163.863281 88.246094 163.867188 88.300781 163.867188 C 89.019531 163.867188 89.640625 163.332031 89.726562 162.601562 C 89.820312 161.816406 89.253906 161.105469 88.464844 161.011719 " fill-opacity="1" fill-rule="nonzero"/></g><path fill="#000000" d="M 96.128906 77.1875 C 100.921875 77.1875 104.820312 81.078125 104.820312 85.855469 C 104.820312 90.636719 100.921875 94.523438 96.128906 94.523438 C 91.335938 94.523438 87.433594 90.636719 87.433594 85.855469 C 87.433594 81.078125 91.335938 77.1875 96.128906 77.1875 Z M 84.5625 85.855469 C 84.5625 92.214844 89.75 97.390625 96.128906 97.390625 C 102.503906 97.390625 107.691406 92.214844 107.691406 85.855469 C 107.691406 79.496094 102.503906 74.324219 96.128906 74.324219 C 89.75 74.324219 84.5625 79.496094 84.5625 85.855469 " fill-opacity="1" fill-rule="nonzero"/><path fill="#000000" d="M 57.125 79.582031 C 57.125 74.800781 61.023438 70.914062 65.816406 70.914062 C 70.605469 70.914062 74.507812 74.800781 74.507812 79.582031 C 74.507812 84.359375 70.605469 88.246094 65.816406 88.246094 C 61.023438 88.246094 57.125 84.359375 57.125 79.582031 Z M 77.378906 79.582031 C 77.378906 73.21875 72.191406 68.046875 65.816406 68.046875 C 59.4375 68.046875 54.25 73.21875 54.25 79.582031 C 54.25 85.9375 59.4375 91.113281 65.816406 91.113281 C 72.191406 91.113281 77.378906 85.9375 77.378906 79.582031 " fill-opacity="1" fill-rule="nonzero"/><path fill="#000000" d="M 126.4375 94.503906 C 131.503906 94.503906 136.265625 96.46875 139.847656 100.042969 C 143.433594 103.617188 145.402344 108.363281 145.402344 113.414062 L 145.402344 115.445312 L 117.546875 115.445312 C 116.714844 111.214844 114.664062 107.378906 111.570312 104.292969 C 111.207031 103.933594 110.832031 103.585938 110.445312 103.253906 C 113.914062 97.828125 119.9375 94.503906 126.4375 94.503906 Z M 115.089844 121.722656 L 77.164062 121.722656 L 77.164062 119.691406 C 77.164062 118.816406 77.222656 117.9375 77.34375 117.074219 C 78.027344 112.152344 80.585938 107.761719 84.550781 104.710938 C 87.894531 102.140625 91.894531 100.777344 96.128906 100.777344 C 100.359375 100.777344 104.359375 102.140625 107.703125 104.710938 C 108.34375 105.203125 108.960938 105.746094 109.535156 106.320312 C 112.484375 109.261719 114.34375 112.980469 114.910156 117.074219 C 115.03125 117.9375 115.089844 118.816406 115.089844 119.691406 Z M 46.851562 113.414062 C 46.851562 102.984375 55.359375 94.503906 65.816406 94.503906 C 70.878906 94.503906 75.640625 96.46875 79.226562 100.042969 C 80.203125 101.019531 81.066406 102.09375 81.808594 103.25 C 78.125 106.4375 75.644531 110.695312 74.707031 115.445312 L 46.851562 115.445312 Z M 108.152344 101.511719 C 104.585938 99.15625 100.460938 97.914062 96.128906 97.914062 C 91.792969 97.914062 87.667969 99.15625 84.105469 101.511719 C 83.277344 100.253906 82.324219 99.082031 81.253906 98.015625 C 77.128906 93.902344 71.648438 91.636719 65.816406 91.636719 C 53.773438 91.636719 43.976562 101.40625 43.976562 113.414062 L 43.976562 116.878906 C 43.976562 117.667969 44.621094 118.308594 45.414062 118.308594 L 74.335938 118.308594 C 74.304688 118.769531 74.289062 119.230469 74.289062 119.691406 L 74.289062 123.152344 C 74.289062 123.945312 74.933594 124.585938 75.726562 124.585938 L 116.527344 124.585938 C 117.320312 124.585938 117.964844 123.945312 117.964844 123.152344 L 117.964844 119.691406 C 117.964844 119.230469 117.949219 118.769531 117.917969 118.308594 L 146.839844 118.308594 C 147.632812 118.308594 148.277344 117.667969 148.277344 116.878906 L 148.277344 113.414062 C 148.277344 107.597656 146.003906 102.128906 141.882812 98.015625 C 137.757812 93.902344 132.273438 91.636719 126.4375 91.636719 C 119.035156 91.636719 112.167969 95.386719 108.152344 101.511719 " fill-opacity="1" fill-rule="nonzero"/><path fill="#000000" d="M 117.746094 79.582031 C 117.746094 74.800781 121.648438 70.914062 126.4375 70.914062 C 131.230469 70.914062 135.128906 74.800781 135.128906 79.582031 C 135.128906 84.359375 131.230469 88.246094 126.4375 88.246094 C 121.648438 88.246094 117.746094 84.359375 117.746094 79.582031 Z M 138.003906 79.582031 C 138.003906 73.21875 132.816406 68.046875 126.4375 68.046875 C 120.0625 68.046875 114.875 73.21875 114.875 79.582031 C 114.875 85.9375 120.0625 91.113281 126.4375 91.113281 C 132.816406 91.113281 138.003906 85.9375 138.003906 79.582031 " fill-opacity="1" fill-rule="nonzero"/></svg>