<svg xmlns="http://www.w3.org/2000/svg" xmlns:xlink="http://www.w3.org/1999/xlink" width="300" zoomAndPan="magnify" viewBox="0 0 224.87999 89.999999" height="120" preserveAspectRatio="xMidYMid meet" version="1.0"><defs><clipPath id="96b9876085"><path d="M 49 28 L 89 28 L 89 65 L 49 65 Z M 49 28 " clip-rule="nonzero"/></clipPath><clipPath id="35ef4cd7b8"><path d="M 68.730469 64.398438 C 70.25 61.429688 71.753906 58.460938 73.230469 55.488281 C 76.113281 49.785156 77.554688 46.621094 77.554688 45.992188 C 77.554688 44.898438 76.640625 44.355469 74.8125 44.355469 C 71.121094 44.355469 68.128906 46.640625 65.832031 51.210938 L 59.214844 64.402344 L 49.144531 64.402344 L 67.03125 28.746094 L 77.101562 28.746094 L 71.5 40.039062 C 74.730469 38.359375 77.898438 37.511719 81.011719 37.511719 C 83.035156 37.511719 84.726562 37.84375 86.089844 38.503906 C 87.882812 39.367188 88.773438 40.707031 88.773438 42.539062 C 88.773438 45.152344 85.445312 52.433594 78.777344 64.398438 Z M 68.730469 64.398438 " clip-rule="nonzero"/></clipPath><clipPath id="242497b87a"><path d="M 87 37 L 125 37 L 125 65 L 87 65 Z M 87 37 " clip-rule="nonzero"/></clipPath><clipPath id="9695dce78b"><path d="M 99.417969 64.632812 C 96.414062 64.632812 93.902344 64.128906 91.878906 63.109375 C 89.226562 61.746094 87.902344 59.71875 87.902344 57.03125 C 87.902344 51.6875 90.824219 47.050781 96.671875 43.117188 C 101.929688 39.53125 107.347656 37.742188 112.917969 37.742188 C 115.921875 37.742188 118.453125 38.285156 120.515625 39.375 C 123.085938 40.777344 124.375 42.863281 124.375 45.628906 C 124.375 50.808594 121.414062 55.371094 115.488281 59.304688 C 110.191406 62.859375 104.832031 64.632812 99.417969 64.632812 Z M 109.457031 44.816406 C 106.953125 44.816406 104.585938 45.789062 102.355469 47.738281 C 100.007812 49.804688 98.832031 52.039062 98.832031 54.460938 C 98.832031 56.527344 100.203125 57.558594 102.941406 57.558594 C 105.410156 57.558594 107.792969 56.554688 110.101562 54.542969 C 112.410156 52.539062 113.566406 50.324219 113.566406 47.914062 C 113.5625 45.851562 112.191406 44.816406 109.457031 44.816406 Z M 109.457031 44.816406 " clip-rule="nonzero"/></clipPath><clipPath id="ddec943264"><path d="M 128 28 L 155 28 L 155 65 L 128 65 Z M 128 28 " clip-rule="nonzero"/></clipPath><clipPath id="bdc8e2bf5a"><path d="M 134.257812 64.457031 C 130.128906 64.457031 128.0625 63.285156 128.0625 60.949219 C 128.0625 59.585938 129.191406 56.644531 131.453125 52.121094 C 132.742188 49.628906 134.042969 47.152344 135.367188 44.699219 L 131.6875 44.699219 L 135.25 37.625 L 138.929688 37.625 L 141.15625 33.128906 L 153.660156 28.394531 L 148.96875 37.632812 L 154.480469 37.632812 L 150.917969 44.707031 L 145.421875 44.707031 C 141.527344 52.5 139.578125 56.492188 139.578125 56.6875 C 139.578125 56.84375 139.597656 56.9375 139.632812 56.980469 L 140.335938 57.15625 C 141 57.15625 142.519531 56.863281 144.898438 56.277344 L 142.386719 63.175781 C 139.457031 64.027344 136.746094 64.457031 134.257812 64.457031 Z M 134.257812 64.457031 " clip-rule="nonzero"/></clipPath><clipPath id="8ce6798c73"><path d="M 150 37 L 187 37 L 187 65 L 150 65 Z M 150 37 " clip-rule="nonzero"/></clipPath><clipPath id="b181ffabf4"><path d="M 161.902344 64.632812 C 158.898438 64.632812 156.386719 64.128906 154.363281 63.109375 C 151.710938 61.746094 150.386719 59.71875 150.386719 57.03125 C 150.386719 51.6875 153.308594 47.050781 159.15625 43.117188 C 164.414062 39.53125 169.832031 37.742188 175.40625 37.742188 C 178.40625 37.742188 180.941406 38.285156 183 39.375 C 185.570312 40.777344 186.859375 42.863281 186.859375 45.628906 C 186.859375 50.808594 183.898438 55.371094 177.976562 59.304688 C 172.679688 62.859375 167.320312 64.632812 161.902344 64.632812 Z M 171.941406 44.816406 C 169.4375 44.816406 167.070312 45.789062 164.839844 47.738281 C 162.492188 49.804688 161.316406 52.039062 161.316406 54.460938 C 161.316406 56.527344 162.6875 57.558594 165.425781 57.558594 C 167.894531 57.558594 170.277344 56.554688 172.585938 54.542969 C 174.894531 52.539062 176.050781 50.324219 176.050781 47.914062 C 176.046875 45.851562 174.679688 44.816406 171.941406 44.816406 Z M 171.941406 44.816406 " clip-rule="nonzero"/></clipPath><clipPath id="1d202405fc"><path d="M 185 38 L 224.761719 38 L 224.761719 65 L 185 65 Z M 185 38 " clip-rule="nonzero"/></clipPath><clipPath id="444cbdbdbe"><path d="M 204.632812 64.511719 C 206.074219 61.746094 207.515625 58.957031 208.957031 56.15625 C 211.765625 50.582031 213.164062 47.445312 213.164062 46.742188 C 213.164062 45.535156 212.308594 44.933594 210.601562 44.933594 C 208.1875 44.933594 206.1875 45.710938 204.59375 47.277344 C 203.542969 48.292969 202.355469 50.125 201.035156 52.78125 L 195.132812 64.515625 L 185.054688 64.515625 L 198.035156 38.738281 L 207.503906 38.738281 L 206.390625 41.019531 C 209.859375 39.148438 213.308594 38.210938 216.738281 38.210938 C 221.960938 38.210938 224.574219 39.828125 224.574219 43.0625 C 224.574219 44.738281 223.050781 48.578125 220.011719 54.578125 C 218.257812 57.890625 216.488281 61.199219 214.691406 64.515625 L 204.632812 64.515625 Z M 204.632812 64.511719 " clip-rule="nonzero"/></clipPath><clipPath id="16db7614d8"><path d="M 0 11.269531 L 69 11.269531 L 69 78.730469 L 0 78.730469 Z M 0 11.269531 " clip-rule="nonzero"/></clipPath><clipPath id="441e4e76cb"><path d="M 55.8125 45.960938 C 59.695312 41.15625 62.757812 36.347656 65.011719 31.539062 C 68.902344 23.234375 69.214844 17.363281 65.960938 13.933594 C 62.707031 10.5 56.828125 10.503906 48.324219 13.9375 C 42.90625 16.128906 37.4375 19.308594 31.914062 23.472656 C 24.523438 18.488281 18.027344 16 12.441406 16 C 9.789062 16 7.738281 16.730469 6.273438 18.191406 C 4.8125 19.648438 4.085938 21.707031 4.085938 24.351562 C 4.085938 29.824219 6.53125 36.25 11.425781 43.621094 C 8.136719 47.886719 5.496094 52.160156 3.496094 56.429688 C -0.390625 64.734375 -0.710938 70.609375 2.546875 74.042969 C 5.800781 77.476562 11.675781 77.472656 20.179688 74.035156 C 24.460938 72.304688 28.769531 69.957031 33.113281 66.996094 C 35.601562 68.964844 38.125 70.75 40.675781 72.347656 C 47.613281 76.710938 53.574219 78.894531 58.5625 78.894531 C 61.214844 78.894531 63.28125 78.152344 64.757812 76.671875 C 66.242188 75.1875 66.984375 73.125 66.984375 70.476562 C 66.984375 66.617188 65.636719 62.117188 62.949219 56.972656 C 61.078125 53.390625 58.703125 49.71875 55.8125 45.960938 Z M 45.949219 16.019531 C 53.605469 12.929688 58.886719 12.925781 61.804688 16 C 64.75 19.105469 64.464844 24.390625 60.957031 31.847656 C 59.148438 35.699219 56.757812 39.550781 53.78125 43.402344 C 53.429688 42.980469 53.078125 42.554688 52.714844 42.125 C 54.15625 39.710938 54.878906 37.566406 54.878906 35.699219 C 54.878906 32.582031 52.96875 30.613281 49.148438 29.792969 C 47.746094 29.519531 44.605469 29.382812 39.734375 29.382812 C 37.171875 27.25 34.699219 25.367188 32.320312 23.742188 C 36.902344 20.410156 41.449219 17.832031 45.949219 16.019531 Z M 25.339844 29.382812 C 27.527344 27.445312 29.703125 25.679688 31.867188 24.078125 C 34.1875 25.5625 36.613281 27.332031 39.152344 29.382812 Z M 39.863281 37.097656 C 42.039062 37.371094 43.128906 38.109375 43.128906 39.324219 C 43.128906 41.195312 41.921875 42.597656 39.503906 43.53125 C 37.75 44.234375 35.78125 44.582031 33.597656 44.582031 L 27.929688 44.582031 L 31.761719 36.984375 L 35.316406 36.984375 C 37.808594 36.984375 39.316406 37.023438 39.863281 37.097656 Z M 24.0625 52.234375 C 31.507812 52.234375 36.808594 51.863281 39.964844 51.125 C 45.574219 49.796875 49.746094 46.917969 52.472656 42.476562 C 52.828125 42.898438 53.175781 43.324219 53.511719 43.742188 C 50.777344 47.246094 47.558594 50.75 43.859375 54.257812 C 40.234375 57.695312 36.632812 60.667969 33.058594 63.183594 C 29.714844 60.449219 26.457031 57.351562 23.292969 53.894531 Z M 16.734375 45.996094 C 15.613281 44.449219 14.601562 42.941406 13.699219 41.484375 C 16.273438 38.277344 19.253906 35.070312 22.636719 31.863281 C 23.40625 31.132812 24.175781 30.425781 24.945312 29.734375 Z M 8.113281 25.761719 C 8.113281 23.34375 8.773438 21.472656 10.097656 20.148438 C 11.417969 18.820312 13.285156 18.15625 15.699219 18.15625 C 20.226562 18.15625 25.484375 20.042969 31.460938 23.816406 C 28.472656 26.097656 25.46875 28.671875 22.453125 31.53125 C 19.09375 34.714844 16.09375 37.898438 13.453125 41.082031 C 9.894531 35.226562 8.113281 30.121094 8.113281 25.761719 Z M 20.570312 70.128906 C 12.929688 73.230469 7.644531 73.230469 4.695312 70.125 C 1.785156 67.050781 2.070312 61.769531 5.5625 54.292969 C 7.15625 50.886719 9.210938 47.476562 11.71875 44.0625 C 12.773438 45.632812 13.9375 47.238281 15.210938 48.890625 L 7.183594 64.925781 L 17.722656 64.925781 L 21.847656 56.625 C 24.699219 59.640625 27.597656 62.398438 30.53125 64.890625 C 27.1875 67.042969 23.867188 68.789062 20.570312 70.128906 Z M 62.710938 72.8125 C 61.386719 74.136719 59.519531 74.796875 57.105469 74.796875 C 52.511719 74.796875 47 72.734375 40.578125 68.609375 C 38.910156 67.554688 37.265625 66.417969 35.640625 65.195312 C 39.089844 62.660156 42.5625 59.738281 46.054688 56.429688 C 49.613281 53.058594 52.773438 49.679688 55.527344 46.300781 C 61.636719 54.394531 64.699219 61.359375 64.699219 67.195312 C 64.699219 69.621094 64.03125 71.492188 62.710938 72.8125 Z M 62.710938 72.8125 " clip-rule="nonzero"/></clipPath><clipPath id="21f1d9cb90"><path d="M 71.984375 69.898438 L 76.335938 69.898438 L 76.335938 70.953125 L 71.984375 70.953125 Z M 71.984375 70.953125 L 73.195312 70.953125 L 73.195312 72.214844 L 71.984375 72.214844 Z M 71.984375 72.214844 L 76.082031 72.214844 L 76.082031 73.246094 L 71.984375 73.246094 Z M 71.984375 73.246094 L 73.195312 73.246094 L 73.195312 74.769531 L 71.984375 74.769531 Z M 71.984375 74.769531 L 76.484375 74.769531 L 76.484375 75.839844 L 71.984375 75.839844 Z M 71.984375 74.769531 " clip-rule="nonzero"/></clipPath><clipPath id="7102c911eb"><path d="M 85.863281 69.90625 L 87.101562 69.90625 L 87.101562 74.773438 L 85.863281 74.773438 Z M 85.863281 74.773438 L 90.066406 74.773438 L 90.066406 75.84375 L 85.863281 75.84375 Z M 85.863281 74.773438 " clip-rule="nonzero"/></clipPath><clipPath id="b519319a40"><path d="M 99.351562 69.898438 L 103.703125 69.898438 L 103.703125 70.953125 L 99.351562 70.953125 Z M 99.351562 70.953125 L 100.5625 70.953125 L 100.5625 72.214844 L 99.351562 72.214844 Z M 99.351562 72.214844 L 103.445312 72.214844 L 103.445312 73.246094 L 99.351562 73.246094 Z M 99.351562 73.246094 L 100.5625 73.246094 L 100.5625 74.769531 L 99.351562 74.769531 Z M 99.351562 74.769531 L 103.851562 74.769531 L 103.851562 75.839844 L 99.351562 75.839844 Z M 99.351562 74.769531 " clip-rule="nonzero"/></clipPath><clipPath id="4daf560dee"><path d="M 112 69 L 119 69 L 119 77 L 112 77 Z M 112 69 " clip-rule="nonzero"/></clipPath><clipPath id="105c3a875f"><path d="M 113.796875 70.523438 C 114.277344 70.03125 114.886719 69.789062 115.625 69.789062 C 116.613281 69.789062 117.332031 70.117188 117.789062 70.773438 C 118.042969 71.140625 118.179688 71.511719 118.199219 71.882812 L 116.957031 71.882812 C 116.878906 71.597656 116.777344 71.382812 116.652344 71.234375 C 116.429688 70.976562 116.109375 70.851562 115.671875 70.851562 C 115.230469 70.851562 114.882812 71.03125 114.625 71.394531 C 114.367188 71.761719 114.242188 72.277344 114.242188 72.941406 C 114.242188 73.605469 114.375 74.105469 114.644531 74.4375 C 114.914062 74.769531 115.257812 74.9375 115.671875 74.9375 C 116.097656 74.9375 116.421875 74.792969 116.644531 74.507812 C 116.769531 74.355469 116.871094 74.125 116.953125 73.820312 L 118.183594 73.820312 C 118.078125 74.464844 117.804688 74.992188 117.371094 75.398438 C 116.933594 75.800781 116.375 76.003906 115.691406 76.003906 C 114.84375 76.003906 114.179688 75.730469 113.699219 75.183594 C 113.214844 74.632812 112.972656 73.875 112.972656 72.921875 C 112.972656 71.886719 113.246094 71.085938 113.796875 70.523438 Z M 113.796875 70.523438 " clip-rule="nonzero"/></clipPath><clipPath id="44cc2cd532"><path d="M 127.101562 69.90625 L 131.914062 69.90625 L 131.914062 70.953125 L 127.101562 70.953125 Z M 128.886719 70.953125 L 130.136719 70.953125 L 130.136719 75.839844 L 128.886719 75.839844 Z M 128.886719 70.953125 " clip-rule="nonzero"/></clipPath><clipPath id="3b8e5121c7"><path d="M 141 69 L 146 69 L 146 76 L 141 76 Z M 141 69 " clip-rule="nonzero"/></clipPath><clipPath id="d2a019b7dd"><path d="M 144.855469 70.058594 C 145.074219 70.152344 145.261719 70.289062 145.410156 70.46875 C 145.535156 70.621094 145.636719 70.789062 145.710938 70.96875 C 145.78125 71.148438 145.820312 71.359375 145.820312 71.589844 C 145.820312 71.871094 145.75 72.152344 145.605469 72.421875 C 145.464844 72.695312 145.230469 72.886719 144.902344 73.003906 C 145.179688 73.113281 145.367188 73.269531 145.488281 73.472656 C 145.601562 73.675781 145.660156 73.984375 145.660156 74.398438 L 145.660156 74.796875 C 145.660156 75.070312 145.667969 75.253906 145.691406 75.347656 C 145.726562 75.5 145.800781 75.617188 145.921875 75.6875 L 145.921875 75.832031 L 144.550781 75.832031 C 144.515625 75.699219 144.484375 75.597656 144.472656 75.515625 C 144.4375 75.347656 144.421875 75.179688 144.417969 75.003906 L 144.410156 74.453125 C 144.40625 74.070312 144.339844 73.820312 144.214844 73.695312 C 144.089844 73.566406 143.855469 73.507812 143.507812 73.507812 L 142.296875 73.507812 L 142.296875 75.832031 L 141.082031 75.832031 L 141.082031 69.894531 L 143.925781 69.894531 C 144.328125 69.914062 144.636719 69.960938 144.855469 70.058594 Z M 142.296875 70.9375 L 142.296875 72.53125 L 143.628906 72.53125 C 143.894531 72.53125 144.097656 72.5 144.230469 72.4375 C 144.460938 72.324219 144.582031 72.101562 144.582031 71.765625 C 144.582031 71.40625 144.464844 71.164062 144.238281 71.039062 C 144.109375 70.96875 143.921875 70.9375 143.664062 70.9375 Z M 142.296875 70.9375 " clip-rule="nonzero"/></clipPath><clipPath id="88142fa208"><path d="M 155 69 L 161 69 L 161 77 L 155 77 Z M 155 69 " clip-rule="nonzero"/></clipPath><clipPath id="f85934a0a3"><path d="M 159.996094 75.3125 C 159.550781 75.773438 158.898438 76.003906 158.054688 76.003906 C 157.203125 76.003906 156.558594 75.773438 156.109375 75.3125 C 155.507812 74.746094 155.207031 73.929688 155.207031 72.863281 C 155.207031 71.777344 155.507812 70.960938 156.109375 70.417969 C 156.558594 69.957031 157.207031 69.722656 158.054688 69.722656 C 158.90625 69.722656 159.550781 69.957031 159.996094 70.417969 C 160.597656 70.964844 160.894531 71.78125 160.894531 72.863281 C 160.894531 73.929688 160.597656 74.746094 159.996094 75.3125 Z M 159.21875 74.414062 C 159.507812 74.050781 159.652344 73.535156 159.652344 72.863281 C 159.652344 72.199219 159.507812 71.679688 159.21875 71.320312 C 158.929688 70.953125 158.539062 70.773438 158.050781 70.773438 C 157.558594 70.773438 157.164062 70.953125 156.871094 71.316406 C 156.578125 71.675781 156.433594 72.195312 156.433594 72.863281 C 156.433594 73.535156 156.582031 74.046875 156.871094 74.414062 C 157.164062 74.773438 157.554688 74.953125 158.050781 74.953125 C 158.542969 74.953125 158.933594 74.773438 159.21875 74.414062 Z M 159.21875 74.414062 " clip-rule="nonzero"/></clipPath><clipPath id="6fb0f6604f"><path d="M 170 69 L 176 69 L 176 76 L 170 76 Z M 170 69 " clip-rule="nonzero"/></clipPath><clipPath id="5cfbb19092"><path d="M 170.230469 69.90625 L 171.53125 69.90625 L 173.890625 74.042969 L 173.890625 69.90625 L 175.042969 69.90625 L 175.042969 75.84375 L 173.804688 75.84375 L 171.386719 71.628906 L 171.386719 75.84375 L 170.230469 75.84375 Z M 170.230469 69.90625 " clip-rule="nonzero"/></clipPath><clipPath id="a898defd5b"><path d="M 184.527344 69.898438 L 185.757812 69.898438 L 185.757812 75.839844 L 184.527344 75.839844 Z M 184.527344 69.898438 " clip-rule="nonzero"/></clipPath><clipPath id="d25bc6f4fc"><path d="M 195 69 L 201 69 L 201 77 L 195 77 Z M 195 69 " clip-rule="nonzero"/></clipPath><clipPath id="4757e8ef13"><path d="M 195.894531 70.523438 C 196.375 70.03125 196.984375 69.789062 197.71875 69.789062 C 198.707031 69.789062 199.429688 70.117188 199.886719 70.773438 C 200.136719 71.140625 200.277344 71.511719 200.296875 71.882812 L 199.054688 71.882812 C 198.972656 71.597656 198.875 71.382812 198.75 71.234375 C 198.527344 70.976562 198.203125 70.851562 197.769531 70.851562 C 197.324219 70.851562 196.980469 71.03125 196.722656 71.394531 C 196.464844 71.761719 196.335938 72.277344 196.335938 72.941406 C 196.335938 73.605469 196.46875 74.105469 196.742188 74.4375 C 197.011719 74.769531 197.355469 74.9375 197.769531 74.9375 C 198.195312 74.9375 198.519531 74.792969 198.742188 74.507812 C 198.863281 74.355469 198.96875 74.125 199.050781 73.820312 L 200.28125 73.820312 C 200.175781 74.464844 199.902344 74.992188 199.46875 75.398438 C 199.03125 75.800781 198.472656 76.003906 197.785156 76.003906 C 196.941406 76.003906 196.277344 75.730469 195.796875 75.183594 C 195.3125 74.632812 195.070312 73.875 195.070312 72.921875 C 195.074219 71.886719 195.34375 71.085938 195.894531 70.523438 Z M 195.894531 70.523438 " clip-rule="nonzero"/></clipPath><clipPath id="2fe3828d50"><path d="M 209 69 L 215 69 L 215 77 L 209 77 Z M 209 69 " clip-rule="nonzero"/></clipPath><clipPath id="9d635a932c"><path d="M 210.59375 74.007812 C 210.632812 74.28125 210.710938 74.484375 210.824219 74.617188 C 211.027344 74.859375 211.378906 74.984375 211.878906 74.984375 C 212.175781 74.984375 212.417969 74.949219 212.605469 74.886719 C 212.957031 74.765625 213.136719 74.535156 213.136719 74.199219 C 213.136719 74.003906 213.050781 73.851562 212.875 73.742188 C 212.703125 73.640625 212.429688 73.542969 212.050781 73.46875 L 211.40625 73.324219 C 210.777344 73.1875 210.34375 73.035156 210.105469 72.871094 C 209.707031 72.59375 209.507812 72.167969 209.507812 71.585938 C 209.507812 71.054688 209.703125 70.613281 210.097656 70.261719 C 210.484375 69.910156 211.0625 69.734375 211.820312 69.734375 C 212.453125 69.734375 212.996094 69.898438 213.441406 70.234375 C 213.886719 70.566406 214.121094 71.042969 214.144531 71.675781 L 212.953125 71.675781 C 212.929688 71.320312 212.769531 71.0625 212.472656 70.917969 C 212.273438 70.816406 212.027344 70.769531 211.730469 70.769531 C 211.402344 70.769531 211.140625 70.835938 210.945312 70.964844 C 210.753906 71.09375 210.652344 71.273438 210.652344 71.503906 C 210.652344 71.71875 210.746094 71.875 210.941406 71.980469 C 211.066406 72.050781 211.328125 72.132812 211.730469 72.226562 L 212.769531 72.476562 C 213.226562 72.585938 213.570312 72.726562 213.796875 72.90625 C 214.148438 73.1875 214.328125 73.589844 214.328125 74.117188 C 214.328125 74.660156 214.121094 75.113281 213.703125 75.46875 C 213.285156 75.824219 212.691406 76.003906 211.925781 76.003906 C 211.144531 76.003906 210.527344 75.828125 210.082031 75.476562 C 209.636719 75.125 209.414062 74.640625 209.414062 74.023438 L 210.59375 74.023438 Z M 210.59375 74.007812 " clip-rule="nonzero"/></clipPath><clipPath id="97287c9818"><path d="M 49 28 L 89 28 L 89 65 L 49 65 Z M 49 28 " clip-rule="nonzero"/></clipPath><clipPath id="a9a61a5fef"><path d="M 68.730469 64.398438 C 70.25 61.429688 71.753906 58.460938 73.230469 55.488281 C 76.113281 49.785156 77.554688 46.621094 77.554688 45.992188 C 77.554688 44.898438 76.640625 44.355469 74.8125 44.355469 C 71.121094 44.355469 68.128906 46.640625 65.832031 51.210938 L 59.214844 64.402344 L 49.144531 64.402344 L 67.03125 28.746094 L 77.101562 28.746094 L 71.5 40.039062 C 74.730469 38.359375 77.898438 37.511719 81.011719 37.511719 C 83.035156 37.511719 84.726562 37.84375 86.089844 38.503906 C 87.882812 39.367188 88.773438 40.707031 88.773438 42.539062 C 88.773438 45.152344 85.445312 52.433594 78.777344 64.398438 Z M 68.730469 64.398438 " clip-rule="nonzero"/></clipPath><clipPath id="a916ff686b"><path d="M 87 37 L 125 37 L 125 65 L 87 65 Z M 87 37 " clip-rule="nonzero"/></clipPath><clipPath id="250657c390"><path d="M 99.417969 64.632812 C 96.414062 64.632812 93.902344 64.128906 91.878906 63.109375 C 89.226562 61.746094 87.902344 59.71875 87.902344 57.03125 C 87.902344 51.6875 90.824219 47.050781 96.671875 43.117188 C 101.929688 39.53125 107.347656 37.742188 112.917969 37.742188 C 115.921875 37.742188 118.453125 38.285156 120.515625 39.375 C 123.085938 40.777344 124.375 42.863281 124.375 45.628906 C 124.375 50.808594 121.414062 55.371094 115.488281 59.304688 C 110.191406 62.859375 104.832031 64.632812 99.417969 64.632812 Z M 109.457031 44.816406 C 106.953125 44.816406 104.585938 45.789062 102.355469 47.738281 C 100.007812 49.804688 98.832031 52.039062 98.832031 54.460938 C 98.832031 56.527344 100.203125 57.558594 102.941406 57.558594 C 105.410156 57.558594 107.792969 56.554688 110.101562 54.542969 C 112.410156 52.539062 113.566406 50.324219 113.566406 47.914062 C 113.5625 45.851562 112.191406 44.816406 109.457031 44.816406 Z M 109.457031 44.816406 " clip-rule="nonzero"/></clipPath><clipPath id="91e0c97b33"><path d="M 128 28 L 155 28 L 155 65 L 128 65 Z M 128 28 " clip-rule="nonzero"/></clipPath><clipPath id="2102b1e368"><path d="M 134.257812 64.457031 C 130.128906 64.457031 128.0625 63.285156 128.0625 60.949219 C 128.0625 59.585938 129.191406 56.644531 131.453125 52.121094 C 132.742188 49.628906 134.042969 47.152344 135.367188 44.699219 L 131.6875 44.699219 L 135.25 37.625 L 138.929688 37.625 L 141.15625 33.128906 L 153.660156 28.394531 L 148.96875 37.632812 L 154.480469 37.632812 L 150.917969 44.707031 L 145.421875 44.707031 C 141.527344 52.5 139.578125 56.492188 139.578125 56.6875 C 139.578125 56.84375 139.597656 56.9375 139.632812 56.980469 L 140.335938 57.15625 C 141 57.15625 142.519531 56.863281 144.898438 56.277344 L 142.386719 63.175781 C 139.457031 64.027344 136.746094 64.457031 134.257812 64.457031 Z M 134.257812 64.457031 " clip-rule="nonzero"/></clipPath><clipPath id="2d2464c7d5"><path d="M 150 37 L 187 37 L 187 65 L 150 65 Z M 150 37 " clip-rule="nonzero"/></clipPath><clipPath id="fc5e4e1acc"><path d="M 161.902344 64.632812 C 158.898438 64.632812 156.386719 64.128906 154.363281 63.109375 C 151.710938 61.746094 150.386719 59.71875 150.386719 57.03125 C 150.386719 51.6875 153.308594 47.050781 159.15625 43.117188 C 164.414062 39.53125 169.832031 37.742188 175.40625 37.742188 C 178.40625 37.742188 180.941406 38.285156 183 39.375 C 185.570312 40.777344 186.859375 42.863281 186.859375 45.628906 C 186.859375 50.808594 183.898438 55.371094 177.976562 59.304688 C 172.679688 62.859375 167.320312 64.632812 161.902344 64.632812 Z M 171.941406 44.816406 C 169.4375 44.816406 167.070312 45.789062 164.839844 47.738281 C 162.492188 49.804688 161.316406 52.039062 161.316406 54.460938 C 161.316406 56.527344 162.6875 57.558594 165.425781 57.558594 C 167.894531 57.558594 170.277344 56.554688 172.585938 54.542969 C 174.894531 52.539062 176.050781 50.324219 176.050781 47.914062 C 176.046875 45.851562 174.679688 44.816406 171.941406 44.816406 Z M 171.941406 44.816406 " clip-rule="nonzero"/></clipPath><clipPath id="3405839878"><path d="M 185 38 L 224.761719 38 L 224.761719 65 L 185 65 Z M 185 38 " clip-rule="nonzero"/></clipPath><clipPath id="02e07b2463"><path d="M 204.632812 64.511719 C 206.074219 61.746094 207.515625 58.957031 208.957031 56.15625 C 211.765625 50.582031 213.164062 47.445312 213.164062 46.742188 C 213.164062 45.535156 212.308594 44.933594 210.601562 44.933594 C 208.1875 44.933594 206.1875 45.710938 204.59375 47.277344 C 203.542969 48.292969 202.355469 50.125 201.035156 52.78125 L 195.132812 64.515625 L 185.054688 64.515625 L 198.035156 38.738281 L 207.503906 38.738281 L 206.390625 41.019531 C 209.859375 39.148438 213.308594 38.210938 216.738281 38.210938 C 221.960938 38.210938 224.574219 39.828125 224.574219 43.0625 C 224.574219 44.738281 223.050781 48.578125 220.011719 54.578125 C 218.257812 57.890625 216.488281 61.199219 214.691406 64.515625 L 204.632812 64.515625 Z M 204.632812 64.511719 " clip-rule="nonzero"/></clipPath><clipPath id="c71f875b26"><path d="M 0 11.269531 L 69 11.269531 L 69 78.730469 L 0 78.730469 Z M 0 11.269531 " clip-rule="nonzero"/></clipPath><clipPath id="9e3cd6a3c0"><path d="M 55.8125 45.960938 C 59.695312 41.15625 62.757812 36.347656 65.011719 31.539062 C 68.902344 23.234375 69.214844 17.363281 65.960938 13.933594 C 62.707031 10.5 56.828125 10.503906 48.324219 13.9375 C 42.90625 16.128906 37.4375 19.308594 31.914062 23.472656 C 24.523438 18.488281 18.027344 16 12.441406 16 C 9.789062 16 7.738281 16.730469 6.273438 18.191406 C 4.8125 19.648438 4.085938 21.707031 4.085938 24.351562 C 4.085938 29.824219 6.53125 36.25 11.425781 43.621094 C 8.136719 47.886719 5.496094 52.160156 3.496094 56.429688 C -0.390625 64.734375 -0.710938 70.609375 2.546875 74.042969 C 5.800781 77.476562 11.675781 77.472656 20.179688 74.035156 C 24.460938 72.304688 28.769531 69.957031 33.113281 66.996094 C 35.601562 68.964844 38.125 70.75 40.675781 72.347656 C 47.613281 76.710938 53.574219 78.894531 58.5625 78.894531 C 61.214844 78.894531 63.28125 78.152344 64.757812 76.671875 C 66.242188 75.1875 66.984375 73.125 66.984375 70.476562 C 66.984375 66.617188 65.636719 62.117188 62.949219 56.972656 C 61.078125 53.390625 58.703125 49.71875 55.8125 45.960938 Z M 45.949219 16.019531 C 53.605469 12.929688 58.886719 12.925781 61.804688 16 C 64.75 19.105469 64.464844 24.390625 60.957031 31.847656 C 59.148438 35.699219 56.757812 39.550781 53.78125 43.402344 C 53.429688 42.980469 53.078125 42.554688 52.714844 42.125 C 54.15625 39.710938 54.878906 37.566406 54.878906 35.699219 C 54.878906 32.582031 52.96875 30.613281 49.148438 29.792969 C 47.746094 29.519531 44.605469 29.382812 39.734375 29.382812 C 37.171875 27.25 34.699219 25.367188 32.320312 23.742188 C 36.902344 20.410156 41.449219 17.832031 45.949219 16.019531 Z M 25.339844 29.382812 C 27.527344 27.445312 29.703125 25.679688 31.867188 24.078125 C 34.1875 25.5625 36.613281 27.332031 39.152344 29.382812 Z M 39.863281 37.097656 C 42.039062 37.371094 43.128906 38.109375 43.128906 39.324219 C 43.128906 41.195312 41.921875 42.597656 39.503906 43.53125 C 37.75 44.234375 35.78125 44.582031 33.597656 44.582031 L 27.929688 44.582031 L 31.761719 36.984375 L 35.316406 36.984375 C 37.808594 36.984375 39.316406 37.023438 39.863281 37.097656 Z M 24.0625 52.234375 C 31.507812 52.234375 36.808594 51.863281 39.964844 51.125 C 45.574219 49.796875 49.746094 46.917969 52.472656 42.476562 C 52.828125 42.898438 53.175781 43.324219 53.511719 43.742188 C 50.777344 47.246094 47.558594 50.75 43.859375 54.257812 C 40.234375 57.695312 36.632812 60.667969 33.058594 63.183594 C 29.714844 60.449219 26.457031 57.351562 23.292969 53.894531 Z M 16.734375 45.996094 C 15.613281 44.449219 14.601562 42.941406 13.699219 41.484375 C 16.273438 38.277344 19.253906 35.070312 22.636719 31.863281 C 23.40625 31.132812 24.175781 30.425781 24.945312 29.734375 Z M 8.113281 25.761719 C 8.113281 23.34375 8.773438 21.472656 10.097656 20.148438 C 11.417969 18.820312 13.285156 18.15625 15.699219 18.15625 C 20.226562 18.15625 25.484375 20.042969 31.460938 23.816406 C 28.472656 26.097656 25.46875 28.671875 22.453125 31.53125 C 19.09375 34.714844 16.09375 37.898438 13.453125 41.082031 C 9.894531 35.226562 8.113281 30.121094 8.113281 25.761719 Z M 20.570312 70.128906 C 12.929688 73.230469 7.644531 73.230469 4.695312 70.125 C 1.785156 67.050781 2.070312 61.769531 5.5625 54.292969 C 7.15625 50.886719 9.210938 47.476562 11.71875 44.0625 C 12.773438 45.632812 13.9375 47.238281 15.210938 48.890625 L 7.183594 64.925781 L 17.722656 64.925781 L 21.847656 56.625 C 24.699219 59.640625 27.597656 62.398438 30.53125 64.890625 C 27.1875 67.042969 23.867188 68.789062 20.570312 70.128906 Z M 62.710938 72.8125 C 61.386719 74.136719 59.519531 74.796875 57.105469 74.796875 C 52.511719 74.796875 47 72.734375 40.578125 68.609375 C 38.910156 67.554688 37.265625 66.417969 35.640625 65.195312 C 39.089844 62.660156 42.5625 59.738281 46.054688 56.429688 C 49.613281 53.058594 52.773438 49.679688 55.527344 46.300781 C 61.636719 54.394531 64.699219 61.359375 64.699219 67.195312 C 64.699219 69.621094 64.03125 71.492188 62.710938 72.8125 Z M 62.710938 72.8125 " clip-rule="nonzero"/></clipPath><clipPath id="0e7c9b72f6"><path d="M 71.984375 69.898438 L 76.335938 69.898438 L 76.335938 70.953125 L 71.984375 70.953125 Z M 71.984375 70.953125 L 73.195312 70.953125 L 73.195312 72.214844 L 71.984375 72.214844 Z M 71.984375 72.214844 L 76.082031 72.214844 L 76.082031 73.246094 L 71.984375 73.246094 Z M 71.984375 73.246094 L 73.195312 73.246094 L 73.195312 74.769531 L 71.984375 74.769531 Z M 71.984375 74.769531 L 76.484375 74.769531 L 76.484375 75.839844 L 71.984375 75.839844 Z M 71.984375 74.769531 " clip-rule="nonzero"/></clipPath><clipPath id="6924500bb3"><path d="M 85.863281 69.90625 L 87.101562 69.90625 L 87.101562 74.773438 L 85.863281 74.773438 Z M 85.863281 74.773438 L 90.066406 74.773438 L 90.066406 75.84375 L 85.863281 75.84375 Z M 85.863281 74.773438 " clip-rule="nonzero"/></clipPath><clipPath id="e8f270d833"><path d="M 99.351562 69.898438 L 103.703125 69.898438 L 103.703125 70.953125 L 99.351562 70.953125 Z M 99.351562 70.953125 L 100.5625 70.953125 L 100.5625 72.214844 L 99.351562 72.214844 Z M 99.351562 72.214844 L 103.445312 72.214844 L 103.445312 73.246094 L 99.351562 73.246094 Z M 99.351562 73.246094 L 100.5625 73.246094 L 100.5625 74.769531 L 99.351562 74.769531 Z M 99.351562 74.769531 L 103.851562 74.769531 L 103.851562 75.839844 L 99.351562 75.839844 Z M 99.351562 74.769531 " clip-rule="nonzero"/></clipPath><clipPath id="11f90123c1"><path d="M 112 69 L 119 69 L 119 77 L 112 77 Z M 112 69 " clip-rule="nonzero"/></clipPath><clipPath id="67a5ea0d5a"><path d="M 113.796875 70.523438 C 114.277344 70.03125 114.886719 69.789062 115.625 69.789062 C 116.613281 69.789062 117.332031 70.117188 117.789062 70.773438 C 118.042969 71.140625 118.179688 71.511719 118.199219 71.882812 L 116.957031 71.882812 C 116.878906 71.597656 116.777344 71.382812 116.652344 71.234375 C 116.429688 70.976562 116.109375 70.851562 115.671875 70.851562 C 115.230469 70.851562 114.882812 71.03125 114.625 71.394531 C 114.367188 71.761719 114.242188 72.277344 114.242188 72.941406 C 114.242188 73.605469 114.375 74.105469 114.644531 74.4375 C 114.914062 74.769531 115.257812 74.9375 115.671875 74.9375 C 116.097656 74.9375 116.421875 74.792969 116.644531 74.507812 C 116.769531 74.355469 116.871094 74.125 116.953125 73.820312 L 118.183594 73.820312 C 118.078125 74.464844 117.804688 74.992188 117.371094 75.398438 C 116.933594 75.800781 116.375 76.003906 115.691406 76.003906 C 114.84375 76.003906 114.179688 75.730469 113.699219 75.183594 C 113.214844 74.632812 112.972656 73.875 112.972656 72.921875 C 112.972656 71.886719 113.246094 71.085938 113.796875 70.523438 Z M 113.796875 70.523438 " clip-rule="nonzero"/></clipPath><clipPath id="05e4c1d769"><path d="M 127.101562 69.90625 L 131.914062 69.90625 L 131.914062 70.953125 L 127.101562 70.953125 Z M 128.886719 70.953125 L 130.136719 70.953125 L 130.136719 75.839844 L 128.886719 75.839844 Z M 128.886719 70.953125 " clip-rule="nonzero"/></clipPath><clipPath id="0aa774357f"><path d="M 141 69 L 146 69 L 146 76 L 141 76 Z M 141 69 " clip-rule="nonzero"/></clipPath><clipPath id="0faf1ae8f6"><path d="M 144.855469 70.058594 C 145.074219 70.152344 145.261719 70.289062 145.410156 70.46875 C 145.535156 70.621094 145.636719 70.789062 145.710938 70.96875 C 145.78125 71.148438 145.820312 71.359375 145.820312 71.589844 C 145.820312 71.871094 145.75 72.152344 145.605469 72.421875 C 145.464844 72.695312 145.230469 72.886719 144.902344 73.003906 C 145.179688 73.113281 145.367188 73.269531 145.488281 73.472656 C 145.601562 73.675781 145.660156 73.984375 145.660156 74.398438 L 145.660156 74.796875 C 145.660156 75.070312 145.667969 75.253906 145.691406 75.347656 C 145.726562 75.5 145.800781 75.617188 145.921875 75.6875 L 145.921875 75.832031 L 144.550781 75.832031 C 144.515625 75.699219 144.484375 75.597656 144.472656 75.515625 C 144.4375 75.347656 144.421875 75.179688 144.417969 75.003906 L 144.410156 74.453125 C 144.40625 74.070312 144.339844 73.820312 144.214844 73.695312 C 144.089844 73.566406 143.855469 73.507812 143.507812 73.507812 L 142.296875 73.507812 L 142.296875 75.832031 L 141.082031 75.832031 L 141.082031 69.894531 L 143.925781 69.894531 C 144.328125 69.914062 144.636719 69.960938 144.855469 70.058594 Z M 142.296875 70.9375 L 142.296875 72.53125 L 143.628906 72.53125 C 143.894531 72.53125 144.097656 72.5 144.230469 72.4375 C 144.460938 72.324219 144.582031 72.101562 144.582031 71.765625 C 144.582031 71.40625 144.464844 71.164062 144.238281 71.039062 C 144.109375 70.96875 143.921875 70.9375 143.664062 70.9375 Z M 142.296875 70.9375 " clip-rule="nonzero"/></clipPath><clipPath id="b0bdba6784"><path d="M 155 69 L 161 69 L 161 77 L 155 77 Z M 155 69 " clip-rule="nonzero"/></clipPath><clipPath id="6741e3ac2b"><path d="M 159.996094 75.3125 C 159.550781 75.773438 158.898438 76.003906 158.054688 76.003906 C 157.203125 76.003906 156.558594 75.773438 156.109375 75.3125 C 155.507812 74.746094 155.207031 73.929688 155.207031 72.863281 C 155.207031 71.777344 155.507812 70.960938 156.109375 70.417969 C 156.558594 69.957031 157.207031 69.722656 158.054688 69.722656 C 158.90625 69.722656 159.550781 69.957031 159.996094 70.417969 C 160.597656 70.964844 160.894531 71.78125 160.894531 72.863281 C 160.894531 73.929688 160.597656 74.746094 159.996094 75.3125 Z M 159.21875 74.414062 C 159.507812 74.050781 159.652344 73.535156 159.652344 72.863281 C 159.652344 72.199219 159.507812 71.679688 159.21875 71.320312 C 158.929688 70.953125 158.539062 70.773438 158.050781 70.773438 C 157.558594 70.773438 157.164062 70.953125 156.871094 71.316406 C 156.578125 71.675781 156.433594 72.195312 156.433594 72.863281 C 156.433594 73.535156 156.582031 74.046875 156.871094 74.414062 C 157.164062 74.773438 157.554688 74.953125 158.050781 74.953125 C 158.542969 74.953125 158.933594 74.773438 159.21875 74.414062 Z M 159.21875 74.414062 " clip-rule="nonzero"/></clipPath><clipPath id="9cdfa6d057"><path d="M 170 69 L 176 69 L 176 76 L 170 76 Z M 170 69 " clip-rule="nonzero"/></clipPath><clipPath id="ff2a8eee2b"><path d="M 170.230469 69.90625 L 171.53125 69.90625 L 173.890625 74.042969 L 173.890625 69.90625 L 175.042969 69.90625 L 175.042969 75.84375 L 173.804688 75.84375 L 171.386719 71.628906 L 171.386719 75.84375 L 170.230469 75.84375 Z M 170.230469 69.90625 " clip-rule="nonzero"/></clipPath><clipPath id="1dafdfa93a"><path d="M 184.527344 69.898438 L 185.757812 69.898438 L 185.757812 75.839844 L 184.527344 75.839844 Z M 184.527344 69.898438 " clip-rule="nonzero"/></clipPath><clipPath id="a6f296314d"><path d="M 195 69 L 201 69 L 201 77 L 195 77 Z M 195 69 " clip-rule="nonzero"/></clipPath><clipPath id="5734df4266"><path d="M 195.894531 70.523438 C 196.375 70.03125 196.984375 69.789062 197.71875 69.789062 C 198.707031 69.789062 199.429688 70.117188 199.886719 70.773438 C 200.136719 71.140625 200.277344 71.511719 200.296875 71.882812 L 199.054688 71.882812 C 198.972656 71.597656 198.875 71.382812 198.75 71.234375 C 198.527344 70.976562 198.203125 70.851562 197.769531 70.851562 C 197.324219 70.851562 196.980469 71.03125 196.722656 71.394531 C 196.464844 71.761719 196.335938 72.277344 196.335938 72.941406 C 196.335938 73.605469 196.46875 74.105469 196.742188 74.4375 C 197.011719 74.769531 197.355469 74.9375 197.769531 74.9375 C 198.195312 74.9375 198.519531 74.792969 198.742188 74.507812 C 198.863281 74.355469 198.96875 74.125 199.050781 73.820312 L 200.28125 73.820312 C 200.175781 74.464844 199.902344 74.992188 199.46875 75.398438 C 199.03125 75.800781 198.472656 76.003906 197.785156 76.003906 C 196.941406 76.003906 196.277344 75.730469 195.796875 75.183594 C 195.3125 74.632812 195.070312 73.875 195.070312 72.921875 C 195.074219 71.886719 195.34375 71.085938 195.894531 70.523438 Z M 195.894531 70.523438 " clip-rule="nonzero"/></clipPath><clipPath id="b40ce5001b"><path d="M 209 69 L 215 69 L 215 77 L 209 77 Z M 209 69 " clip-rule="nonzero"/></clipPath><clipPath id="f8a8ad7ddc"><path d="M 210.59375 74.007812 C 210.632812 74.28125 210.710938 74.484375 210.824219 74.617188 C 211.027344 74.859375 211.378906 74.984375 211.878906 74.984375 C 212.175781 74.984375 212.417969 74.949219 212.605469 74.886719 C 212.957031 74.765625 213.136719 74.535156 213.136719 74.199219 C 213.136719 74.003906 213.050781 73.851562 212.875 73.742188 C 212.703125 73.640625 212.429688 73.542969 212.050781 73.46875 L 211.40625 73.324219 C 210.777344 73.1875 210.34375 73.035156 210.105469 72.871094 C 209.707031 72.59375 209.507812 72.167969 209.507812 71.585938 C 209.507812 71.054688 209.703125 70.613281 210.097656 70.261719 C 210.484375 69.910156 211.0625 69.734375 211.820312 69.734375 C 212.453125 69.734375 212.996094 69.898438 213.441406 70.234375 C 213.886719 70.566406 214.121094 71.042969 214.144531 71.675781 L 212.953125 71.675781 C 212.929688 71.320312 212.769531 71.0625 212.472656 70.917969 C 212.273438 70.816406 212.027344 70.769531 211.730469 70.769531 C 211.402344 70.769531 211.140625 70.835938 210.945312 70.964844 C 210.753906 71.09375 210.652344 71.273438 210.652344 71.503906 C 210.652344 71.71875 210.746094 71.875 210.941406 71.980469 C 211.066406 72.050781 211.328125 72.132812 211.730469 72.226562 L 212.769531 72.476562 C 213.226562 72.585938 213.570312 72.726562 213.796875 72.90625 C 214.148438 73.1875 214.328125 73.589844 214.328125 74.117188 C 214.328125 74.660156 214.121094 75.113281 213.703125 75.46875 C 213.285156 75.824219 212.691406 76.003906 211.925781 76.003906 C 211.144531 76.003906 210.527344 75.828125 210.082031 75.476562 C 209.636719 75.125 209.414062 74.640625 209.414062 74.023438 L 210.59375 74.023438 Z M 210.59375 74.007812 " clip-rule="nonzero"/></clipPath></defs><g clip-path="url(#96b9876085)"><g clip-path="url(#35ef4cd7b8)"><path fill="#ffffff" d="M 49.144531 28.746094 L 49.144531 64.402344 L 88.773438 64.402344 L 88.773438 28.746094 Z M 49.144531 28.746094 " fill-opacity="1" fill-rule="nonzero"/></g></g><g clip-path="url(#242497b87a)"><g clip-path="url(#9695dce78b)"><path fill="#ffffff" d="M 87.902344 37.742188 L 87.902344 64.632812 L 124.375 64.632812 L 124.375 37.742188 Z M 87.902344 37.742188 " fill-opacity="1" fill-rule="nonzero"/></g></g><g clip-path="url(#ddec943264)"><g clip-path="url(#bdc8e2bf5a)"><path fill="#ffffff" d="M 128.0625 28.394531 L 128.0625 64.457031 L 154.480469 64.457031 L 154.480469 28.394531 Z M 128.0625 28.394531 " fill-opacity="1" fill-rule="nonzero"/></g></g><g clip-path="url(#8ce6798c73)"><g clip-path="url(#b181ffabf4)"><path fill="#ffffff" d="M 150.386719 37.742188 L 150.386719 64.632812 L 186.859375 64.632812 L 186.859375 37.742188 Z M 150.386719 37.742188 " fill-opacity="1" fill-rule="nonzero"/></g></g><g clip-path="url(#1d202405fc)"><g clip-path="url(#444cbdbdbe)"><path fill="#ffffff" d="M 185.054688 38.210938 L 185.054688 64.515625 L 224.574219 64.515625 L 224.574219 38.210938 Z M 185.054688 38.210938 " fill-opacity="1" fill-rule="nonzero"/></g></g><g clip-path="url(#16db7614d8)"><g clip-path="url(#441e4e76cb)"><path fill="#ffffff" d="M 0 11.269531 L 0 78.730469 L 69.214844 78.730469 L 69.214844 11.269531 Z M 0 11.269531 " fill-opacity="1" fill-rule="nonzero"/></g></g><g clip-path="url(#21f1d9cb90)"><path fill="#ffffff" d="M 71.984375 69.898438 L 71.984375 75.839844 L 76.484375 75.839844 L 76.484375 69.898438 Z M 71.984375 69.898438 " fill-opacity="1" fill-rule="nonzero"/></g><g clip-path="url(#7102c911eb)"><path fill="#ffffff" d="M 85.863281 69.90625 L 85.863281 75.84375 L 90.066406 75.84375 L 90.066406 69.90625 Z M 85.863281 69.90625 " fill-opacity="1" fill-rule="nonzero"/></g><g clip-path="url(#b519319a40)"><path fill="#ffffff" d="M 99.351562 69.898438 L 99.351562 75.839844 L 103.851562 75.839844 L 103.851562 69.898438 Z M 99.351562 69.898438 " fill-opacity="1" fill-rule="nonzero"/></g><g clip-path="url(#4daf560dee)"><g clip-path="url(#105c3a875f)"><path fill="#ffffff" d="M 112.972656 69.789062 L 112.972656 76.003906 L 118.199219 76.003906 L 118.199219 69.789062 Z M 112.972656 69.789062 " fill-opacity="1" fill-rule="nonzero"/></g></g><g clip-path="url(#44cc2cd532)"><path fill="#ffffff" d="M 127.101562 69.90625 L 127.101562 75.839844 L 131.914062 75.839844 L 131.914062 69.90625 Z M 127.101562 69.90625 " fill-opacity="1" fill-rule="nonzero"/></g><g clip-path="url(#3b8e5121c7)"><g clip-path="url(#d2a019b7dd)"><path fill="#ffffff" d="M 141.082031 69.894531 L 141.082031 75.832031 L 145.921875 75.832031 L 145.921875 69.894531 Z M 141.082031 69.894531 " fill-opacity="1" fill-rule="nonzero"/></g></g><g clip-path="url(#88142fa208)"><g clip-path="url(#f85934a0a3)"><path fill="#ffffff" d="M 155.207031 69.722656 L 155.207031 76.003906 L 160.894531 76.003906 L 160.894531 69.722656 Z M 155.207031 69.722656 " fill-opacity="1" fill-rule="nonzero"/></g></g><g clip-path="url(#6fb0f6604f)"><g clip-path="url(#5cfbb19092)"><path fill="#ffffff" d="M 170.230469 69.90625 L 170.230469 75.84375 L 175.042969 75.84375 L 175.042969 69.90625 Z M 170.230469 69.90625 " fill-opacity="1" fill-rule="nonzero"/></g></g><g clip-path="url(#a898defd5b)"><path fill="#ffffff" d="M 184.527344 69.898438 L 184.527344 75.839844 L 185.757812 75.839844 L 185.757812 69.898438 Z M 184.527344 69.898438 " fill-opacity="1" fill-rule="nonzero"/></g><g clip-path="url(#d25bc6f4fc)"><g clip-path="url(#4757e8ef13)"><path fill="#ffffff" d="M 195.070312 69.789062 L 195.070312 76.003906 L 200.296875 76.003906 L 200.296875 69.789062 Z M 195.070312 69.789062 " fill-opacity="1" fill-rule="nonzero"/></g></g><g clip-path="url(#2fe3828d50)"><g clip-path="url(#9d635a932c)"><path fill="#ffffff" d="M 209.414062 69.734375 L 209.414062 76.003906 L 214.328125 76.003906 L 214.328125 69.734375 Z M 209.414062 69.734375 " fill-opacity="1" fill-rule="nonzero"/></g></g><g clip-path="url(#97287c9818)"><g clip-path="url(#a9a61a5fef)"><path fill="#ffffff" d="M 49.144531 28.746094 L 49.144531 64.402344 L 88.773438 64.402344 L 88.773438 28.746094 Z M 49.144531 28.746094 " fill-opacity="1" fill-rule="nonzero"/></g></g><g clip-path="url(#a916ff686b)"><g clip-path="url(#250657c390)"><path fill="#ffffff" d="M 87.902344 37.742188 L 87.902344 64.632812 L 124.375 64.632812 L 124.375 37.742188 Z M 87.902344 37.742188 " fill-opacity="1" fill-rule="nonzero"/></g></g><g clip-path="url(#91e0c97b33)"><g clip-path="url(#2102b1e368)"><path fill="#ffffff" d="M 128.0625 28.394531 L 128.0625 64.457031 L 154.480469 64.457031 L 154.480469 28.394531 Z M 128.0625 28.394531 " fill-opacity="1" fill-rule="nonzero"/></g></g><g clip-path="url(#2d2464c7d5)"><g clip-path="url(#fc5e4e1acc)"><path fill="#ffffff" d="M 150.386719 37.742188 L 150.386719 64.632812 L 186.859375 64.632812 L 186.859375 37.742188 Z M 150.386719 37.742188 " fill-opacity="1" fill-rule="nonzero"/></g></g><g clip-path="url(#3405839878)"><g clip-path="url(#02e07b2463)"><path fill="#ffffff" d="M 185.054688 38.210938 L 185.054688 64.515625 L 224.574219 64.515625 L 224.574219 38.210938 Z M 185.054688 38.210938 " fill-opacity="1" fill-rule="nonzero"/></g></g><g clip-path="url(#c71f875b26)"><g clip-path="url(#9e3cd6a3c0)"><path fill="#ffffff" d="M 0 11.269531 L 0 78.730469 L 69.214844 78.730469 L 69.214844 11.269531 Z M 0 11.269531 " fill-opacity="1" fill-rule="nonzero"/></g></g><g clip-path="url(#0e7c9b72f6)"><path fill="#ffffff" d="M 71.984375 69.898438 L 71.984375 75.839844 L 76.484375 75.839844 L 76.484375 69.898438 Z M 71.984375 69.898438 " fill-opacity="1" fill-rule="nonzero"/></g><g clip-path="url(#6924500bb3)"><path fill="#ffffff" d="M 85.863281 69.90625 L 85.863281 75.84375 L 90.066406 75.84375 L 90.066406 69.90625 Z M 85.863281 69.90625 " fill-opacity="1" fill-rule="nonzero"/></g><g clip-path="url(#e8f270d833)"><path fill="#ffffff" d="M 99.351562 69.898438 L 99.351562 75.839844 L 103.851562 75.839844 L 103.851562 69.898438 Z M 99.351562 69.898438 " fill-opacity="1" fill-rule="nonzero"/></g><g clip-path="url(#11f90123c1)"><g clip-path="url(#67a5ea0d5a)"><path fill="#ffffff" d="M 112.972656 69.789062 L 112.972656 76.003906 L 118.199219 76.003906 L 118.199219 69.789062 Z M 112.972656 69.789062 " fill-opacity="1" fill-rule="nonzero"/></g></g><g clip-path="url(#05e4c1d769)"><path fill="#ffffff" d="M 127.101562 69.90625 L 127.101562 75.839844 L 131.914062 75.839844 L 131.914062 69.90625 Z M 127.101562 69.90625 " fill-opacity="1" fill-rule="nonzero"/></g><g clip-path="url(#0aa774357f)"><g clip-path="url(#0faf1ae8f6)"><path fill="#ffffff" d="M 141.082031 69.894531 L 141.082031 75.832031 L 145.921875 75.832031 L 145.921875 69.894531 Z M 141.082031 69.894531 " fill-opacity="1" fill-rule="nonzero"/></g></g><g clip-path="url(#b0bdba6784)"><g clip-path="url(#6741e3ac2b)"><path fill="#ffffff" d="M 155.207031 69.722656 L 155.207031 76.003906 L 160.894531 76.003906 L 160.894531 69.722656 Z M 155.207031 69.722656 " fill-opacity="1" fill-rule="nonzero"/></g></g><g clip-path="url(#9cdfa6d057)"><g clip-path="url(#ff2a8eee2b)"><path fill="#ffffff" d="M 170.230469 69.90625 L 170.230469 75.84375 L 175.042969 75.84375 L 175.042969 69.90625 Z M 170.230469 69.90625 " fill-opacity="1" fill-rule="nonzero"/></g></g><g clip-path="url(#1dafdfa93a)"><path fill="#ffffff" d="M 184.527344 69.898438 L 184.527344 75.839844 L 185.757812 75.839844 L 185.757812 69.898438 Z M 184.527344 69.898438 " fill-opacity="1" fill-rule="nonzero"/></g><g clip-path="url(#a6f296314d)"><g clip-path="url(#5734df4266)"><path fill="#ffffff" d="M 195.070312 69.789062 L 195.070312 76.003906 L 200.296875 76.003906 L 200.296875 69.789062 Z M 195.070312 69.789062 " fill-opacity="1" fill-rule="nonzero"/></g></g><g clip-path="url(#b40ce5001b)"><g clip-path="url(#f8a8ad7ddc)"><path fill="#ffffff" d="M 209.414062 69.734375 L 209.414062 76.003906 L 214.328125 76.003906 L 214.328125 69.734375 Z M 209.414062 69.734375 " fill-opacity="1" fill-rule="nonzero"/></g></g></svg>